<svg width="79" height="79" viewBox="0 0 79 79" fill="none" xmlns="http://www.w3.org/2000/svg">
<path fill-rule="evenodd" clip-rule="evenodd" d="M39.3329 73.6733C58.2676 73.6733 73.6736 58.2673 73.6736 39.3326C73.6736 20.3979 58.2676 4.99188 39.3329 4.99188C20.3982 4.99188 4.99219 20.3979 4.99219 39.3326C4.99219 58.2673 20.3982 73.6733 39.3329 73.6733Z" fill="#FEFEFE" stroke="#FEFEFE" stroke-width="0.5669" stroke-miterlimit="22.9256"/>
<path fill-rule="evenodd" clip-rule="evenodd" d="M41.829 61.9682L42.1732 30.1234C42.0872 26.5947 37.5256 24.9594 37.5256 22.7217V19.7954V12.4797H37.6978C37.8699 12.4797 38.042 12.3076 38.042 12.1354V10.9305C38.042 10.7584 37.8699 10.5862 37.6978 10.5862H37.5256V9.81161C37.4396 9.72555 37.4396 9.63948 37.3535 9.63948H33.4805C33.3083 9.63948 33.1362 9.81161 33.0501 9.98375V10.0698V10.6723H32.878C32.7059 10.6723 32.5337 10.8444 32.5337 11.0166V12.2215C32.5337 12.3936 32.7059 12.5658 32.878 12.5658H33.0501V19.7954V22.7217C33.0501 24.9594 28.3165 26.4225 28.4025 30.1234L28.7468 61.9682C28.7468 62.9149 29.5214 63.6895 30.4681 63.6895H40.538C41.0544 63.6895 41.7429 62.9149 41.829 61.9682ZM33.1362 9.46735C33.0501 9.46735 33.0501 9.46735 33.1362 9.46735V9.46735Z" fill="black"/>
<path fill-rule="evenodd" clip-rule="evenodd" d="M47.7673 48.9721C47.423 50.4353 47.423 58.8698 47.7673 60.2469C48.3697 61.0215 49.1443 61.5379 50.005 61.8822C50.5214 62.0543 51.5542 62.3125 51.8985 62.7428C52.5009 63.4314 52.2427 64.7224 51.2099 64.8085H51.1239H40.6237H40.5376C39.5048 64.7224 39.2466 63.4314 39.8491 62.7428C40.1934 62.3125 41.2262 62.1404 41.7426 61.8822C42.6032 61.5379 43.3779 61.0215 43.9803 60.2469C44.4107 58.9559 44.3246 50.4353 43.9803 48.9721C43.55 48.3697 41.5704 47.1647 40.968 46.8205C40.5376 46.5623 40.1934 46.3041 39.763 46.0459C36.6646 43.722 37.0089 40.6236 37.6974 37.181C38.1278 35.2014 38.7302 33.3079 39.5048 31.5005L39.763 30.8981H51.9845L52.2427 31.5005C52.9313 33.3079 53.6198 35.2875 54.0502 37.181C54.7387 40.5376 55.083 43.722 51.9845 46.0459C51.6403 46.3041 51.2099 46.5623 50.7796 46.8205C50.1771 47.1647 48.1115 48.2836 47.7673 48.9721Z" fill="#FEFEFE"/>
<path fill-rule="evenodd" clip-rule="evenodd" d="M40.4519 31.7587C39.9355 33.0497 39.1609 35.2014 38.7305 37.267C38.1281 40.3654 37.7838 43.1196 40.4519 45.0991C42.1732 46.3901 44.4109 47.4229 44.9273 48.4557C45.3577 49.9189 45.4437 59.8166 44.8413 60.5912C43.1199 62.7428 40.7961 62.915 40.624 63.0871C40.5379 63.2592 40.4519 63.6035 40.624 63.6035H51.1242C51.2963 63.6035 51.2963 63.2592 51.1242 63.0871C50.952 62.8289 48.6282 62.7428 46.9069 60.5912C46.3044 59.8166 46.3905 49.9189 46.8208 48.4557C47.3372 47.3368 49.661 46.304 51.2963 45.0991C53.9644 43.1196 53.6201 40.2794 53.0176 37.267C52.5873 35.2014 51.8127 32.9637 51.2963 31.7587H40.4519Z" fill="black"/>
<path fill-rule="evenodd" clip-rule="evenodd" d="M29.4355 29.7792H30.4684L30.038 59.6444H29.6077L29.4355 29.7792Z" fill="#FEFEFE"/>
<path fill-rule="evenodd" clip-rule="evenodd" d="M39.3326 0C17.6437 0 0 17.6437 0 39.3326C0 61.1075 17.6437 78.6652 39.3326 78.6652C61.0215 78.6652 78.6652 61.1075 78.6652 39.3326C78.6652 17.6437 61.1075 0 39.3326 0ZM18.9347 14.6314C24.443 10.0698 31.5866 7.31569 39.3326 7.31569C57.0624 7.31569 71.4356 21.6028 71.4356 39.3326C71.4356 47.0786 68.6814 54.2222 64.1199 59.7305L18.9347 14.6314ZM59.7305 64.0338C54.2222 68.6814 47.0786 71.4356 39.3326 71.4356C21.6028 71.4356 7.31569 57.0624 7.31569 39.3326C7.31569 31.5866 10.0698 24.443 14.6314 18.9347L59.7305 64.0338Z" fill="#F50000"/>
</svg>
