<svg width="19" height="20" viewBox="0 0 19 20" fill="none" xmlns="http://www.w3.org/2000/svg">
<path id="Path Copy" fill-rule="evenodd" clip-rule="evenodd" d="M7.71637 0.577644C8.06313 0.186238 8.59547 -0.0491442 9.12374 0.0086925C9.64388 0.0355933 10.122 0.353022 10.397 0.786125C10.6124 1.13718 10.7356 1.55549 10.6964 1.96976C10.6787 2.35982 10.5067 2.72836 10.267 3.03099C10.1925 3.12649 10.0976 3.22468 10.1085 3.35515C10.1153 3.98866 10.1044 4.62352 10.118 5.25838C11.4644 5.25703 12.8108 5.25703 14.1572 5.25838C14.145 5.83943 14.1328 6.42049 14.1193 7.00289C12.7864 7.00424 11.4549 7.00289 10.122 7.00289C10.1153 7.38488 10.1518 7.76418 10.1667 8.14483C10.2426 9.51812 10.2981 10.8927 10.3807 12.2647C10.4552 12.9211 10.569 13.607 10.9469 14.1666C11.1366 14.4396 11.4468 14.6508 11.7908 14.6454C12.2026 14.6414 12.5792 14.4289 12.9137 14.2083C13.2808 13.8881 13.6411 13.5573 13.9784 13.2049C13.7861 12.8874 13.4772 12.6588 13.144 12.5041C13.5206 12.3306 13.908 12.1719 14.2439 11.9271C15.3086 11.1779 16.0955 10.1193 16.7958 9.04197C17.0261 8.68285 17.2401 8.31431 17.4663 7.95115C17.6506 8.44746 17.7684 8.96396 17.8741 9.4818C18.0732 10.5444 18.1639 11.6473 17.9553 12.7153C17.8564 13.2318 17.6804 13.7348 17.3945 14.1787C17.0844 14.6804 16.6252 15.0852 16.0928 15.3408C15.8951 15.1108 15.696 14.8808 15.4982 14.6521C15.3316 14.8525 15.2029 15.0825 15.0431 15.2883C14.2195 16.3953 13.2266 17.3785 12.1091 18.1923C11.249 18.8312 10.3252 19.3786 9.36755 19.8588C9.25648 19.9099 9.15218 19.9865 9.02621 20C8.91107 19.9839 8.81355 19.9139 8.7106 19.8655C7.44004 19.2158 6.20335 18.4761 5.12649 17.5359C4.14445 16.7073 3.29109 15.7322 2.58402 14.6629C2.34427 14.8566 2.18579 15.1229 1.97042 15.3394C1.63584 15.1713 1.32159 14.9534 1.05881 14.6858C0.78384 14.3804 0.549505 14.0334 0.391024 13.6555C0.183779 13.1349 0.0510345 12.5835 0.0158165 12.0239C-0.0586831 10.6964 0.132307 9.3594 0.540023 8.09506C0.556277 8.04799 0.575241 8.00091 0.594205 7.95384C0.675477 8.07085 0.747267 8.1946 0.817703 8.31834C1.19968 8.96799 1.6223 9.59344 2.07742 10.196C2.59486 10.8726 3.1895 11.5034 3.89928 11.9849C4.2203 12.1934 4.57248 12.3454 4.9206 12.5014C4.58874 12.6615 4.2772 12.8888 4.08621 13.2089C4.48986 13.6743 4.95446 14.0953 5.49493 14.4006C5.80647 14.5929 6.2047 14.7153 6.56637 14.5997C6.9348 14.4759 7.16507 14.1356 7.32626 13.8034C7.55924 13.2412 7.67032 12.6332 7.69063 12.028C7.77597 10.3547 7.88298 8.68285 7.94529 7.00962C6.61242 7.00289 5.27955 7.00962 3.94669 7.00558C3.93314 6.42587 3.91824 5.84347 3.90334 5.26241C5.24975 5.25703 6.59617 5.26107 7.94258 5.25972C7.96019 4.65177 7.94393 4.04246 7.95341 3.43316C7.9656 3.29866 7.85182 3.20719 7.77055 3.11842C7.38857 2.72567 7.21925 2.15806 7.26666 1.62005C7.3073 1.23806 7.48339 0.880278 7.71637 0.577644Z" fill="#B42A2A"/>
</svg>
