<svg width="29" height="24" viewBox="0 0 29 24" fill="none">
<path fill-rule="evenodd" clip-rule="evenodd" d="M20.7544 6.3053H2.15124L7.37723 1.06639C7.61682 0.813649 7.6105 0.415519 7.36464 0.175337C7.11878 -0.0584458 6.73422 -0.0584458 6.48836 0.175337L0.184392 6.49489C-0.0614641 6.74135 -0.0614641 7.13948 0.184392 7.38594L6.48836 13.7055C6.74054 13.9456 7.1377 13.9393 7.37723 13.6928C7.6105 13.4463 7.6105 13.0609 7.37723 12.8144L2.15124 7.56919H20.7544C24.6061 7.56919 27.7392 10.9691 27.7392 15.1526C27.7392 19.3362 24.6061 22.7361 20.7544 22.7361H15.1501C14.8349 22.7361 14.5512 22.9636 14.5071 23.2732C14.4503 23.665 14.7529 24 15.1312 24H20.7544C25.2996 24 29 20.0313 29 15.1526C29 10.274 25.2996 6.3053 20.7544 6.3053L17.9173 23.2732Z" fill="#79909B"/>
</svg>
