<svg width="31" height="37" viewBox="0 0 31 37" fill="none" xmlns="http://www.w3.org/2000/svg">
<path d="M21.1931 22.7191L21.3753 18.558L22.2941 22.7343C22.3169 22.833 22.3548 22.9241 22.3928 23.0077C22.5599 23.3494 22.8636 23.6151 23.2433 23.7063L24.2759 23.9644L28.5738 25.0275C28.6801 25.0503 28.7788 25.0655 28.8851 25.0655C29.4622 25.0655 29.9861 24.6706 30.1304 24.0859C30.2974 23.3949 29.8798 22.6963 29.1888 22.5293L24.6328 21.4055L23.8887 18.0113L25.096 20.35L25.4757 20.4411V18.0644C25.4757 16.6369 24.3139 15.4751 22.8864 15.4751H21.7777C20.3502 15.4751 19.1884 16.6369 19.1884 18.0644V22.6888C19.477 22.6508 19.7655 22.628 20.0616 22.628C20.4489 22.6204 20.8286 22.666 21.1931 22.7191Z" fill="#B1C5CE"/>
<path d="M30.3733 34.3598L28.3155 27.0247C28.1256 26.3565 27.5182 25.9009 26.8272 25.9009H26.1666C26.9487 27.0627 27.4043 28.4598 27.4043 29.9633C27.4043 31.0264 27.1765 32.0287 26.7664 32.9399L27.3967 35.1951C27.5865 35.8785 28.2092 36.3265 28.885 36.3265C29.0217 36.3265 29.1659 36.3113 29.3026 36.2658C30.1227 36.0304 30.6011 35.1799 30.3733 34.3598Z" fill="#B1C5CE"/>
<path d="M15.8016 24.0025C16.3635 23.6001 16.9861 23.2736 17.6544 23.0382L16.2116 18.5277C16.0749 18.1025 15.6801 17.814 15.2321 17.814H14.5183C14.5031 17.8519 14.5031 17.8823 14.4879 17.9203C14.0855 18.9454 13.1363 19.5832 12.1036 19.644C12.2783 19.7806 12.4833 19.8718 12.7187 19.8718H14.4803L15.8016 24.0025Z" fill="#B1C5CE"/>
<path d="M20.0615 23.7065C16.5762 23.7065 13.7515 26.5313 13.7515 30.0166C13.7515 33.5019 16.5762 36.3266 20.0615 36.3266C23.5469 36.3266 26.3716 33.5019 26.3716 30.0166C26.3716 26.5313 23.5469 23.7065 20.0615 23.7065ZM20.0615 33.0008C18.4138 33.0008 17.0697 31.6568 17.0697 30.009C17.0697 28.3612 18.4138 27.0172 20.0615 27.0172C21.7093 27.0172 23.0533 28.3612 23.0533 30.009C23.0533 31.6643 21.7093 33.0008 20.0615 33.0008Z" fill="#B1C5CE"/>
<path d="M20.0617 27.9966C18.9758 27.9966 18.1026 28.8774 18.1026 29.9557C18.1026 31.0415 18.9834 31.9147 20.0617 31.9147C21.1475 31.9147 22.0208 31.0339 22.0208 29.9557C22.0208 28.8774 21.1475 27.9966 20.0617 27.9966Z" fill="#B1C5CE"/>
<path d="M22.3318 14.8904C23.9947 14.8904 25.3387 13.5464 25.3387 11.8834C25.3387 10.2205 23.9947 8.87646 22.3318 8.87646C20.6688 8.87646 19.3248 10.2205 19.3248 11.8834C19.3248 13.5464 20.6688 14.8904 22.3318 14.8904Z" fill="#B1C5CE"/>
<path d="M3.69791 7.08457C5.65699 7.08457 7.2364 5.49757 7.2364 3.54608C7.24399 1.587 5.65699 0 3.69791 0C1.74643 0 0.159424 1.587 0.159424 3.53849C0.159424 5.49757 1.74643 7.08457 3.69791 7.08457Z" fill="#4266BD"/>
<path d="M13.3567 17.4797C13.6604 16.6976 13.2731 15.8244 12.4986 15.5206L7.44146 13.5464L5.74055 10.061L7.40349 11.9594V10.8128C7.40349 9.12705 6.03669 7.76025 4.35097 7.76025H3.05252C1.3668 7.76785 0 9.12705 0 10.8128L0.0151866 34.4963C0.0151866 35.4987 0.827672 36.3111 1.82999 36.3111C2.83231 36.3111 3.64479 35.4987 3.64479 34.4963V23.6683H4.85973V34.5039C4.85973 35.0279 4.71545 35.5138 4.48006 35.9467C4.78379 36.1821 5.16346 36.3263 5.58109 36.3263C6.58341 36.3263 7.3959 35.5138 7.3959 34.5115V18.0948L5.3457 17.2975L4.84454 17.1C4.33579 16.9026 3.98649 16.4546 3.88778 15.9534L3.01455 11.3899L4.98122 15.4067C5.14827 15.7484 5.43682 16.0142 5.79371 16.1509L11.3976 18.3378C11.5798 18.4061 11.7621 18.4441 11.9443 18.4441C12.5518 18.4441 13.1213 18.0796 13.3567 17.4797Z" fill="#4266BD"/>
</svg>
