<svg width="24" height="15" viewBox="0 0 24 15" fill="none" xmlns="http://www.w3.org/2000/svg">
<path fill-rule="evenodd" clip-rule="evenodd" d="M0 10C0 12.757 2.24283 15 5 15C7.75717 15 10 12.757 10 10C10 7.24302 7.75712 5 5 5C2.24288 5 0 7.24302 0 10ZM0.833325 10C0.833325 7.70242 2.70266 5.83333 5 5.83333C7.29734 5.83333 9.16667 7.70242 9.16667 10C9.16667 12.2976 7.29734 14.1667 5 14.1667C2.70266 14.1667 0.833325 12.2976 0.833325 10Z" fill="#504B5A"/>
<path fill-rule="evenodd" clip-rule="evenodd" d="M14 10C14 12.757 16.2428 15 19 15C21.7572 15 24 12.757 24 10C24 7.24302 21.7571 5 19 5C16.2429 5 14 7.24302 14 10ZM14.8333 10C14.8333 7.70242 16.7027 5.83333 19 5.83333C21.2973 5.83333 23.1667 7.70242 23.1667 10C23.1667 12.2976 21.2973 14.1667 19 14.1667C16.7027 14.1667 14.8333 12.2976 14.8333 10Z" fill="#504B5A"/>
<path fill-rule="evenodd" clip-rule="evenodd" d="M18.9405 10.3508L17.7117 8.24445L15.6422 2.28464C15.5653 2.06219 15.3252 1.94524 15.11 2.02515C14.8931 2.10487 14.78 2.35013 14.8577 2.57301L14.9791 2.92284C13.2026 3.5048 12.2367 4.86607 11.4561 5.96618L11.456 5.96632C10.984 6.63176 10.5691 7.2152 10.0703 7.54552L8.55969 3.14329L7.77357 3.4287L8.63946 5.9521L4.13301 10.2574C4.00769 10.3775 3.9662 10.5641 4.02884 10.7282C4.09147 10.8922 4.24539 11 4.41668 11H10.6667C11.9431 11 12.5441 9.71053 13.1801 8.34553L13.1803 8.34507C13.7699 7.08043 14.4358 5.65229 15.7084 5.02266L16.9411 8.57278C16.95 8.59933 16.9618 8.62492 16.9761 8.64919L18.2261 10.792C18.3042 10.9259 18.4421 11 18.5837 11C18.6566 11 18.7306 10.9803 18.7977 10.9389C18.995 10.817 19.0589 10.5538 18.9405 10.3508ZM8.94183 6.83318L10.0775 10.1428H5.47742L8.94183 6.83318ZM10.9457 10.0965C11.5011 9.90628 11.8882 9.13442 12.4285 7.97492C13.057 6.62666 13.8375 4.95489 15.4271 4.21303L15.2596 3.73062C13.7269 4.22075 12.9144 5.36443 12.129 6.47165C11.5846 7.23909 11.0684 7.96467 10.3529 8.36912L10.9457 10.0965Z" fill="#FF9164"/>
<path d="M7.581 4H8.91587C9.2301 4 10.2103 3.61196 10.7589 3.38411C10.9835 3.2908 11.2121 3 10.6425 3C9.13834 3 8.13718 3 7.58105 3C6.40651 3 7.33528 4 7.581 4Z" fill="#625D6B"/>
<path fill-rule="evenodd" clip-rule="evenodd" d="M10 10.5C10 11.3271 10.6727 12 11.5 12C12.3273 12 13 11.3271 13 10.5C13 9.6729 12.3272 9 11.5 9C10.6728 9 10 9.6729 10 10.5ZM10.75 10.5C10.75 10.0863 11.0866 9.74996 11.5 9.74996C11.9135 9.74996 12.25 10.0864 12.25 10.5C12.25 10.9136 11.9134 11.25 11.5 11.25C11.0866 11.25 10.75 10.9136 10.75 10.5Z" fill="#736F7B"/>
<path class="stroke" d="M12 11L13 14" stroke="#625D6B" stroke-width="1.5" stroke-linecap="round"/>
<path d="M15.7142 3C15.6046 3 15.4949 2.95118 15.4113 2.85353C15.2439 2.65823 15.2439 2.34179 15.4113 2.14649L16.0499 1.40139L15.9964 1.27638C15.9231 1.10595 15.7762 1.00004 15.613 1.00004H14.4286C14.1917 1.00004 14 0.776139 14 0.500019C14 0.223898 14.1917 0 14.4286 0H15.613C16.103 0 16.5437 0.317638 16.7631 0.829098L16.9548 1.27633C17.0372 1.46896 17.005 1.70141 16.8744 1.85343L16.0173 2.85342C15.9336 2.95118 15.8239 3 15.7142 3Z" fill="#514A5B"/>
<path fill-rule="evenodd" clip-rule="evenodd" d="M12 13.5H14H12Z" fill="#514A5B"/>
<path class="stroke" d="M12 13.5H14" stroke="#504B5A" stroke-width="1.5" stroke-linecap="round"/>
</svg>
