<svg width="92" height="60" viewBox="12.8 -5 79 50" fill="none" xmlns="http://www.w3.org/2000/svg">
<path fill-rule="evenodd" clip-rule="evenodd" d="M47 27.278C47 32.4474 51.2053 36.6531 56.3751 36.6531C61.5448 36.6531 65.7501 32.4474 65.7501 27.278C65.7501 22.1086 61.5447 17.9029 56.3751 17.9029C51.2054 17.9029 47 22.1086 47 27.278ZM48.562 27.2779C48.562 22.9699 52.067 19.4654 56.3746 19.4654C60.6821 19.4654 64.1872 22.9699 64.1872 27.2779C64.1872 31.5859 60.6821 35.0905 56.3746 35.0905C52.067 35.0905 48.562 31.5859 48.562 27.2779Z" fill="#2C4684"/>
<path fill-rule="evenodd" clip-rule="evenodd" d="M73.25 27.278C73.25 32.4474 77.4553 36.6531 82.6251 36.6531C87.7948 36.6531 92.0001 32.4474 92.0001 27.278C92.0001 22.1086 87.7947 17.9029 82.6251 17.9029C77.4554 17.9029 73.25 22.1086 73.25 27.278ZM74.8125 27.2779C74.8125 22.9699 78.3176 19.4654 82.6251 19.4654C86.9327 19.4654 90.4377 22.9699 90.4377 27.2779C90.4377 31.5859 86.9327 35.0905 82.6251 35.0905C78.3176 35.0905 74.8125 31.5859 74.8125 27.2779Z" fill="#2C4684"/>
<path fill-rule="evenodd" clip-rule="evenodd" d="M82.5147 27.9358L80.2105 23.9863L76.3303 12.8116C76.186 12.3945 75.7359 12.1752 75.3323 12.325C74.9257 12.4745 74.7136 12.9344 74.8593 13.3523L75.087 14.0082C71.7561 15.0994 69.9449 17.6518 68.4812 19.7145L68.481 19.7148C67.5962 20.9625 66.8181 22.0564 65.8829 22.6758L63.0505 14.4216L61.5765 14.9567L63.2 19.6881L54.7504 27.7606C54.5154 27.9858 54.4376 28.3358 54.555 28.6433C54.6725 28.9509 54.9611 29.1529 55.2823 29.1529H67.0011C69.3944 29.1529 70.5213 26.7352 71.7138 24.1758L71.7142 24.175C72.8197 21.8037 74.0682 19.126 76.4544 17.9454L78.7657 24.6019C78.7825 24.6517 78.8045 24.6997 78.8313 24.7452L81.1751 28.7629C81.3216 29.0141 81.5802 29.153 81.8457 29.153C81.9822 29.153 82.1211 29.1161 82.2469 29.0384C82.6169 28.8099 82.7367 28.3164 82.5147 27.9358ZM63.7654 21.3402L65.8948 27.5458H57.2696L63.7654 21.3402ZM67.5242 27.4588C68.5656 27.1022 69.2915 25.655 70.3045 23.4809C71.483 20.9529 72.9464 17.8183 75.927 16.4273L75.6129 15.5227C72.739 16.4418 71.2157 18.5862 69.743 20.6622C68.7222 22.1012 67.7544 23.4617 66.4128 24.22L67.5242 27.4588Z" fill="#2C4684"/>
<path d="M61.2144 16.0279H63.7173C64.3065 16.0279 66.1444 15.3003 67.173 14.8731C67.5942 14.6981 68.0228 14.1529 66.9548 14.1529C64.1344 14.1529 62.2572 14.1529 61.2145 14.1529C59.0122 14.1529 60.7536 16.0279 61.2144 16.0279Z" fill="#2C4684"/>
<path fill-rule="evenodd" clip-rule="evenodd" d="M65.749 28.2155C65.749 29.7663 67.0104 31.028 68.5615 31.028C70.1127 31.028 71.3741 29.7663 71.3741 28.2155C71.3741 26.6646 70.1126 25.403 68.5615 25.403C67.0105 25.403 65.749 26.6646 65.749 28.2155ZM67.1564 28.2153C67.1564 27.4398 67.7875 26.8091 68.5627 26.8091C69.3379 26.8091 69.969 27.4398 69.9689 28.2153C69.9689 28.9909 69.3378 29.6216 68.5627 29.6216C67.7875 29.6216 67.1564 28.9909 67.1564 28.2153Z" fill="#2C4684"/>
<path fill-rule="evenodd" clip-rule="evenodd" d="M69.5 29.153L71.375 34.778L69.5 29.153Z" fill="#2C4684"/>
<path d="M69.5 29.153L71.375 34.778" stroke="#2C4684" stroke-width="1.5" stroke-linecap="round"/>
<path d="M76.4642 14.1529C76.2586 14.1529 76.053 14.0613 75.8961 13.8782C75.5823 13.5121 75.5823 12.9187 75.8961 12.5525L77.0936 11.1555L76.9932 10.9211C76.8559 10.6015 76.5805 10.4029 76.2744 10.4029H74.0536C73.6095 10.4029 73.25 9.9831 73.25 9.46537C73.25 8.94764 73.6094 8.52783 74.0536 8.52783H76.2743C77.1932 8.52783 78.0196 9.12341 78.4308 10.0824L78.7902 10.921C78.9448 11.2822 78.8844 11.718 78.6395 12.003L77.0324 13.878C76.8755 14.0613 76.6699 14.1529 76.4642 14.1529Z" fill="#2C4684"/>
<path fill-rule="evenodd" clip-rule="evenodd" d="M69.5 33.8405H73.25H69.5Z" fill="#2C4684"/>
<path d="M69.5 33.8405H73.25" stroke="#2C4684" stroke-width="1.5" stroke-linecap="round"/>
<g filter="url(#filter0_d)">
<path d="M25.8905 8.99881L26.2767 6.40657L24.1271 6.26985L23.6987 8.62994L25.8905 8.99881Z" fill="#2C4684"/>
<path d="M26.0578 8.04622L26.2767 6.40657L24.1419 6.18439L23.8669 7.67245L26.0578 8.04622Z" fill="#2C4684"/>
<path d="M35.0807 5.78895H36.5301V18.2253H35.0807V5.78895Z" fill="#2C4684"/>
<path d="M35.0807 15.762H36.5653V35.2407H35.0807V15.762Z" fill="#2C4684"/>
<path d="M35.0807 14.9639H36.5301V18.2253H35.0807V14.9639Z" fill="#2C4684"/>
<path d="M13.3892 29.2458L18.2643 24.5958L20.0224 18.6024H22.7129L20.7753 25.6119C20.7236 25.8042 20.6307 25.9748 20.51 26.1189C20.4648 26.1841 20.4142 26.2466 20.3561 26.3046L14.6429 31.8089L13.3892 29.2458Z" fill="#2C4684"/>
<path d="M20.0224 18.6024L19.3436 20.9156H22.0732L22.7129 18.6024H20.0224Z" fill="#2C4684"/>
<path d="M27.9971 0.61302C27.6866 0.280818 27.2661 0.0888871 26.8129 0.0726856L24.8135 0.00105792C23.8736 -0.0317004 23.0846 0.700351 23.0509 1.63471L22.9249 5.12229C22.9086 5.57366 23.0706 6.0052 23.3811 6.33748C23.6915 6.66975 24.112 6.86161 24.5652 6.87788L26.5646 6.94951C26.5854 6.95029 26.6062 6.95065 26.6269 6.95065C27.0574 6.95065 27.4665 6.79027 27.7847 6.4953C28.1183 6.18612 28.311 5.76723 28.3273 5.31593L28.4533 1.82835C28.4695 1.37676 28.3076 0.945221 27.9971 0.61302Z" fill="#2C4684"/>
<path d="M18.4604 6.2303L16.7701 5.8313C16.5956 5.79016 16.4223 5.90307 16.3902 6.07866L15.4742 11.0888C15.4338 11.3096 15.5749 11.5231 15.7945 11.5736L17.4533 11.9548L18.4604 6.2303Z" fill="#2C4684"/>
<path d="M19.8533 15.6054L17.0984 15.1245C16.7268 15.0597 16.4761 14.7039 16.5412 14.3337L18.2435 4.65858C18.3086 4.2885 18.6659 4.0388 19.0375 4.10361L21.7924 4.58447C22.164 4.64934 22.4147 5.00514 22.3496 5.37528L20.6473 15.0504C20.5822 15.4205 20.2249 15.6703 19.8533 15.6054Z" fill="#2C4684"/>
<path d="M21.7924 4.58447L21.6856 4.56588L20.0168 14.0511C19.9516 14.4212 19.5944 14.6709 19.2228 14.606L16.5746 14.1438L16.5412 14.3337C16.4761 14.7039 16.7268 15.0597 17.0984 15.1245L19.8533 15.6054C20.2249 15.6703 20.5822 15.4205 20.6473 15.0504L22.3496 5.37528C22.4147 5.00514 22.164 4.64934 21.7924 4.58447Z" fill="#2C4684"/>
<path d="M28.32 1.09253C28.2437 0.918503 28.1375 0.756488 28.0035 0.61302C27.6931 0.280818 27.2726 0.0888871 26.8194 0.0726856L24.8199 0.00105792C23.8801 -0.0317004 23.0911 0.700351 23.0573 1.63471L22.9828 3.69905C23.8022 3.54961 26.7067 2.90816 28.32 1.09253Z" fill="#2C4684"/>
<path d="M26.7681 11.009C26.9842 9.78021 26.1517 8.59864 24.9179 8.38326L22.5882 7.97666C22.2166 7.91178 21.8593 8.16155 21.7942 8.53163L20.0224 18.6024L22.2393 18.9893C22.252 19.0149 22.2641 19.0407 22.2786 19.0658L25.9858 25.5838V32.7718L28.678 33.0833V25.3191C28.678 25.2372 28.6694 25.1574 28.6551 25.0794C28.6381 24.8925 28.5827 24.7065 28.4827 24.534L25.3557 19.036L26.7681 11.009Z" fill="#2C4684"/>
<path d="M22.9991 10.9287L28.1183 16.0272L28.1506 15.9949L28.1525 16.0384L34.5876 15.7621L34.4802 13.2809L29.1184 13.5111L25.061 9.63805L22.9991 10.9287Z" fill="#2C4684"/>
<path d="M15.7573 34.3719L12 30.6297L13.3892 29.2458L16.2402 32.8315C16.5067 33.1667 16.4797 33.6473 16.1772 33.9507L15.7573 34.3719Z" fill="#2C4684"/>
<path d="M34.4802 13.2809L37.8582 13.1105L36.8776 15.7058L34.5876 15.7621L34.4802 13.2809Z" fill="#2C4684"/>
<path d="M28.6551 25.0794C28.6381 24.8925 28.5827 24.7065 28.4827 24.534L25.3557 19.036L25.6889 17.1427L20.4355 16.2539L20.0224 18.6024L22.2393 18.9893C22.252 19.0149 22.2641 19.0407 22.2786 19.0658L25.9858 25.5838V32.7718L28.678 33.4506V25.3191C28.678 25.2372 28.6694 25.1574 28.6551 25.0794Z" fill="#2C4684"/>
<path d="M26.0985 3.47519C26.0985 4.02541 25.6507 4.47144 25.0982 4.47144C24.5458 4.47144 24.098 4.02541 24.098 3.47519C24.098 2.92498 24.5458 2.47894 25.0982 2.47894C25.6507 2.47894 26.0985 2.92498 26.0985 3.47519Z" fill="#2C4684"/>
<path d="M32.2272 34.7289H26.9135V32.7719L31.4749 33.2997C31.9013 33.349 32.2234 33.708 32.2249 34.1355L32.2272 34.7289Z" fill="#2C4684"/>
</g>
<defs>
<filter id="filter0_d" x="0" y="0" width="49.8582" height="59.2407" filterUnits="userSpaceOnUse" color-interpolation-filters="sRGB">
<feFlood flood-opacity="0" result="BackgroundImageFix"/>
<feColorMatrix in="SourceAlpha" type="matrix" values="0 0 0 0 0 0 0 0 0 0 0 0 0 0 0 0 0 0 127 0"/>
<feOffset dy="12"/>
<feGaussianBlur stdDeviation="6"/>
<feColorMatrix type="matrix" values="0 0 0 0 0 0 0 0 0 0 0 0 0 0 0 0 0 0 0.0275136 0"/>
<feBlend mode="normal" in2="BackgroundImageFix" result="effect1_dropShadow"/>
<feBlend mode="normal" in="SourceGraphic" in2="effect1_dropShadow" result="shape"/>
</filter>
</defs>
</svg>
