<svg width="45" height="29" viewBox="0 0 45 29" fill="none" xmlns="http://www.w3.org/2000/svg">
<path fill-rule="evenodd" clip-rule="evenodd" d="M0 18.7502C0 23.9195 4.20534 28.1252 9.37507 28.1252C14.5448 28.1252 18.7501 23.9195 18.7501 18.7502C18.7501 13.5808 14.5447 9.37509 9.37507 9.37509C4.20542 9.37509 0 13.5808 0 18.7502ZM1.56201 18.7501C1.56201 14.4421 5.06703 10.9375 9.37459 10.9375C13.6821 10.9375 17.1872 14.4421 17.1872 18.7501C17.1872 23.0581 13.6821 26.5627 9.37459 26.5627C5.06703 26.5627 1.56201 23.0581 1.56201 18.7501Z" fill="#2C4684"/>
<path fill-rule="evenodd" clip-rule="evenodd" d="M26.2498 18.7502C26.2498 23.9195 30.4551 28.1252 35.6248 28.1252C40.7946 28.1252 44.9999 23.9195 44.9999 18.7502C44.9999 13.5808 40.7945 9.37509 35.6248 9.37509C30.4552 9.37509 26.2498 13.5808 26.2498 18.7502ZM27.8123 18.7501C27.8123 14.4421 31.3173 10.9375 35.6249 10.9375C39.9324 10.9375 43.4374 14.4421 43.4374 18.7501C43.4374 23.0581 39.9324 26.5627 35.6249 26.5627C31.3173 26.5627 27.8123 23.0581 27.8123 18.7501Z" fill="#2C4684"/>
<path fill-rule="evenodd" clip-rule="evenodd" d="M35.5142 19.408L33.21 15.4585L29.3298 4.28374C29.1855 3.86666 28.7354 3.64737 28.3318 3.7972C27.9252 3.94667 27.7131 4.40654 27.8588 4.82444L28.0865 5.48038C24.7556 6.57157 22.9444 9.12396 21.4807 11.1867L21.4805 11.187C20.5957 12.4347 19.8176 13.5286 18.8824 14.148L16.05 5.89374L14.576 6.42888L16.1995 11.1603L7.74988 19.2327C7.51491 19.4579 7.43712 19.8079 7.55456 20.1155C7.672 20.4231 7.9606 20.6251 8.28177 20.6251H20.0006C22.3939 20.6251 23.5208 18.2074 24.7133 15.648L24.7137 15.6471C25.8192 13.2759 27.0677 10.5981 29.4539 9.41757L31.7652 16.0741C31.782 16.1239 31.804 16.1719 31.8308 16.2174L34.1746 20.2351C34.3211 20.4863 34.5797 20.6252 34.8452 20.6252C34.9817 20.6252 35.1206 20.5883 35.2465 20.5106C35.6164 20.2821 35.7362 19.7885 35.5142 19.408ZM16.7649 12.8124L18.8943 19.018H10.2691L16.7649 12.8124ZM20.5237 18.931C21.5651 18.5744 22.291 17.1271 23.304 14.953C24.4825 12.425 25.946 9.29044 28.9265 7.89946L28.6124 6.99493C25.7385 7.91393 24.2152 10.0583 22.7425 12.1344C21.7217 13.5734 20.7539 14.9338 19.4123 15.6922L20.5237 18.931Z" fill="#2C4684"/>
<path d="M14.2146 7.50006H16.7175C17.3067 7.50006 19.1446 6.77248 20.1733 6.34526C20.5944 6.1703 21.023 5.62505 19.9551 5.62505C17.1347 5.62505 15.2575 5.62505 14.2147 5.62505C12.0124 5.62505 13.7539 7.50006 14.2146 7.50006Z" fill="#2C4684"/>
<path fill-rule="evenodd" clip-rule="evenodd" d="M18.7493 19.6876C18.7493 21.2385 20.0106 22.5002 21.5618 22.5002C23.1129 22.5002 24.3743 21.2385 24.3743 19.6876C24.3743 18.1368 23.1129 16.8751 21.5618 16.8751C20.0107 16.8751 18.7493 18.1368 18.7493 19.6876ZM20.1567 19.6875C20.1567 18.9119 20.7877 18.2812 21.5629 18.2812C22.3382 18.2812 22.9693 18.912 22.9692 19.6875C22.9692 20.4631 22.3381 21.0938 21.5629 21.0938C20.7877 21.0938 20.1567 20.4631 20.1567 19.6875Z" fill="#2C4684"/>
<path fill-rule="evenodd" clip-rule="evenodd" d="M22.4998 20.6252L24.3748 26.2502L22.4998 20.6252Z" fill="#2C4684"/>
<path d="M22.4998 20.6252L24.3748 26.2502" stroke="#2C4684" stroke-width="1.5" stroke-linecap="round"/>
<path d="M29.464 5.62504C29.2584 5.62504 29.0527 5.5335 28.8959 5.35041C28.582 4.98423 28.582 4.39088 28.8959 4.0247L30.0934 2.62763L29.993 2.39324C29.8557 2.07368 29.5802 1.87509 29.2742 1.87509H27.0534C26.6092 1.87509 26.2498 1.45527 26.2498 0.937543C26.2498 0.419813 26.6091 0 27.0534 0H29.2741C30.1929 0 31.0193 0.595575 31.4306 1.55457L31.79 2.39313C31.9445 2.75432 31.8842 3.19017 31.6393 3.47522L30.0322 5.3502C29.8753 5.5335 29.6696 5.62504 29.464 5.62504Z" fill="#2C4684"/>
<path fill-rule="evenodd" clip-rule="evenodd" d="M22.4998 25.3127H26.2498H22.4998Z" fill="#2C4684"/>
<path d="M22.4998 25.3127H26.2498" stroke="#2C4684" stroke-width="1.5" stroke-linecap="round"/>
</svg>
