<svg width="40" height="35" viewBox="0 0 40 35" fill="none" xmlns="http://www.w3.org/2000/svg">
<path d="M39.8203 23.6466C39.8203 23.6386 39.8203 23.6307 39.8203 23.6227L35.7969 2.88487C35.3906 0.772974 33.25 -0.497339 31.2344 0.185454L26.7266 1.70983C26.1094 1.91626 25.7813 2.59111 25.9844 3.21833C26.1875 3.84555 26.8516 4.179 27.4688 3.97258L31.9766 2.4482C32.6406 2.2259 33.3594 2.63875 33.5 3.34536L36.3203 17.9143C34.7422 16.6757 32.7578 15.9453 30.6172 15.9453C26.2656 15.9453 22.6016 18.9702 21.5469 23.059H18.4375C17.3828 18.9702 13.7188 15.9453 9.36719 15.9453C7.22656 15.9453 5.24219 16.6837 3.66406 17.9143L6.48438 3.34536C6.625 2.63081 7.34375 2.21796 8.00781 2.4482L12.5156 3.97258C13.1328 4.179 13.7969 3.84555 14 3.21833C14.2031 2.59111 13.875 1.91626 13.2578 1.70983L8.75 0.185454C6.73438 -0.497339 4.59375 0.772974 4.1875 2.88487L0.171875 23.6227C0.171875 23.6307 0.171875 23.6386 0.171875 23.6466C0.0625 24.2341 0 24.8454 0 25.4726C0 30.7286 4.20313 35 9.375 35C14.5469 35 18.75 30.7286 18.75 25.4726C18.75 25.4647 18.75 25.4488 18.75 25.4409H21.25C21.25 25.4488 21.25 25.4647 21.25 25.4726C21.25 30.7286 25.4531 35 30.625 35C35.7969 35 40 30.7286 40 25.4726C39.9922 24.8454 39.9297 24.2341 39.8203 23.6466Z" fill="#474F54"/>
</svg>
