<svg width="37" height="16" viewBox="0 0 37 16" fill="none"><path fill-rule="evenodd" clip-rule="evenodd" d="M20.08 0H5.945a2.519 2.519 0 0 0-1.96.934L2.24 3.1 1.117 4.494c-.321.32-.549.719-.659 1.157l-.169.673A.621.621 0 0 0 0 6.848v3.736c0 .285.199.543.49.607l5.636 1.245c.045.01.09.015.136.015H9.39l.003.002h26.299v-.002a.624.624 0 0 0 .626-.622.624.624 0 0 0-.626-.623V9.961a.624.624 0 0 0 .627-.622.624.624 0 0 0-.627-.623V7.671c0-.914-.664-1.697-1.572-1.842-3.17-.509-9.112-.847-9.112-.847V4.98L21.543.697A1.882 1.882 0 0 0 20.08 0z" fill="#2C4684"/><path d="M5.95 15.565c-1.9 0-3.444-1.536-3.444-3.425 0-1.888 1.544-3.424 3.444-3.424 1.899 0 3.443 1.536 3.443 3.425 0 1.888-1.544 3.424-3.443 3.424z" fill="#2C4684"/><path d="M5.95 9.96a2.188 2.188 0 0 0-2.192 2.18c0 1.202.983 2.179 2.192 2.179A2.188 2.188 0 0 0 8.14 12.14c0-1.202-.982-2.18-2.191-2.18z" fill="#fff"/><ellipse cx="29.117" cy="12.14" rx="2.87" ry="2.854" fill="#EDEDEE"/><path d="M29.117 15.565c-1.899 0-3.444-1.536-3.444-3.425 0-1.888 1.545-3.424 3.444-3.424 1.9 0 3.444 1.536 3.444 3.425 0 1.888-1.545 3.424-3.444 3.424z" fill="#2C4684"/><path d="M29.118 9.96a2.187 2.187 0 0 0-2.192 2.18c0 1.202.983 2.179 2.192 2.179a2.188 2.188 0 0 0 2.191-2.179c0-1.202-.983-2.18-2.191-2.18z" fill="#fff"/><path d="M.458 5.65l-.145.576h1.565a.624.624 0 0 0 .626-.622.624.624 0 0 0-.626-.623H.738a2.481 2.481 0 0 0-.28.669z" fill="#F5F5F5"/><path fill-rule="evenodd" clip-rule="evenodd" d="M18.85 1.108l2.627 3.394c.159.19.023.478-.226.478l-6.849-.21-.271-4.148h-1.252l.271 4.11-5.682-.175a.623.623 0 0 1-.54-.9L7.597 1.5A1.251 1.251 0 0 1 8.794.622h9.064c.389 0 .755.18.992.486z" fill="#F5F5F5"/><path d="M35.692 7.67a1.84 1.84 0 0 0-.2-.821h-1.053a.624.624 0 0 0-.626.622c0 .344.28.623.626.623h1.253V7.67zM21.493.634l-.025-.012h-1.004c-.3 0-.469.343-.285.579l2.712 3.474c.15.192.382.305.628.305h1.49L21.492.634zM6.32 1.226a.42.42 0 0 0-.379-.604H4.305c-.113.098-.224.2-.32.318L1.254 4.358l2.666.083c.492.015.948-.258 1.164-.698L6.32 1.226z" fill="#F5F5F5"/></svg>