<svg width="78" height="34" viewBox="0 0 78 34" fill="none" xmlns="http://www.w3.org/2000/svg">
<g id="icon_car">
<path id="Union" fill-rule="evenodd" clip-rule="evenodd" d="M42.6115 0H12.619C12.3146 0 12.0133 0.0259297 11.718 0.0764068C10.4432 0.291127 9.27922 0.963374 8.45802 1.98251L4.76245 6.5684L2.37006 9.53674C1.68875 10.2142 1.20569 11.0626 0.971917 11.992L0.612812 13.4203C0.244593 13.6551 0.000602128 14.0657 0.000602128 14.5331L0.00050167 15.8557L0.000233479 15.8568L0.000272099 15.8568L0.000233479 15.8569L0.000501567 15.8571L0 22.46V22.4605V22.4606C0.000142737 23.0666 0.421767 23.613 1.04125 23.7497L13.0006 26.3922C13.0952 26.4134 13.1913 26.4237 13.2885 26.4237H19.9272L19.9329 26.4268H75.7434V26.4237C76.4778 26.4237 77.0722 25.8321 77.0722 25.1026C77.0724 24.3729 76.4782 23.7813 75.7438 23.7813H75.7436V21.1392H75.7455C76.4793 21.1392 77.0742 20.5478 77.0742 19.818C77.0742 19.0884 76.4793 18.4969 75.7455 18.4969H75.7436V17.6506L75.7434 17.6168V16.2801C75.7434 14.3385 74.3352 12.6782 72.4075 12.3691C65.6796 11.2903 53.0701 10.5722 53.0701 10.5722L53.07 10.5721L53.0706 10.572L53.0688 10.5698H53.0705L45.7179 1.47966C44.9612 0.544057 43.8188 0 42.6115 0Z" fill="#2C4684"/>
<path id="Path" d="M12.6268 33.0303C8.59664 33.0303 5.31836 29.7706 5.31836 25.7636C5.31836 21.7566 8.59679 18.4969 12.6268 18.4969C16.6569 18.4969 19.9353 21.7566 19.9353 25.7636C19.9353 29.7707 16.657 33.0303 12.6268 33.0303Z" fill="#2C4684"/>
<path id="Path_2" d="M12.6252 21.1389C10.0603 21.1389 7.97437 23.2129 7.97437 25.7632C7.97437 28.3134 10.0603 30.3874 12.6252 30.3874C15.1901 30.3874 17.276 28.3134 17.276 25.7632C17.276 23.2129 15.1901 21.1389 12.6252 21.1389Z" fill="white"/>
<ellipse id="Oval" cx="61.7915" cy="25.7636" rx="6.09052" ry="6.05572" fill="#EDEDEE"/>
<path id="Path_3" d="M61.7902 33.0303C57.76 33.0303 54.4817 29.7706 54.4817 25.7636C54.4817 21.7566 57.7601 18.4969 61.7902 18.4969C65.8202 18.4969 69.0986 21.7566 69.0986 25.7636C69.0986 29.7707 65.8204 33.0303 61.7902 33.0303Z" fill="#2C4684"/>
<path id="Path_4" d="M61.7937 21.1389C59.2287 21.1389 57.1428 23.2129 57.1428 25.7632C57.1428 28.3134 59.2287 30.3874 61.7937 30.3874C64.3586 30.3874 66.4445 28.3134 66.4445 25.7632C66.4445 23.2129 64.3586 21.1389 61.7937 21.1389Z" fill="white"/>
<path id="Shape" d="M0.971262 11.9895L0.663574 13.2121H3.98506C4.7189 13.2121 5.31381 12.6206 5.31381 11.891C5.31381 11.1613 4.71875 10.5698 3.98506 10.5698H1.56737C1.30303 11.0109 1.09786 11.4867 0.971262 11.9895Z" fill="#F5F5F5"/>
<path id="Subtract" fill-rule="evenodd" clip-rule="evenodd" d="M40.0034 2.35181L45.5766 9.55491C45.9142 9.95783 45.6262 10.5691 45.0991 10.5691H45.098L30.5647 10.1227L29.9885 1.32105H27.3308L27.907 10.0411L15.8482 9.67076C14.8796 9.63978 14.2692 8.62141 14.7026 7.75945L16.1218 3.18414C16.4655 2.07626 17.4953 1.32057 18.6613 1.32057H37.8969C38.7221 1.32057 39.5003 1.70164 40.0034 2.35181Z" fill="#F5F5F5"/>
<path id="Shape_2" d="M75.7421 16.2785C75.7421 15.6522 75.5817 15.064 75.318 14.5342H73.0841C72.3503 14.5342 71.7554 15.1257 71.7554 15.8553C71.7554 16.585 72.3504 17.1765 73.0841 17.1765H75.7421V16.2785Z" fill="#F5F5F5"/>
<path id="Shape_3" d="M45.6104 1.34587C45.5918 1.33689 45.5761 1.32955 45.5574 1.32057H43.428C42.791 1.32057 42.4324 2.04873 42.8229 2.54908L48.5783 9.92101C48.8976 10.3299 49.3889 10.5691 49.9095 10.5691H53.0708L45.6104 1.34587Z" fill="#F5F5F5"/>
<path id="Shape_4" d="M13.4125 2.60116C13.703 2.00996 13.27 1.32057 12.6083 1.32057H9.13614C8.89634 1.52877 8.66016 1.74324 8.45844 1.99499L2.65845 9.24793L8.31634 9.4241C9.36133 9.45658 10.3284 8.8769 10.7875 7.94295L13.4125 2.60116Z" fill="#F5F5F5"/>
</g>
</svg>
