<svg width="51" height="46" viewBox="0 0 51 46" fill="none" xmlns="http://www.w3.org/2000/svg">
<path d="M44.9502 14.3877V18.7289L45.1597 19.2409L44.9502 19.326V26.9803L47.8372 25.8027L48.4705 27.3521C48.7494 28.0375 48.4351 28.8165 47.7694 29.0891L12.9228 43.3131C12.2634 43.5825 11.4804 43.2311 11.2071 42.5632L10.5745 41.0129L37.2423 30.1273H18.492L7.89706 34.4519L6.13176 30.1265H4.35938L9.68914 43.1823C10.1515 44.3151 11.2323 45.0469 12.4438 45.0469C12.8219 45.0469 13.1929 44.9744 13.5443 44.831L48.3902 30.607C49.8932 29.9926 50.6108 28.2549 49.9893 26.7314L44.9502 14.3877Z" fill="#2C4684"/>
<path d="M35.3416 18.5013V17.4465L34.7295 18.5013H35.3416Z" fill="#2C4684"/>
<path d="M14.1876 17.4465L13.5771 18.5013H14.1876V17.4465Z" fill="#2C4684"/>
<path d="M18.1948 18.9566C18.2563 18.8762 18.2862 18.7722 18.2862 18.6431C18.2862 18.5005 18.2515 18.391 18.1814 18.3146C18.1113 18.2382 18.0262 18.2003 17.9246 18.2003C17.8427 18.2003 17.7695 18.2256 17.7072 18.2752C17.6127 18.3484 17.5654 18.4666 17.5654 18.6297C17.5654 18.7612 17.6009 18.8691 17.6718 18.9518C17.7427 19.0353 17.8333 19.0771 17.942 19.0771C18.0491 19.0771 18.1334 19.0361 18.1948 18.9566Z" fill="#2C4684"/>
<path d="M7.04998 24.8795C7.14135 24.8795 7.22722 24.8535 7.3052 24.7991C7.38319 24.7471 7.42336 24.6503 7.42572 24.5077V24.3509C7.39815 24.3675 7.37137 24.3816 7.3438 24.3919C7.31702 24.4021 7.27842 24.4108 7.23037 24.4202L7.13426 24.4384C7.04368 24.4533 6.97908 24.473 6.93891 24.4959C6.87274 24.5345 6.83887 24.5943 6.83887 24.6755C6.83887 24.7479 6.85935 24.7983 6.89952 24.8306C6.94127 24.8637 6.99169 24.8795 7.04998 24.8795Z" fill="#2C4684"/>
<path d="M23.6869 19.0739C23.7964 19.0739 23.8838 19.0408 23.946 18.9747C24.0083 18.9085 24.0398 18.814 24.0398 18.6942C24.0398 18.5698 24.0075 18.4745 23.9445 18.4099C23.8799 18.3445 23.7948 18.313 23.6869 18.313C23.579 18.313 23.4931 18.3453 23.4293 18.4099C23.3655 18.4745 23.334 18.569 23.334 18.6942C23.334 18.8148 23.3655 18.9085 23.4277 18.9747C23.49 19.0408 23.5774 19.0739 23.6869 19.0739Z" fill="#2C4684"/>
<path d="M11.5856 23.8263C11.4769 23.8263 11.3934 23.8562 11.3335 23.9177C11.2737 23.9791 11.2366 24.0634 11.2217 24.1682H11.948C11.9409 24.0547 11.9031 23.9704 11.8361 23.9122C11.7684 23.8547 11.6849 23.8263 11.5856 23.8263Z" fill="#2C4684"/>
<path d="M25.6066 17.3378C25.5247 17.3378 25.4546 17.3606 25.3955 17.4063C25.3033 17.478 25.2568 17.6009 25.2568 17.7734C25.2568 17.9184 25.2868 18.0271 25.3458 18.1003C25.4049 18.1728 25.4955 18.209 25.6176 18.209C25.6854 18.209 25.7468 18.1901 25.8051 18.1515C25.9146 18.0822 25.9689 17.9601 25.9689 17.7892C25.9689 17.6505 25.9374 17.541 25.8728 17.4599C25.8075 17.378 25.7192 17.3378 25.6066 17.3378Z" fill="#2C4684"/>
<path d="M23.6856 17.9435C23.784 17.9435 23.8596 17.9152 23.9132 17.8585C23.966 17.8017 23.9936 17.7301 23.9936 17.6403C23.9936 17.5434 23.966 17.4678 23.9132 17.4126C23.8596 17.3575 23.7832 17.3307 23.6856 17.3307C23.5887 17.3307 23.5123 17.3575 23.4579 17.4126C23.4028 17.4678 23.376 17.5434 23.376 17.6403C23.376 17.7285 23.4028 17.8017 23.4579 17.8585C23.5123 17.916 23.5887 17.9435 23.6856 17.9435Z" fill="#2C4684"/>
<path d="M16.744 24.4392C16.6542 24.4541 16.5888 24.4738 16.5502 24.4967C16.4841 24.5353 16.4502 24.5951 16.4502 24.6763C16.4502 24.7487 16.4707 24.7991 16.5109 24.8314C16.551 24.8637 16.6014 24.8803 16.6589 24.8803C16.7511 24.8803 16.8362 24.8543 16.9142 24.7999C16.9922 24.7472 17.0323 24.651 17.0347 24.5085V24.3517C17.0079 24.3683 16.9811 24.3824 16.9528 24.3927C16.926 24.4029 16.8874 24.4116 16.8393 24.421L16.744 24.4392Z" fill="#2C4684"/>
<path d="M23.8268 24.4392C23.7362 24.4533 23.6717 24.4738 23.6323 24.4967C23.5661 24.5353 23.5322 24.5951 23.5322 24.6763C23.5322 24.7487 23.5527 24.7991 23.5929 24.8314C23.6331 24.8637 23.6835 24.8803 23.7418 24.8803C23.8331 24.8803 23.919 24.8543 23.997 24.7999C24.075 24.7472 24.1151 24.651 24.1175 24.5085V24.3517C24.0907 24.3683 24.0632 24.3824 24.0356 24.3927C24.0088 24.4029 23.9702 24.4116 23.9222 24.421L23.8268 24.4392Z" fill="#2C4684"/>
<path d="M28.0257 23.9177C27.9651 23.9791 27.9288 24.0634 27.9131 24.1682H28.6402C28.6323 24.0547 28.5937 23.9704 28.5267 23.9122C28.459 23.8547 28.3763 23.8263 28.277 23.8263C28.1683 23.8263 28.0848 23.8562 28.0257 23.9177Z" fill="#2C4684"/>
<path d="M39.0963 19.0771C39.2034 19.0771 39.2869 19.0361 39.3483 18.9566C39.4106 18.8762 39.4405 18.7722 39.4405 18.6431C39.4405 18.5005 39.405 18.391 39.3349 18.3146C39.2656 18.2382 39.1805 18.2003 39.0781 18.2003C38.9962 18.2003 38.923 18.2256 38.8615 18.2752C38.767 18.3484 38.7197 18.4666 38.7197 18.6297C38.7197 18.7612 38.7544 18.8691 38.8261 18.9518C38.897 19.0353 38.9883 19.0771 39.0963 19.0771Z" fill="#2C4684"/>
<path d="M4.182 18.8494C4.22769 18.9983 4.32301 19.0739 4.46558 19.0739C4.60816 19.0739 4.7019 18.9991 4.7468 18.8494C4.7854 18.7218 4.80352 18.5343 4.80982 18.3091C4.81061 18.272 4.81455 18.2437 4.81455 18.2043C4.81455 17.9097 4.79249 17.6907 4.74838 17.5489C4.70427 17.4071 4.61053 17.3362 4.46716 17.3362C4.32379 17.3362 4.23005 17.4063 4.18358 17.5489C4.13631 17.6907 4.11426 17.9097 4.11426 18.2043C4.11426 18.3492 4.12056 18.4761 4.13316 18.5855C4.14183 18.6887 4.15837 18.7778 4.182 18.8494Z" fill="#2C4684"/>
<path d="M1.71409 28.3297C2.09535 28.5101 2.51758 28.6196 2.96579 28.6196H3.74328H5.51567H22.184H40.9342H40.9563C41.7566 28.6196 42.4805 28.2943 43.0154 27.7704C43.5715 27.2238 43.9221 26.462 43.9221 25.616V19.7467V16.2145V11.8717V3.52026C43.9221 2.67424 43.5715 1.91172 43.0154 1.36583C42.4798 0.841988 41.7558 0.515869 40.9563 0.515869H2.96658C1.33047 0.515869 0 1.86446 0 3.52026V25.616C0 26.8165 0.705016 27.8492 1.71409 28.3297ZM3.62039 18.2043C3.62039 17.8002 3.68341 17.4874 3.80866 17.2685C3.93391 17.0487 4.15211 16.9392 4.46484 16.9392C4.77678 16.9392 4.99577 17.0495 5.12101 17.2685C5.23523 17.4685 5.29116 17.7545 5.30062 18.1074C5.3014 18.1413 5.30928 18.1673 5.30928 18.2035C5.30928 18.6076 5.24626 18.9187 5.12101 19.1369C4.99577 19.3552 4.77678 19.4646 4.46484 19.4646C4.1529 19.4646 3.93391 19.3559 3.80866 19.1369C3.75037 19.0361 3.70941 18.9101 3.6779 18.7699C3.64166 18.6068 3.62039 18.4209 3.62039 18.2043ZM26.5763 8.3955C26.5763 6.16308 28.3944 4.3458 30.6268 4.3458C31.5067 4.3458 32.3173 4.63647 32.9821 5.11541C33.673 4.56321 34.5371 4.21897 35.4879 4.21897C36.3032 4.21897 37.0602 4.46553 37.6959 4.8846C38.2213 5.22963 38.6483 5.69833 38.9641 6.24264C39.3092 6.83738 39.5218 7.51876 39.5218 8.2545C39.5218 10.479 37.7116 12.2892 35.4879 12.2892C34.6159 12.2892 33.814 12.0049 33.1539 11.533C32.4583 12.0939 31.5879 12.4452 30.6268 12.4452C29.3192 12.4452 28.1683 11.8127 27.4279 10.8493C27.0923 10.4152 26.8457 9.91739 26.7095 9.36992C26.6299 9.05641 26.5763 8.73344 26.5763 8.3955ZM25.8138 23.9657C25.7776 23.8869 25.7083 23.8491 25.6043 23.8491C25.483 23.8491 25.4026 23.8877 25.3609 23.9657C25.338 24.0098 25.3278 24.0768 25.3278 24.1642V25.1355H24.8993V23.5238H25.3097V23.7593C25.3617 23.6758 25.4113 23.616 25.4578 23.5805C25.5397 23.5175 25.6452 23.4852 25.776 23.4852C25.8981 23.4852 25.9989 23.5112 26.0753 23.5663C26.1352 23.616 26.1833 23.6813 26.214 23.7609C26.2699 23.6656 26.3377 23.5971 26.4204 23.5514C26.5078 23.5065 26.6039 23.4852 26.711 23.4852C26.7819 23.4852 26.8528 23.4994 26.9214 23.5262C26.9907 23.5545 27.0529 23.6026 27.1088 23.6719C27.1537 23.7286 27.186 23.7971 27.2002 23.8799C27.2105 23.9334 27.2152 24.013 27.2152 24.1185L27.212 25.1363H26.7804V24.1075C26.7804 24.0469 26.7693 23.9964 26.7496 23.9571C26.7126 23.883 26.6441 23.8444 26.5433 23.8444C26.4259 23.8444 26.3455 23.8932 26.3006 23.9901C26.2786 24.0406 26.2668 24.1036 26.2668 24.1745V25.1363H25.8414V24.1745C25.843 24.0791 25.8335 24.009 25.8138 23.9657ZM25.8461 18.5194C25.7563 18.5729 25.6452 18.6005 25.5137 18.6005C25.3191 18.6005 25.1466 18.5336 24.9954 18.3988C24.8441 18.2641 24.7685 18.0704 24.7685 17.8175C24.7685 17.5552 24.8441 17.3417 24.9962 17.1794C25.1474 17.0164 25.3435 16.9353 25.5862 16.9353C25.9595 16.9353 26.2148 17.0999 26.3534 17.4299C26.433 17.6166 26.4708 17.8632 26.4708 18.168C26.4708 18.4642 26.4338 18.7108 26.3573 18.9085C26.2124 19.2858 25.9485 19.4741 25.5641 19.4741C25.3798 19.4741 25.2151 19.4197 25.0694 19.311C24.9229 19.2015 24.8386 19.0432 24.8173 18.836H25.2963C25.3081 18.9077 25.3388 18.966 25.3877 19.0117C25.4365 19.0574 25.5027 19.0787 25.5862 19.0787C25.7437 19.0787 25.8556 18.9912 25.9194 18.8148C25.9548 18.7179 25.9761 18.5777 25.9848 18.391C25.943 18.4485 25.8965 18.4902 25.8461 18.5194ZM22.9685 17.8451C22.9339 17.7529 22.9158 17.667 22.9158 17.5875C22.9158 17.4087 22.9827 17.2574 23.1166 17.1314C23.2506 17.0061 23.4404 16.9439 23.6854 16.9439C23.9296 16.9439 24.1194 17.0061 24.2541 17.1314C24.3888 17.2566 24.455 17.4087 24.455 17.5875C24.455 17.667 24.4369 17.7529 24.4014 17.8451C24.3668 17.9365 24.2888 18.016 24.1706 18.0838C24.2911 18.1507 24.3825 18.2405 24.444 18.3516C24.5046 18.4634 24.5361 18.5871 24.5361 18.725C24.5361 18.9314 24.4597 19.107 24.3069 19.2512C24.1549 19.3953 23.9414 19.4678 23.6673 19.4678C23.3931 19.4678 23.186 19.3953 23.045 19.2512C22.904 19.107 22.8331 18.9314 22.8331 18.725C22.8331 18.5879 22.8646 18.4634 22.9268 18.3516C22.989 18.2405 23.0788 18.1562 23.1986 18.1003C23.0812 18.0223 23.004 17.9372 22.9685 17.8451ZM24.0493 23.8594C24.002 23.8342 23.9343 23.8208 23.8437 23.8208C23.7429 23.8208 23.6704 23.8468 23.6294 23.8956C23.5987 23.9318 23.5798 23.9815 23.5696 24.0437H23.1615C23.171 23.9027 23.2104 23.7869 23.2805 23.6963C23.3923 23.5545 23.5845 23.4828 23.8571 23.4828C24.0343 23.4828 24.1919 23.5183 24.3305 23.5876C24.4684 23.6585 24.5369 23.7908 24.5369 23.9854V24.7259C24.5369 24.7763 24.5377 24.8393 24.5401 24.9126C24.5432 24.9669 24.5519 25.0047 24.5653 25.0252C24.5794 25.0441 24.5999 25.0614 24.6283 25.0748V25.1363H24.169C24.1557 25.1032 24.1478 25.0733 24.143 25.0441C24.1383 25.0158 24.1336 24.9835 24.1312 24.9464C24.0722 25.0102 24.0052 25.0638 23.9288 25.1079C23.8382 25.1607 23.7342 25.1875 23.6184 25.1875C23.4711 25.1875 23.3498 25.1449 23.2545 25.063C23.1584 24.9795 23.1103 24.8614 23.1103 24.7085C23.1103 24.51 23.1875 24.3667 23.3419 24.2777C23.4262 24.2288 23.5515 24.1957 23.7153 24.1745L23.8595 24.1571C23.9382 24.1461 23.9942 24.1351 24.0288 24.1201C24.0895 24.0949 24.1194 24.0547 24.1194 24.0004C24.1186 23.9303 24.095 23.8838 24.0493 23.8594ZM22.3604 23.9578C22.3195 23.8751 22.2407 23.8334 22.1265 23.8334C21.9839 23.8334 21.887 23.894 21.8334 24.0153C21.8059 24.0791 21.7925 24.1611 21.7925 24.2611V25.1347H21.3695V23.523H21.7783V23.7585C21.8319 23.6766 21.8831 23.6152 21.9311 23.5797C22.017 23.5143 22.128 23.4821 22.2604 23.4821C22.4266 23.4821 22.5621 23.5254 22.6676 23.6136C22.774 23.7003 22.8268 23.846 22.8268 24.0476V25.1355H22.3943V24.154C22.3943 24.0689 22.3841 24.0035 22.3604 23.9578ZM20.0154 24.8133C20.0327 24.8299 20.0831 24.8369 20.1698 24.8369C20.1831 24.8369 20.1965 24.8369 20.2115 24.8369C20.2257 24.8354 20.2399 24.8354 20.254 24.8338V25.1497L20.054 25.1568C19.8547 25.1631 19.7184 25.1284 19.6451 25.0536C19.5979 25.0047 19.5734 24.9299 19.5734 24.8291V23.835H19.3482V23.5356H19.5734V23.0842H19.9917V23.5356H20.254V23.835H19.9917V24.6888C19.9902 24.7558 19.998 24.7968 20.0154 24.8133ZM20.0981 18.3075C20.0295 18.4587 19.9673 18.6454 19.9114 18.8644C19.8562 19.0834 19.8287 19.2646 19.8287 19.4056H19.3292C19.3442 18.966 19.4884 18.5107 19.7617 18.0357C19.9389 17.7419 20.087 17.5371 20.206 17.4213H18.9858L18.9921 16.9888H20.7212V17.3661C20.6487 17.4362 20.5487 17.5631 20.4202 17.745C20.2919 17.9254 20.1839 18.1129 20.0981 18.3075ZM13.2188 18.8778V18.4579L14.1192 16.9723H14.6604V18.502H14.9369V18.8786H14.6596V19.4056H14.1885V18.8786L13.2188 18.8778ZM14.3201 22.9519H14.7762V24.7424H15.8672V25.1355H14.3201V22.9519ZM15.3922 19.2811C15.2433 19.1559 15.159 18.9786 15.1425 18.7494H15.6214C15.6403 18.8542 15.6773 18.9345 15.7309 18.9912C15.7845 19.0479 15.8625 19.0763 15.9657 19.0763C16.0846 19.0763 16.176 19.0338 16.2382 18.9503C16.3012 18.8675 16.3319 18.7612 16.3319 18.6344C16.3319 18.5099 16.302 18.4036 16.2445 18.3177C16.1862 18.2318 16.0948 18.1885 15.9712 18.1885C15.9129 18.1885 15.8617 18.1956 15.8191 18.2106C15.7435 18.2374 15.6868 18.2878 15.6482 18.3603L15.2165 18.3398L15.3882 16.9872H16.7353V17.3961H15.7348L15.6474 17.9309C15.7222 17.8821 15.779 17.8498 15.8215 17.8348C15.8908 17.8088 15.9759 17.7962 16.0759 17.7962C16.2784 17.7962 16.4548 17.864 16.6053 18.0003C16.7557 18.1365 16.8306 18.3335 16.8306 18.5942C16.8306 18.8203 16.7573 19.0219 16.6132 19.2008C16.4682 19.3788 16.2516 19.467 15.9617 19.467C15.7325 19.4686 15.5411 19.4064 15.3922 19.2811ZM16.9684 23.8594C16.9212 23.8342 16.8534 23.8208 16.7636 23.8208C16.6628 23.8208 16.5903 23.8468 16.5486 23.8956C16.5178 23.9318 16.4982 23.9815 16.4887 24.0437H16.0814C16.0909 23.9027 16.1303 23.7869 16.2004 23.6963C16.3123 23.5545 16.5052 23.4828 16.777 23.4828C16.9543 23.4828 17.1118 23.5183 17.2504 23.5876C17.3883 23.6585 17.4576 23.7908 17.4576 23.9854V24.7259C17.4576 24.7763 17.4584 24.8393 17.4608 24.9126C17.4639 24.9669 17.4726 25.0047 17.486 25.0252C17.5001 25.0441 17.5206 25.0614 17.549 25.0748V25.1363H17.0897C17.0771 25.1032 17.0685 25.0733 17.063 25.0441C17.0582 25.0158 17.0543 24.9835 17.0519 24.9464C16.9936 25.0102 16.9251 25.0638 16.8495 25.1079C16.7581 25.1607 16.6549 25.1875 16.5391 25.1875C16.3918 25.1875 16.2705 25.1449 16.1744 25.063C16.0783 24.9795 16.031 24.8614 16.031 24.7085C16.031 24.51 16.1082 24.3667 16.2626 24.2777C16.3469 24.2288 16.4722 24.1957 16.636 24.1745L16.781 24.1571C16.8597 24.1461 16.9157 24.1351 16.9495 24.1201C17.0086 24.091 17.0393 24.0508 17.0393 23.998C17.0378 23.9303 17.0149 23.8838 16.9684 23.8594ZM17.2528 19.0818C17.1386 18.8801 17.0819 18.621 17.0819 18.3012C17.0819 18.1145 17.0897 17.9624 17.1055 17.8451C17.1339 17.6363 17.1882 17.463 17.2693 17.3244C17.3387 17.2062 17.4308 17.1109 17.5435 17.0392C17.6561 16.9668 17.7916 16.9305 17.9492 16.9305C18.1768 16.9305 18.358 16.9888 18.4935 17.1054C18.629 17.222 18.7046 17.3772 18.7219 17.5709H18.2438C18.2438 17.5316 18.2288 17.4882 18.1973 17.441C18.1461 17.3646 18.0673 17.326 17.9625 17.326C17.8058 17.326 17.6939 17.4134 17.6285 17.5891C17.5923 17.686 17.5679 17.8285 17.5537 18.0184C17.6136 17.9475 17.6829 17.8955 17.7617 17.8632C17.8404 17.8301 17.9302 17.8144 18.0319 17.8144C18.2493 17.8144 18.4273 17.8884 18.5659 18.0357C18.7046 18.1838 18.7747 18.3721 18.7747 18.6013C18.7747 18.8305 18.7069 19.0314 18.5707 19.2063C18.4344 19.3811 18.2225 19.4686 17.935 19.4686C17.627 19.4686 17.3993 19.3402 17.2528 19.0818ZM18.7164 24.6077C18.677 24.5833 18.5297 24.5408 18.2737 24.4809C18.0909 24.4344 17.9618 24.3777 17.8869 24.31C17.8121 24.2422 17.7743 24.1453 17.7743 24.0201C17.7743 23.8704 17.8326 23.742 17.9499 23.6349C18.0673 23.5277 18.2327 23.4734 18.4446 23.4734C18.6463 23.4734 18.8109 23.5136 18.9377 23.5947C19.0654 23.6758 19.1378 23.8129 19.1567 24.0106H18.7345C18.729 23.9578 18.7132 23.9137 18.6888 23.8822C18.6416 23.8255 18.5628 23.7971 18.4517 23.7971C18.3596 23.7971 18.2942 23.8121 18.2548 23.8397C18.2154 23.8688 18.1957 23.9027 18.1957 23.9413C18.1957 23.9901 18.217 24.0248 18.2579 24.0461C18.2997 24.0689 18.4462 24.1075 18.6983 24.1626C18.8669 24.2028 18.9929 24.2619 19.0764 24.343C19.1591 24.4242 19.2016 24.5242 19.2016 24.6463C19.2016 24.8062 19.141 24.9362 19.022 25.0378C18.9031 25.1386 18.718 25.1891 18.469 25.1891C18.2146 25.1891 18.0263 25.1363 17.9058 25.0284C17.7845 24.9212 17.7239 24.785 17.7239 24.6187H18.1524C18.1618 24.6936 18.1807 24.7464 18.2107 24.7779C18.2627 24.8354 18.3603 24.8629 18.5029 24.8629C18.5864 24.8629 18.6526 24.8503 18.7014 24.8259C18.7503 24.8023 18.7755 24.7645 18.7755 24.7148C18.7755 24.6699 18.7566 24.6329 18.7164 24.6077ZM11.3795 24.7881C11.4449 24.8283 11.5213 24.8488 11.6127 24.8488C11.7088 24.8488 11.7868 24.8243 11.8474 24.7747C11.8805 24.7487 11.9089 24.7109 11.9341 24.6621H12.365C12.3531 24.7582 12.3011 24.8551 12.2074 24.9543C12.0633 25.1111 11.8608 25.1898 11.6001 25.1898C11.385 25.1898 11.1952 25.1237 11.0313 24.9913C10.8675 24.859 10.7848 24.6439 10.7848 24.3454C10.7848 24.0658 10.8588 23.8515 11.0077 23.7018C11.1558 23.5537 11.348 23.4789 11.5851 23.4789C11.7253 23.4789 11.8521 23.5041 11.9648 23.5545C12.0774 23.6034 12.1704 23.6837 12.2436 23.7932C12.3098 23.8893 12.3523 24.0012 12.3728 24.1264C12.3846 24.202 12.3894 24.3084 12.387 24.4478H11.2109C11.2164 24.6077 11.274 24.7219 11.3795 24.7881ZM10.9896 17.6127C10.9896 17.7576 10.947 17.8789 10.8612 17.9782C10.8076 18.0404 10.7509 18.0822 10.6926 18.105C10.7367 18.105 10.799 18.142 10.8809 18.2185C11.0038 18.3327 11.0644 18.4871 11.0644 18.6848C11.0644 18.8912 10.9927 19.0739 10.8494 19.2315C10.706 19.3882 10.4933 19.4662 10.2129 19.4662C9.86707 19.4662 9.62603 19.3528 9.49054 19.1267C9.41964 19.0062 9.38025 18.8479 9.37238 18.6541H9.84501C9.84501 18.7517 9.86077 18.8329 9.89149 18.8967C9.94978 19.0149 10.0561 19.0739 10.2105 19.0739C10.3043 19.0739 10.387 19.0416 10.4571 18.977C10.5272 18.9117 10.5618 18.8195 10.5618 18.6974C10.5618 18.5359 10.4965 18.4288 10.3665 18.3752C10.2924 18.3445 10.1751 18.3287 10.016 18.3287V17.9837C10.1719 17.9814 10.2814 17.9664 10.3429 17.9372C10.4153 17.9049 10.4539 17.8419 10.4776 17.7647C10.4886 17.7285 10.5036 17.6962 10.5036 17.6497C10.5036 17.5568 10.476 17.4811 10.4224 17.4221C10.3673 17.3638 10.2909 17.3338 10.1924 17.3338C10.079 17.3338 9.99547 17.3701 9.9419 17.4425C9.88834 17.5142 9.86234 17.6103 9.86549 17.7316H9.41649C9.42043 17.6103 9.44248 17.4945 9.47951 17.3858C9.5189 17.2897 9.58034 17.2023 9.66462 17.1204C9.72764 17.0629 9.80248 17.0195 9.88834 16.9888C9.97499 16.9581 10.0813 16.9431 10.2074 16.9431C10.4413 16.9431 10.6304 17.0038 10.7737 17.1243C10.9045 17.2346 10.9667 17.3827 10.9793 17.5607C10.9817 17.5804 10.9896 17.5938 10.9896 17.6127ZM10.0593 23.9563C10.0215 23.8822 9.95293 23.8436 9.85131 23.8436C9.73473 23.8436 9.65438 23.8925 9.61027 23.9893C9.58743 24.0398 9.57561 24.1028 9.57561 24.1737V25.1355H9.15103V24.1737C9.15103 24.0776 9.14079 24.0075 9.12109 23.9649C9.08564 23.8862 9.01632 23.8483 8.91234 23.8483C8.79182 23.8483 8.71147 23.8869 8.66894 23.9649C8.64609 24.009 8.63585 24.076 8.63585 24.1634V25.1347H8.20733V23.523H8.61773V23.7585C8.66972 23.675 8.71935 23.6152 8.76583 23.5797C8.84775 23.5167 8.95409 23.4844 9.08407 23.4844C9.20695 23.4844 9.30778 23.5104 9.3834 23.5655C9.44485 23.6152 9.49132 23.6806 9.52205 23.7601C9.57797 23.6648 9.64651 23.5963 9.72764 23.5506C9.81429 23.5057 9.91118 23.4844 10.0183 23.4844C10.09 23.4844 10.1601 23.4986 10.2286 23.5254C10.298 23.5537 10.3602 23.6018 10.4169 23.6711C10.4618 23.7278 10.4933 23.7964 10.5083 23.8791C10.5185 23.9326 10.5232 24.0122 10.5232 24.1177L10.5201 25.1355H10.0876V24.1067C10.09 24.0469 10.079 23.9964 10.0593 23.9563ZM29.7154 17.4544C29.6587 17.3858 29.5752 17.3512 29.4697 17.3512C29.3231 17.3512 29.2239 17.4063 29.1711 17.515C29.1412 17.5788 29.1223 17.6789 29.1168 17.8151H28.6488C28.6567 17.6072 28.6953 17.4386 28.7631 17.3102C28.8915 17.0652 29.1191 16.9439 29.4468 16.9439C29.706 16.9439 29.9124 17.0148 30.066 17.159C30.2188 17.3023 30.2952 17.4922 30.2952 17.7293C30.2952 17.9105 30.2408 18.0719 30.1329 18.2129C30.0605 18.3067 29.9447 18.4107 29.7824 18.5257L29.5902 18.6627C29.4697 18.7478 29.3862 18.8108 29.342 18.8479C29.2979 18.8865 29.2601 18.9306 29.2294 18.9818H30.2983V19.4064H28.6221C28.6252 19.2307 28.6638 19.07 28.7339 18.925C28.8032 18.7612 28.9647 18.5887 29.2215 18.4059C29.4421 18.2476 29.587 18.1334 29.6524 18.0641C29.7517 17.9577 29.8021 17.8403 29.8021 17.7135C29.8021 17.6088 29.7721 17.5229 29.7154 17.4544ZM28.6559 23.5545C28.7686 23.6034 28.8631 23.6837 28.9348 23.7932C29.0017 23.8893 29.0443 24.0012 29.0648 24.1264C29.0758 24.202 29.0813 24.3084 29.0774 24.4478H27.9013C27.9076 24.6085 27.9643 24.7235 28.0707 24.7889C28.1352 24.8291 28.2124 24.8495 28.3038 24.8495C28.3999 24.8495 28.4779 24.8251 28.5386 24.7755C28.5716 24.7495 28.6 24.7117 28.626 24.6629H29.0561C29.0443 24.759 28.9931 24.8558 28.9001 24.9551C28.7552 25.1119 28.5527 25.1906 28.2928 25.1906C28.0785 25.1906 27.8879 25.1245 27.7241 24.9921C27.5602 24.8598 27.4783 24.6447 27.4783 24.3462C27.4783 24.0665 27.5523 23.8523 27.7004 23.7026C27.8485 23.5545 28.0415 23.4797 28.2786 23.4797C28.418 23.4789 28.5449 23.5041 28.6559 23.5545ZM27.8989 19.4048H27.405V17.7159H26.83V17.3882C26.982 17.3819 27.0884 17.3709 27.1482 17.3575C27.2451 17.3362 27.3239 17.2937 27.3838 17.2299C27.4263 17.1857 27.457 17.1275 27.4783 17.0542C27.4909 17.0101 27.4964 16.9778 27.4964 16.9565H27.8989V19.4048ZM33.4453 18.3744C33.3713 18.3437 33.2539 18.328 33.0948 18.328V17.9829C33.25 17.9806 33.3602 17.9656 33.4217 17.9365C33.5288 17.8884 33.5824 17.7939 33.5824 17.6489C33.5824 17.556 33.5548 17.4804 33.5005 17.4213C33.4461 17.363 33.3689 17.3331 33.2712 17.3331C33.157 17.3331 33.0743 17.3693 33.0207 17.4418C32.968 17.5134 32.9412 17.6095 32.9443 17.7309H32.4961C32.4993 17.6095 32.5213 17.4937 32.5583 17.385C32.5969 17.2889 32.66 17.2015 32.7435 17.1196C32.8065 17.0621 32.8813 17.0188 32.9672 16.988C33.0538 16.9573 33.1602 16.9423 33.2854 16.9423C33.5194 16.9423 33.7084 17.003 33.8534 17.1235C33.9959 17.244 34.0676 17.4063 34.0676 17.6111C34.0676 17.7553 34.0235 17.8774 33.9392 17.9758C33.8849 18.0389 33.8282 18.0806 33.7699 18.1027C33.8148 18.1027 33.877 18.1405 33.9597 18.2161C34.0826 18.3303 34.1432 18.4855 34.1432 18.6824C34.1432 18.8888 34.0716 19.0708 33.9282 19.2283C33.7848 19.3851 33.5721 19.4639 33.2909 19.4639C32.9451 19.4639 32.7033 19.3504 32.5694 19.1236C32.4977 19.0038 32.4591 18.8455 32.452 18.6509H32.9238C32.9238 18.7494 32.9396 18.8297 32.9719 18.8943C33.0294 19.0125 33.1365 19.0716 33.2893 19.0716C33.3831 19.0716 33.4658 19.0393 33.5359 18.9747C33.606 18.9093 33.6415 18.8171 33.6415 18.695C33.6407 18.5359 33.5745 18.4288 33.4453 18.3744ZM36.0905 18.5013V18.8778H35.8124V19.4048H35.3414V18.8778H34.3733V18.4571L35.2728 16.9715H35.8148V18.5013H36.0905ZM37.3989 18.3177C37.3414 18.2318 37.25 18.1885 37.1256 18.1885C37.0673 18.1885 37.0161 18.1956 36.9743 18.2106C36.8987 18.2374 36.8412 18.2878 36.8026 18.3603L36.3717 18.3398L36.5434 16.9872H37.8913V17.3961H36.89L36.8026 17.9309C36.8774 17.8821 36.9342 17.8498 36.9759 17.8348C37.0468 17.8088 37.1303 17.7962 37.2303 17.7962C37.4336 17.7962 37.6092 17.864 37.7597 18.0003C37.9102 18.1365 37.985 18.3335 37.985 18.5942C37.985 18.8203 37.9125 19.0219 37.7684 19.2008C37.6242 19.3796 37.4068 19.467 37.1169 19.467C36.8837 19.467 36.6923 19.4048 36.5434 19.2803C36.3946 19.1551 36.3095 18.9786 36.293 18.7486H36.7719C36.7908 18.8534 36.8278 18.9337 36.8822 18.9904C36.9365 19.0471 37.0153 19.0755 37.1177 19.0755C37.2374 19.0755 37.328 19.033 37.391 18.9495C37.4525 18.866 37.484 18.7596 37.484 18.6328C37.4871 18.5099 37.4564 18.4036 37.3989 18.3177ZM39.8771 17.5725H39.3982C39.3982 17.5331 39.3824 17.4898 39.3517 17.4425C39.3005 17.3661 39.2217 17.3275 39.117 17.3275C38.9602 17.3275 38.8476 17.415 38.7822 17.5906C38.7467 17.6875 38.7215 17.8301 38.7081 18.02C38.7672 17.9491 38.8365 17.8971 38.9153 17.8648C38.9941 17.8317 39.0854 17.8151 39.1863 17.8151C39.4021 17.8151 39.5809 17.8892 39.7204 18.0373C39.859 18.1854 39.9291 18.3736 39.9291 18.6021C39.9291 18.8313 39.8606 19.0322 39.7243 19.2071C39.588 19.3819 39.3769 19.4694 39.0886 19.4694C38.7806 19.4694 38.5529 19.3402 38.4072 19.0826C38.2922 18.8809 38.2363 18.6218 38.2363 18.302C38.2363 18.1153 38.2449 17.9632 38.2599 17.8459C38.2875 17.6371 38.3426 17.4646 38.4238 17.3252C38.4939 17.207 38.5852 17.1117 38.6987 17.04C38.8113 16.9675 38.9468 16.9313 39.1051 16.9313C39.332 16.9313 39.514 16.9896 39.6487 17.1062C39.7834 17.2236 39.859 17.3787 39.8771 17.5725ZM8.2924 16.9439C8.55235 16.9439 8.75795 17.0148 8.91156 17.159C9.06516 17.3023 9.14157 17.4922 9.14157 17.7293C9.14157 17.9105 9.08801 18.0719 8.9793 18.2129C8.90919 18.3051 8.79419 18.4075 8.63506 18.5202C8.6327 18.5217 8.63113 18.5233 8.62876 18.5249L8.43577 18.6619C8.31525 18.747 8.23254 18.81 8.18764 18.8471C8.14352 18.8857 8.10571 18.9298 8.07499 18.981H9.14394V19.4056H7.46687C7.4708 19.2417 7.50704 19.0928 7.56848 18.955C7.57242 18.9447 7.57478 18.9337 7.57951 18.9235C7.64804 18.7596 7.80953 18.5871 8.06633 18.4044C8.28768 18.246 8.43183 18.1318 8.49642 18.0625C8.59647 17.9561 8.64688 17.8388 8.64688 17.712C8.64688 17.6088 8.61773 17.5221 8.56102 17.4536C8.5043 17.385 8.42159 17.3504 8.31525 17.3504C8.16873 17.3504 8.06948 17.4055 8.0167 17.5142C7.98598 17.578 7.96786 17.6781 7.96313 17.8144H7.49444C7.50231 17.6064 7.54012 17.4378 7.60787 17.3094C7.6638 17.2031 7.7473 17.1298 7.84104 17.07C7.88515 17.0424 7.93793 17.0274 7.98913 17.0093C8.08129 16.9786 8.17267 16.9439 8.2924 16.9439ZM4.78859 25.1355H4.36401V22.9519H4.84216L5.70866 24.4746V22.9519H6.13403V25.1355H5.67794L4.79017 23.586V25.1355H4.78859ZM6.25219 19.4048V17.7198V17.7159H5.67557V17.3882C5.82761 17.3819 5.93316 17.3709 5.99382 17.3575C6.09071 17.3362 6.16948 17.2937 6.22935 17.2299C6.2711 17.1857 6.30182 17.1275 6.32309 17.0542C6.33569 17.0101 6.34199 16.9778 6.34199 16.9565H6.74452V17.5197V19.2921V19.4056H6.46645L6.25219 19.4048ZM4.66965 11.7536V10.1955H6.23407V11.789H4.67358C4.67358 11.7764 4.66965 11.7654 4.66965 11.7536ZM6.23407 13.8363C5.61019 13.6496 5.09975 13.2006 4.8461 12.6091H6.23407V13.8363ZM7.0541 12.6091H8.40662V13.9364H7.0541V12.6091ZM9.22665 12.6091H10.6154C10.3618 13.2006 9.85053 13.6496 9.22665 13.8363V12.6091ZM10.7911 11.7536C10.7911 11.7662 10.7879 11.7764 10.7879 11.789H9.22822V10.1955H10.7919L10.7911 11.7536ZM8.81703 9.37465L8.40662 9.37543V11.7882H7.0541V7.81416H8.60828C9.59373 7.81416 10.4193 8.47506 10.6895 9.37386H8.81703V9.37465ZM6.23407 9.37465H4.77126C4.98237 8.67278 5.53142 8.12531 6.23407 7.91499V9.37465ZM6.6492 24.2753C6.73349 24.2272 6.85874 24.1926 7.02259 24.1721L7.16753 24.154C7.2463 24.1437 7.30144 24.1327 7.3361 24.117C7.39676 24.091 7.42748 24.0508 7.42748 23.998C7.42748 23.9311 7.40463 23.8862 7.35816 23.8602C7.31089 23.835 7.24315 23.8216 7.15335 23.8216C7.05252 23.8216 6.98005 23.8476 6.9383 23.8964C6.90758 23.9326 6.88867 23.9823 6.87843 24.0445H6.47118C6.47984 23.9035 6.52002 23.7877 6.59013 23.6971C6.70198 23.5553 6.89498 23.4836 7.16674 23.4836C7.34398 23.4836 7.50153 23.5191 7.64017 23.5884C7.77802 23.6593 7.84734 23.7916 7.84734 23.9862V24.7267C7.84734 24.7771 7.84812 24.8401 7.85049 24.9134C7.85364 24.9677 7.86152 25.0063 7.8757 25.026C7.88987 25.0449 7.90957 25.0622 7.93793 25.0756V25.1371H7.47868C7.46529 25.104 7.45741 25.074 7.45269 25.0449C7.44796 25.0165 7.44402 24.9842 7.44087 24.9472C7.38258 25.011 7.31405 25.0646 7.23842 25.1087C7.14705 25.1615 7.04386 25.1883 6.92806 25.1883C6.78076 25.1883 6.65944 25.1457 6.56334 25.0638C6.46724 24.9803 6.41998 24.8621 6.41998 24.7093C6.4184 24.5077 6.4956 24.3635 6.6492 24.2753Z" fill="#2C4684"/>
<path d="M28.2192 10.5255C28.81 11.1943 29.6655 11.6244 30.6265 11.6244C31.3142 11.6244 31.9491 11.4046 32.4738 11.0352H32.5777H33.1173H33.1898H33.6703H33.8302C33.8405 11.0273 33.8468 11.0163 33.8578 11.0084C34.0768 10.8327 34.2777 10.6358 34.4494 10.4129H34.1146H33.6514H33.1244H33.1205H32.5888H32.087C31.9917 10.2593 31.9042 10.0986 31.8278 9.93156H32.2918H32.7589H33.4482H33.9145H34.369H34.759C34.8645 9.73384 34.9512 9.52588 35.0181 9.30846H34.5628H34.1351H33.7073H32.4659H32.0366H31.6096C31.5962 9.25884 31.5758 9.21079 31.5647 9.16037C31.534 9.03276 31.5214 8.90121 31.5056 8.77045H31.916H32.3265H32.5187H33.8184H34.2288H34.6392H35.1418C35.1638 8.60975 35.1906 8.44905 35.1906 8.28206C35.1906 8.23637 35.1788 8.19383 35.1757 8.14735H34.6518H34.2414H34.0453H33.831H32.2831H31.8727H31.4623C31.4678 7.96933 31.4883 7.79524 31.5159 7.6243H31.9263H32.3367H33.7507H34.18H34.5967H35.1213C35.0796 7.40847 35.0165 7.20051 34.9386 7.00121H34.4131H33.9862H33.5254H32.5265H32.51H32.0972H31.6703C31.7325 6.81452 31.8034 6.63649 31.8901 6.46319H32.3532H32.8196H33.1969H33.6995H33.8294H34.1619H34.6668C34.6093 6.36945 34.5329 6.29068 34.4699 6.20246C34.3801 6.07957 34.2997 5.94881 34.1934 5.83931H33.7412H33.3875H33.2142H32.803H32.5777H32.276C32.3131 5.79048 32.3548 5.74479 32.3926 5.69752C31.8845 5.3651 31.2796 5.1666 30.6281 5.1666C28.8471 5.1666 27.3984 6.61523 27.3984 8.39549C27.3984 8.62393 27.4236 8.84528 27.4693 9.05954C27.5843 9.61725 27.8545 10.1143 28.2192 10.5255Z" fill="#2C4684"/>
</svg>
