<svg width="25" height="17" viewBox="0 0 25 17" fill="none">
<path fill-rule="evenodd" clip-rule="evenodd" d="M0 7.725V14.166C0 14.166 0.096 17 2.855 17C5.615 17 6 14.137 6 14.137V5L0 7.725Z" fill="#4266BD"/>
<path fill-rule="evenodd" clip-rule="evenodd" d="M6 3.508V2.592C6 2.592 5.904 0 3.145 0C0.385 0 0 2.618 0 2.618V6L6 3.508Z" fill="#F38211"/>
<path fill-rule="evenodd" clip-rule="evenodd" d="M18.962 7.30004V9.85004C18.962 12.102 16.428 12.307 16.428 12.307H14.082V4.78904H16.294C18.989 4.78904 18.962 7.29904 18.962 7.29904V7.30004ZM18.962 0.0140381H10.262C10.262 0.0140381 8.008 0.054038 8.008 2.57904V14.599C8.008 14.599 7.888 16.986 10.26 16.986H18.961C21.361 16.986 24.981 14.285 24.981 10.669V6.26204C24.981 3.80704 22.983 0.0140381 18.961 0.0140381" fill="#4266BD"/>
</svg>
