<svg width="36" height="36" viewBox="0 0 36 36" fill="none" xmlns="http://www.w3.org/2000/svg">
<path fill-rule="evenodd" clip-rule="evenodd" d="M0 18C0 8.064 8.046 0 17.982 0C27.936 0 36 8.064 36 18C36 27.936 27.936 36 17.982 36C8.046 36 0 27.936 0 18ZM3.59999 18C3.59999 25.956 10.044 32.4 18 32.4C25.956 32.4 32.4 25.956 32.4 18C32.4 10.044 25.956 3.60002 18 3.60002C10.044 3.60002 3.59999 10.044 3.59999 18Z" fill="white"/>
<path d="M18.9 9H16.2V19.8L25.65 25.47L27 23.256L18.9 18.45V9Z" fill="white"/>
</svg>
