<svg width="55" height="37" viewBox="0 0 55 37" fill="none" xmlns="http://www.w3.org/2000/svg">
<path d="M8.9182 6.69985C9.9021 6.04407 10.4892 4.8086 10.4892 3.62626C10.4892 2.44392 9.9021 1.3467 8.9182 0.690789C8.43937 0.371919 7.79666 0.50154 7.48083 0.978221C7.16293 1.45497 7.29255 2.09879 7.76826 2.41559C8.18027 2.68989 8.41609 3.1312 8.41609 3.62626C8.41609 4.12132 8.18027 4.70081 7.76826 4.97512C6.78436 5.63096 6.19727 6.72825 6.19727 7.91052C6.19727 9.09279 6.78436 10.1901 7.76826 10.846C8.25323 11.1676 8.89326 11.0278 9.20563 10.5586C9.52353 10.0818 9.39488 9.43902 8.91813 9.12119C8.50612 8.84688 8.2703 8.40558 8.2703 7.91052C8.27037 7.41546 8.50626 6.97415 8.9182 6.69985Z" fill="#2C4684"/>
<path d="M14.1018 6.69985C15.0857 6.04407 15.6728 4.8086 15.6728 3.62626C15.6728 2.44392 15.0857 1.3467 14.1018 0.690789C13.622 0.371919 12.9803 0.50154 12.6644 0.978221C12.3465 1.45497 12.4761 2.09879 12.9519 2.41559C13.3639 2.68989 13.5997 3.1312 13.5997 3.62626C13.5997 4.12132 13.3639 4.70081 12.9519 4.97512C11.968 5.63096 11.3809 6.72825 11.3809 7.91052C11.3809 9.09279 11.968 10.1901 12.9519 10.846C13.4368 11.1676 14.0768 11.0278 14.3892 10.5586C14.7071 10.0818 14.5785 9.43902 14.1018 9.12119C13.6898 8.84688 13.454 8.40558 13.454 7.91052C13.454 7.41546 13.6898 6.97415 14.1018 6.69985Z" fill="#2C4684"/>
<path d="M19.2844 6.69986C20.2683 6.04394 20.8554 4.80847 20.8554 3.6262C20.8554 2.44393 20.2683 1.34664 19.2844 0.690728C18.8046 0.371858 18.1638 0.501479 17.847 0.97816C17.5291 1.45491 17.6588 2.09873 18.1345 2.41553C18.5465 2.68983 18.7823 3.13114 18.7823 3.6262C18.7823 4.12126 18.5465 4.70075 18.1345 4.97506C17.1506 5.63097 16.5635 6.72825 16.5635 7.91053C16.5635 9.0928 17.1506 10.1901 18.1345 10.846C18.6195 11.1676 19.2595 11.0278 19.5718 10.5586C19.8897 10.0818 19.7611 9.43903 19.2844 9.1212C18.8724 8.84689 18.6366 8.40559 18.6366 7.91053C18.6366 7.41547 18.8725 6.97416 19.2844 6.69986Z" fill="#2C4684"/>
<path d="M31.4009 17.698C30.4584 16.0905 28.7235 15.0925 26.8741 15.0925H24.876V14.056C24.876 13.4831 24.4124 13.0194 23.8394 13.0194H3.10882C2.53589 13.0194 2.07227 13.483 2.07227 14.0559V20.6304C2.07227 22.2855 2.33945 23.9862 2.86789 25.5492C3.42866 27.2146 4.46825 28.6144 5.78885 29.6731H21.1594C21.9 29.0794 22.5383 28.3682 23.0673 27.5734C26.8636 27.4367 29.7728 25.7082 31.4798 22.651C32.3433 21.1053 32.3139 19.2538 31.4009 17.698ZM29.6699 21.6406C28.4881 23.7557 26.6175 25.0564 24.1151 25.4093C24.6132 23.8883 24.8759 22.237 24.8759 20.6304V17.1655H26.8741C28.0078 17.1655 29.0322 17.7567 29.6132 18.7477C30.1578 19.6759 30.1781 20.7297 29.6699 21.6406Z" fill="#2C4684"/>
<path d="M25.9133 31.746H1.03655C0.464106 31.746 0 32.2101 0 32.7826C0 34.5 1.39218 35.8922 3.10959 35.8922H23.8402C25.5576 35.8922 26.9498 34.5 26.9498 32.7826C26.9499 32.2101 26.4858 31.746 25.9133 31.746Z" fill="#2C4684"/>
<path d="M50.7832 29.7074C46.8164 26.8839 42.2989 26.8337 40.4259 26.9616C40.116 27.962 39.4109 28.593 38.646 28.9387C39.3469 31.4836 41.0338 35.5428 43.7263 35.5428C48.8152 35.5428 50.5028 30.6073 50.7832 29.7074Z" fill="#2C4684"/>
<path d="M50.7832 11.4616C50.5064 10.5722 48.8206 5.62415 43.7264 5.62415C41.0536 5.62415 39.3458 9.73823 38.6488 12.2296C39.4279 12.5823 40.1437 13.2319 40.4433 14.2658C42.3317 14.3772 46.8306 14.284 50.7832 11.4616Z" fill="#2C4684"/>
<path d="M54.6709 20.2245C54.6709 17.6516 54.1283 15.2034 53.0558 12.9265C48.044 17.0062 42.1523 16.9676 39.9693 16.784C39.5332 17.5627 38.8632 19.0439 38.8632 20.7943C38.8632 22.0744 39.2228 23.3004 39.9335 24.4477C42.0898 24.2462 47.9811 24.1482 53.0061 28.2014C53.6997 26.5602 54.6709 23.6505 54.6709 20.2245Z" fill="#2C4684"/>
<path d="M37.0403 32.055C35.9107 33.0842 34.853 33.679 32.7157 33.679C32.3886 33.679 32.1908 33.8141 32.1279 34.0802C32.0209 34.534 32.3369 35.2037 33.2836 35.6769C35.6649 36.8675 38.0933 36.5563 39.5635 36.1638C38.4402 34.9955 37.6188 33.4624 37.0403 32.055Z" fill="#2C4684"/>
<path d="M39.5635 5.00306C38.0933 4.6106 35.6648 4.29936 33.2834 5.48994C32.3365 5.96351 32.0206 6.63363 32.1278 7.08661C32.1907 7.35279 32.3884 7.48787 32.7156 7.48787C34.8528 7.48787 35.9104 8.08278 37.0402 9.112C37.6188 7.70448 38.4401 6.17154 39.5635 5.00306Z" fill="#2C4684"/>
</svg>
