<svg width="31" height="31" viewBox="0 0 31 31" fill="none" xmlns="http://www.w3.org/2000/svg">
<g id="bought-from-credit copy 3">
<path id="Shape" d="M16.8914 5.4707H6.81472C6.07259 5.4707 5.4707 5.8792 5.4707 6.38247C5.4707 6.88573 6.07259 7.29423 6.81472 7.29423H16.8914C17.6348 7.29423 18.2354 6.88573 18.2354 6.38247C18.2348 5.8792 17.6342 5.4707 16.8914 5.4707Z" fill="white"/>
<path id="Shape_2" d="M18.2354 11.8527C18.2354 11.3491 17.6348 10.9412 16.8913 10.9412H6.81479C6.07262 10.9412 5.4707 11.3496 5.4707 11.8527C5.4707 12.3563 6.07262 12.7647 6.81479 12.7647H16.892C17.6348 12.7647 18.2354 12.3563 18.2354 11.8527Z" fill="white"/>
<path id="Shape_3" d="M11.4966 18.2354C12.1972 18.2354 12.7648 17.827 12.7648 17.3238C12.7648 16.8203 12.1972 16.4119 11.4966 16.4119H6.73953C6.03891 16.4119 5.4707 16.8203 5.4707 17.3238C5.4707 17.8274 6.03891 18.2354 6.73953 18.2354H11.4966Z" fill="white"/>
<path id="Shape_4" d="M22.3789 23.698L20.9162 24.6735V28.181H2.78904V2.8183H20.9162V8.38631L23.7052 3.5049V1.40882C23.7052 0.63054 23.0806 0 22.3104 0H1.39419C0.623994 0 0 0.631199 0 1.40882V29.5912C0 30.3695 0.623994 31 1.39419 31H22.3104C23.0812 31 23.7059 30.3688 23.7059 29.5912V21.8249L23.0395 22.9896C22.8769 23.2739 22.6485 23.5186 22.3789 23.698Z" fill="white"/>
<path id="Shape_5" fill-rule="evenodd" clip-rule="evenodd" d="M28.8978 4.39433C30.6627 5.41463 30.9555 6.53632 30.9841 6.66109C31.0211 6.83136 30.9945 7.00813 30.9075 7.1589L22.2367 22.1905C22.1828 22.2834 22.1081 22.3634 22.0179 22.4219L17.4874 25.4152C17.2679 25.5588 16.9867 25.5679 16.7581 25.4366C16.5315 25.3047 16.3978 25.0565 16.4133 24.7939L16.738 19.3707C16.7445 19.2628 16.7763 19.1582 16.8302 19.064L25.5004 4.03495C25.5874 3.88418 25.727 3.7724 25.8926 3.71976C26.0159 3.68141 27.1328 3.37467 28.8978 4.39433ZM18.4613 22.4869C18.7425 22.65 19.0042 22.8261 19.2347 23.0126L20.5932 22.1145C20.3698 21.8253 19.9756 21.4328 19.2951 21.0396C18.6139 20.6471 18.0776 20.5002 17.7159 20.4528L17.6191 22.0788C17.8958 22.1866 18.1789 22.3238 18.4613 22.4869Z" fill="white"/>
<path id="Shape_6" d="M9.0735 24.1441C9.12045 24.4231 9.45245 24.5096 9.67446 24.5994C9.88909 24.6872 10.1453 24.5207 10.3237 24.4368C11.417 23.921 12.8979 24.5272 14.069 24.5272C14.7618 24.5272 14.7618 23.4852 14.069 23.4852C12.7034 23.4852 11.5672 23.1503 10.2137 23.3668C10.2137 23.2907 10.1849 23.188 10.1004 23.0481C9.8475 22.6286 9.52556 22.5096 9.20294 22.5603C9.18148 22.5109 9.16069 22.4615 9.13051 22.4114C9.046 22.2774 8.92795 22.2104 8.79515 22.1824C9.17276 21.5424 9.41623 20.8654 9.16874 20.3177C9.09295 20.1512 8.87765 20.066 8.7046 20.0595C7.98693 20.0335 7.37122 20.7639 6.90976 21.2023C5.75546 22.2995 4.73865 23.5451 3.75471 24.7847C3.33216 25.3174 4.26647 25.8351 4.68231 25.3116C5.55424 24.2137 6.47782 23.1477 7.47182 22.1506C7.23238 22.5317 6.97818 22.9057 6.71056 23.266C6.32825 23.839 7.2411 24.3268 7.63816 23.7922C7.73273 23.6524 7.85279 23.5516 7.98425 23.4651C7.95809 23.5294 7.93127 23.5925 7.90444 23.6576C7.90578 23.6576 7.90712 23.6582 7.90846 23.6589C7.88767 23.7005 7.86688 23.7421 7.85011 23.7818C7.60999 24.3652 8.50674 24.6325 8.83271 24.1825C8.91521 24.0693 8.99167 23.9483 9.06075 23.8215C9.05606 23.9086 9.05405 24.0257 9.0735 24.1441Z" fill="white"/>
</g>
</svg>
