<svg width="80" height="79" viewBox="0 0 80 79" fill="none" xmlns="http://www.w3.org/2000/svg">
<path fill-rule="evenodd" clip-rule="evenodd" d="M39.9931 73.6733C58.9278 73.6733 74.3338 58.2673 74.3338 39.3326C74.3338 20.3979 58.9278 4.99188 39.9931 4.99188C21.0583 4.99188 5.65234 20.3979 5.65234 39.3326C5.65234 58.2673 21.0583 73.6733 39.9931 73.6733Z" fill="#FEFEFE" stroke="#FEFEFE" stroke-width="0.5669" stroke-miterlimit="22.9256"/>
<path fill-rule="evenodd" clip-rule="evenodd" d="M55.3127 21.0864C54.9684 21.1725 54.6241 21.1725 54.2799 21.1725C54.0217 21.0865 53.8495 20.9143 53.6774 20.7422C53.4192 20.3979 53.2471 19.9676 53.0749 19.6233C52.9028 19.193 52.7307 18.7626 52.6446 18.3323C52.3003 17.6438 52.1282 17.3856 51.6979 16.8692C51.4397 16.5249 51.1815 16.2667 50.7511 16.0946C49.6323 15.5782 49.2019 19.7954 49.2019 20.3118C49.1159 21.6029 48.8576 22.7217 49.288 23.9267C49.4601 24.4431 49.8044 24.8734 49.7183 25.3898C49.6323 26.0783 48.2552 28.1439 47.7388 28.8325C47.4806 29.1767 47.2224 29.6071 47.0502 29.9513C46.1896 31.4145 44.2961 32.017 42.5748 32.1891C39.3903 32.4473 36.2058 32.5334 33.0213 32.7055C32.0746 32.7916 31.1279 32.7055 30.1811 32.8776C29.0622 33.0498 27.9434 33.308 26.9106 33.8244C25.2753 34.5129 24.2425 35.1154 23.554 35.8039C18.9924 37.4392 18.9924 42.0007 16.3243 44.927C15.2055 46.1319 13.6563 47.0787 12.5374 46.7344C11.9349 46.5623 11.6767 46.3041 11.3325 46.4762C11.2464 46.5623 11.1603 46.5623 11.1603 46.6483C11.0743 46.8205 11.1603 46.9065 11.1603 47.0787C11.3325 48.9721 12.8817 50.8656 17.0989 49.4885C19.4228 48.7139 20.1113 47.4229 20.8859 45.5295C20.7998 46.218 20.7998 46.7344 20.7998 46.9926C20.7998 47.1647 20.6277 48.8 20.6277 48.8C20.2834 49.1443 20.0252 49.5746 19.681 49.9189C19.4228 50.1771 19.1645 50.2631 18.9063 50.4353C18.7342 50.5213 18.5621 50.6074 18.3899 50.7795C18.3039 50.8656 18.2178 51.0378 18.2178 51.2099C18.1317 51.4681 18.1317 51.6402 18.2178 51.8984C18.3039 52.9312 18.3899 53.878 18.476 54.9108C18.5621 55.4272 18.6481 55.8575 18.8203 56.3739C18.8203 56.3739 19.2506 57.9231 19.3367 58.0092C19.4228 58.0952 19.9392 59.042 19.9392 59.042C20.1974 59.128 20.4556 59.3002 20.7138 59.3002C21.058 59.3862 21.3162 59.3002 21.6605 59.3002C21.8326 59.3002 22.0048 59.3002 22.0908 59.3002C22.1769 59.3002 22.1769 59.128 22.263 59.042C22.349 59.042 22.5212 59.128 22.6072 59.128C22.7794 59.128 22.9515 59.042 23.0376 58.9559C23.1236 58.8698 23.1236 58.6116 23.1236 58.5256C23.1236 58.3534 23.0376 58.1813 23.0376 58.0092C22.9515 57.837 22.8654 57.6649 22.7794 57.4928C22.7794 57.4928 22.4351 57.3206 22.263 57.3206C22.1769 57.3206 21.4884 57.2346 21.4884 57.2346C21.4023 57.0624 21.2302 56.9764 21.1441 56.8042C21.058 56.546 21.058 56.2018 20.972 55.9436C20.8859 55.6854 20.7998 55.4272 20.7138 55.0829C20.7138 54.8247 20.7138 54.4804 20.7998 54.2222C20.8859 53.878 20.972 53.6198 21.1441 53.3616C21.2302 53.2755 22.263 52.1566 22.6933 51.7263C22.6933 51.8984 22.6933 51.9845 22.7794 52.1566C22.8654 52.673 22.9515 53.1034 23.1236 53.6198C23.1236 53.6198 23.554 55.169 23.64 55.255C23.7261 55.3411 24.2425 56.2878 24.2425 56.2878C24.5007 56.3739 24.7589 56.546 25.0171 56.546C25.3614 56.6321 25.6196 56.546 25.9638 56.546C26.136 56.546 26.3081 56.546 26.3942 56.546C26.4802 56.546 26.4802 56.3739 26.5663 56.2878C26.6524 56.2878 26.8245 56.3739 26.9106 56.3739C27.0827 56.3739 27.2548 56.2878 27.3409 56.2018C27.427 56.1157 27.427 55.8575 27.427 55.7714C27.427 55.5993 27.3409 55.4272 27.3409 55.255C27.2548 55.0829 27.1688 54.9108 27.0827 54.7386C27.0827 54.7386 26.7384 54.5665 26.5663 54.5665C26.4802 54.5665 25.7917 54.4804 25.7917 54.4804C25.7056 54.3083 25.5335 54.2222 25.4474 54.0501C25.3614 53.7919 25.3614 53.4476 25.2753 53.1894C25.1892 52.9312 25.1032 52.673 25.0171 52.3288C25.0171 52.0706 25.0171 51.7263 25.1032 51.4681C25.1892 51.1238 25.2753 50.8656 25.4474 50.6074L25.7917 50.2631C27.5991 49.4885 29.4065 48.7139 31.4721 46.5623C31.8164 46.218 33.882 43.4639 33.882 43.4639C34.8287 43.4639 39.5624 49.7467 45.415 46.5623C45.415 46.5623 45.8453 46.218 45.7592 46.4762C45.6732 46.7344 45.9314 48.1975 45.9314 48.1975C46.1035 49.0582 46.2756 49.9189 46.4478 50.7795C46.4478 50.7795 46.6199 52.673 46.6199 52.9312C46.6199 53.1894 46.706 55.255 46.706 55.255C46.706 55.5993 46.706 55.8575 46.792 56.2018C46.8781 56.546 47.2224 56.8903 47.3945 57.2346C47.5666 57.5788 47.8248 58.0092 47.997 58.3534C48.1691 58.6977 48.2552 59.128 48.3412 59.4723C48.4273 59.6444 48.5134 59.9026 48.5994 60.0748C48.7716 60.333 48.9437 60.5912 49.2019 60.7633C49.5462 60.9355 49.8044 61.0215 50.1487 61.1076C50.4929 61.1076 50.8372 61.1076 51.0954 61.1936C51.4397 60.9355 51.4397 61.1076 52.0421 61.1076C52.2143 61.1076 52.3003 61.0215 52.4725 61.0215C52.5585 61.0215 52.6446 60.9354 52.7307 60.8494C53.4192 61.1076 53.6774 60.7633 53.5913 60.1609C53.5913 60.1609 53.4192 59.8166 53.161 59.6445C52.9889 59.5584 52.3864 59.128 52.3864 59.128C52.2143 58.9559 51.9561 58.7838 51.7839 58.6977C51.6118 58.6116 51.3536 58.6116 51.1815 58.5256C51.1815 58.5256 51.0093 58.4395 50.9233 58.3534C50.8372 58.2674 50.1487 57.2346 50.1487 57.2346C49.9765 56.8903 49.6323 56.6321 49.5462 56.2878C49.4601 55.8575 49.5462 55.4272 49.5462 54.9968C49.5462 54.3083 49.6323 53.6198 49.6323 52.9312C49.6323 51.8124 49.5462 50.6935 49.6323 49.5746C49.6323 49.0582 49.6323 48.4557 49.8044 47.9393C49.8904 47.7672 50.3208 47.509 50.4069 47.6811C50.579 48.1975 50.3208 48.7139 50.2347 49.2303C50.1487 49.8328 50.1487 50.4353 50.1487 51.0378C50.1487 51.5542 50.2347 51.9845 50.2347 52.5009C50.2347 52.7591 50.2347 53.1034 50.1487 53.3616C50.1487 53.7058 50.0626 54.1362 50.0626 54.4804C50.0626 54.7386 50.0626 55.0829 50.3208 55.255C50.4069 55.3411 50.4929 55.3411 50.6651 55.3411C50.6651 55.3411 50.8372 55.6854 50.9233 55.7714C50.9233 55.8575 51.2675 56.2878 51.2675 56.546C51.2675 56.8042 51.6118 57.2346 51.6118 57.2346C51.7839 57.5788 51.87 57.837 52.0421 58.1813C52.2143 58.6116 52.3864 58.7838 52.9028 58.8698C53.0749 58.8698 53.7635 59.128 53.8495 59.128C53.9356 59.128 54.5381 59.2141 54.6241 59.2141C54.7102 59.2141 54.7963 59.2141 54.8823 59.2141C55.1405 59.128 55.0545 58.9559 55.3127 58.9559C55.8291 59.042 56.0012 59.128 56.3455 58.5256C56.5176 58.1813 56.6037 57.9231 56.2594 57.6649C56.0873 57.4928 55.8291 57.4067 55.6569 57.3206C55.4848 57.2346 55.2266 57.0624 54.9684 56.9764C54.6241 56.8903 54.3659 56.9764 54.0217 56.8903C53.7635 56.8042 53.5053 56.8042 53.4192 56.6321C53.0749 56.0296 52.8167 55.4272 52.6446 54.7386C52.5585 54.4804 52.5585 54.1362 52.6446 53.878C52.7307 53.3616 52.9028 52.7591 52.9889 52.2427C53.0749 51.7263 53.0749 51.296 53.161 50.7795C53.3331 50.091 53.4192 49.3164 53.5913 48.6279C53.7635 47.9393 53.9356 47.1647 54.1938 46.4762C54.3659 45.9598 54.6241 45.3573 54.8823 44.927C55.2266 44.4106 55.743 43.9803 56.0873 43.4639C56.3455 43.1196 56.6897 42.6893 56.8619 42.2589C57.1201 41.5704 57.034 40.7958 57.1201 40.0212C57.2922 38.3859 57.4643 37.0949 57.8947 35.4596C57.8947 35.4596 58.4111 34.5129 58.4971 34.0826C58.4971 33.7383 58.8414 32.3612 58.8414 32.3612C58.9275 31.9309 58.9275 31.4145 59.0996 30.9841C59.7021 29.3489 59.7021 30.3817 59.7021 28.4882C59.7021 28.4021 59.4439 27.3693 59.4439 27.3693C59.2718 27.2833 59.1857 26.939 59.1857 26.6808C59.1857 26.4226 59.1857 26.0783 59.2717 25.8201C59.2717 25.648 59.3578 25.3898 59.4439 25.2177C59.4439 25.2177 59.616 24.6152 59.7021 24.4431C59.7021 24.2709 60.1324 23.3242 60.1324 23.3242C60.2185 23.066 60.3046 22.7217 60.3046 22.4635C60.3046 22.1193 60.3046 21.775 60.3046 21.4307C60.3046 21.1725 60.2185 20.8282 60.2185 20.57C60.2185 20.2258 60.3046 19.7954 60.3046 19.4512C60.3046 18.9348 60.2185 18.4184 60.1324 17.8159C60.0464 17.4716 60.0464 17.1274 59.8742 16.8692C59.7882 16.611 59.7021 16.3528 59.53 16.1806C59.4439 16.0946 59.3578 15.9224 59.2717 15.8364C59.1857 15.8364 59.0135 15.8364 58.9275 15.9224C58.7553 16.0085 58.5832 16.0946 58.4971 16.2667C57.8947 16.7831 57.8086 17.1274 57.3783 17.8159C57.034 18.5044 56.7758 19.1069 56.3455 19.8815C56.3455 19.8815 56.0012 20.3979 56.0012 20.484C55.8291 20.57 55.3987 21.0864 55.3127 21.0864Z" fill="black"/>
<path fill-rule="evenodd" clip-rule="evenodd" d="M39.9928 0C18.3039 0 0.660156 17.6437 0.660156 39.3326C0.660156 61.1075 18.3039 78.6652 39.9928 78.6652C61.7677 78.6652 79.3254 61.1075 79.3254 39.3326C79.3254 17.6437 61.7677 0 39.9928 0ZM19.5949 14.6314C25.1032 10.0698 32.2467 7.31569 39.9928 7.31569C57.7225 7.31569 72.0957 21.6028 72.0957 39.3326C72.0957 47.0786 69.3416 54.2222 64.78 59.7305L19.5949 14.6314ZM60.3906 64.0338C54.8823 68.6814 47.7388 71.4356 39.9928 71.4356C22.263 71.4356 7.97585 57.0624 7.97585 39.3326C7.97585 31.5866 10.73 24.443 15.2915 18.9347L60.3906 64.0338Z" fill="#F50000"/>
</svg>
