<svg width="24" height="24" fill="none" viewBox="0 0 24 24"><path fill-rule="evenodd" clip-rule="evenodd" d="M23.528 5.032L18.971.472a1.61 1.61 0 0 0-2.28 0l-1.139 1.14c-.63.63-.63 1.65 0 2.28L20.11 8.45c.63.63 1.65.63 2.279 0l1.139-1.14c.63-.63.63-1.65 0-2.28zM9.233 19.629l-.027.017a.437.437 0 0 0-.019.012l-.021.013-.022.013c-.266.16-1.044.569-2.934 1.252-.22.08-.461.165-.714.252L2.81 18.5c.088-.253.172-.495.253-.717.682-1.897 1.092-2.677 1.25-2.942a.77.77 0 0 1 .01-.018l.016-.026.011-.017.018-.027.196-.197 4.87 4.871-.201.202zm5.18-14.597a1.61 1.61 0 0 0-2.28 0l-.568.57-7.976 7.978.001.002-.251.252s-.801.807-2.611 6.645L.69 20.6a81.805 81.805 0 0 0-.186.609l-.075.248-.175.587c-.13.44-.448 1.435-.088 1.795.346.347 1.35.041 1.79-.089l.583-.174.26-.078.273-.084.335-.104.097-.03c5.559-1.73 6.557-2.541 6.64-2.615v-.001a.146.146 0 0 1 .006-.005l.258-.258.017.017 7.976-7.979.57-.57c.629-.629.629-1.65 0-2.28l-4.558-4.558z" fill="#94A8B2"/></svg>