<svg width="79" height="79" viewBox="0 0 79 79" fill="none" xmlns="http://www.w3.org/2000/svg">
<path fill-rule="evenodd" clip-rule="evenodd" d="M39.663 73.6733C58.5977 73.6733 74.0037 58.2673 74.0037 39.3326C74.0037 20.3979 58.5977 4.99188 39.663 4.99188C20.7283 4.99188 5.32227 20.3979 5.32227 39.3326C5.32227 58.2673 20.7283 73.6733 39.663 73.6733Z" fill="#FEFEFE" stroke="#FEFEFE" stroke-width="0.5669" stroke-miterlimit="22.9256"/>
<path fill-rule="evenodd" clip-rule="evenodd" d="M40.6945 18.9348C43.2765 18.9348 45.3421 16.8692 45.3421 14.2871C45.3421 11.7051 43.2765 9.63953 40.6945 9.63953C38.1125 9.63953 36.0469 11.7051 36.0469 14.2871C36.0469 16.8692 38.1125 18.9348 40.6945 18.9348Z" fill="#1C1B17"/>
<path fill-rule="evenodd" clip-rule="evenodd" d="M39.7477 42.0007V63.3453C39.7477 64.5502 38.801 65.497 37.596 65.497C36.3911 65.497 35.4443 64.5502 35.4443 63.3453V42.0007C34.6697 41.9146 33.9812 41.2261 33.9812 40.4515V27.025L26.6655 38.1277C26.1491 38.9023 25.1163 39.1605 24.3417 38.6441C23.5671 38.1277 23.3089 37.0949 23.8253 36.3203L33.8951 21.0004C34.1533 20.57 34.5837 20.3979 34.9279 20.3118C35.1001 20.2257 35.2722 20.2257 35.5304 20.2257H45.8584C45.9445 20.2257 45.9445 20.2257 46.0306 20.2257C46.8912 20.1397 47.7519 20.6561 47.924 21.5168L52.3995 39.2465C52.6577 40.1933 52.0553 41.054 51.1946 41.3122C50.2479 41.5704 49.3872 40.9679 49.129 40.1072L47.4937 33.5661V40.4515C47.4937 41.3122 46.8052 42.0007 45.9445 42.0007H45.8584V63.3453C45.8584 64.5502 44.9117 65.497 43.7068 65.497C42.5018 65.497 41.5551 64.5502 41.5551 63.3453V42.0007H39.7477Z" fill="black"/>
<path d="M28.5898 44.322L21.4795 45.6298L22.4915 51.1319L29.6018 49.824L28.5898 44.322Z" fill="black"/>
<path d="M25.1579 58.3292L22.0566 61.0587L24.1606 63.4493L27.2619 60.7198L25.1579 58.3292Z" fill="black"/>
<path fill-rule="evenodd" clip-rule="evenodd" d="M39.6627 0C17.9738 0 0.330078 17.6437 0.330078 39.3326C0.330078 61.1075 17.9738 78.6652 39.6627 78.6652C61.4376 78.6652 78.9953 61.1075 78.9953 39.3326C78.9953 17.6437 61.4376 0 39.6627 0ZM19.2648 14.6314C24.7731 10.0698 31.9167 7.31569 39.6627 7.31569C57.3925 7.31569 71.7656 21.6028 71.7656 39.3326C71.7656 47.0786 69.0115 54.2222 64.45 59.7305L19.2648 14.6314ZM60.0605 64.0338C54.5523 68.6814 47.4087 71.4356 39.6627 71.4356C21.9329 71.4356 7.64577 57.0624 7.64577 39.3326C7.64577 31.5866 10.3999 24.443 14.9615 18.9347L60.0605 64.0338Z" fill="#F50000"/>
</svg>
