<svg width="219" height="77" viewBox="0 0 219 77" fill="none" xmlns="http://www.w3.org/2000/svg">
<mask id="mask0" mask-type="alpha" maskUnits="userSpaceOnUse" x="0" y="0" width="219" height="77">
<path d="M0 0.936001H219V76.272H0V0.936001Z" fill="white"/>
</mask>
<g mask="url(#mask0)">
<path fill-rule="evenodd" clip-rule="evenodd" d="M193.206 51.4566C193.392 51.6546 193.497 51.9068 193.621 52.1451C193.376 53.538 192.482 54.703 191.382 55.5247C191.123 55.7069 190.757 55.8541 190.471 55.6404C190.187 55.2164 190.303 54.668 190.412 54.2072C190.722 53.1227 191.528 52.2818 192.367 51.588C192.588 51.3847 192.936 51.2639 193.208 51.4566H193.206ZM184.879 52.951C183.719 54.3702 183.048 56.1747 182.873 57.9968C182.759 59.3283 182.848 60.8 183.693 61.888C184.493 62.9217 185.804 63.3719 187.056 63.4595C188.928 63.5646 190.806 63.463 192.677 63.3018C194.177 63.1599 195.666 62.8148 197.041 62.1806C197.772 61.8319 198.536 61.3922 198.905 60.6265C199.336 59.5368 198.406 58.1282 197.222 58.2403C196.211 58.3104 195.382 58.9849 194.516 59.4457C193.451 60.185 192.029 60.3077 190.822 59.8714C190.012 59.5771 189.788 58.2946 190.632 57.9004C191.533 57.6481 192.491 57.7287 193.407 57.557C194.772 57.4291 196.067 56.9333 197.262 56.2746C198.225 55.6912 199.156 54.908 199.531 53.7973C199.935 52.6514 200.041 51.3094 199.49 50.1951C199.175 49.6065 198.551 49.2876 197.956 49.0704C196.232 48.4582 194.381 48.2943 192.577 48.5938C189.607 49.0353 186.759 50.556 184.879 52.951ZM176.215 51.4759C176.375 51.6791 176.49 51.9174 176.609 52.1451C176.359 53.5432 175.485 54.7486 174.354 55.5545C174.1 55.7017 173.745 55.9049 173.485 55.6614C173.224 55.2567 173.289 54.7328 173.391 54.2826C173.675 53.1841 174.489 52.3273 175.33 51.6195C175.565 51.4093 175.94 51.2236 176.215 51.4759ZM169.526 51.2639C167.796 52.6291 166.59 54.5493 166.111 56.7003C165.801 58.1019 165.642 59.6279 166.187 60.9962C166.422 61.5803 166.8 62.0958 167.287 62.495C167.774 62.8943 168.354 63.1646 168.972 63.2808C170.295 63.626 171.665 63.3719 173.011 63.4998C175.474 63.3684 178.084 63.2756 180.299 62.0404C180.889 61.6602 181.564 61.2958 181.923 60.6616C182.273 59.5631 181.389 58.0581 180.154 58.2403C179.064 58.4173 178.165 59.1321 177.21 59.6384C176.32 60.1956 175.22 60.2166 174.225 60.0186C173.825 59.931 173.394 59.7505 173.23 59.3388C172.906 58.808 173.165 57.9863 173.804 57.8707C174.759 57.6429 175.754 57.6779 176.725 57.5308C178.319 57.338 179.829 56.66 181.114 55.6912C181.879 55.078 182.624 54.2633 182.708 53.2296C182.799 52.266 183.023 51.2288 182.549 50.3318C182.259 49.638 181.529 49.3139 180.879 49.0546C179.152 48.4651 177.307 48.307 175.506 48.5938C173.324 48.9179 171.255 49.8903 169.526 51.2639ZM144.595 51.7754C144.74 52.4535 144.474 53.1385 144.145 53.7202C143.675 54.5524 143.001 55.2917 142.16 55.742C141.652 55.996 141.42 55.2619 141.356 54.887C141.631 53.4836 142.5 52.1802 143.724 51.4671C144.034 51.2936 144.52 51.376 144.595 51.7754ZM138.235 50.8381C137.072 51.6896 135.972 52.6882 135.287 53.9847C134.242 55.8488 133.671 58.0669 134.051 60.2113C134.291 61.5954 135.341 62.7692 136.665 63.1897C138.312 63.7521 140.064 63.4227 141.76 63.4788C143.81 63.4035 145.909 63.2002 147.805 62.3645C148.576 61.9283 149.453 61.5534 149.965 60.793C150.499 59.6647 149.523 58.1194 148.248 58.2648C147.195 58.398 146.338 59.1233 145.415 59.5929C144.474 60.2061 143.295 60.2569 142.235 60.0186C141.983 59.9593 141.752 59.8329 141.566 59.6527C141.381 59.4725 141.247 59.2454 141.18 58.9954C141.121 58.5189 141.405 57.9723 141.895 57.8707C142.531 57.7287 143.185 57.748 143.829 57.6674C146.044 57.4905 148.325 56.7038 149.909 55.0692C150.89 54.0303 151.023 52.5043 150.92 51.143C150.804 50.4019 150.389 49.6923 149.699 49.3787C148.085 48.564 146.219 48.3555 144.441 48.4975C142.216 48.6849 140.026 49.4751 138.235 50.8381ZM127.658 52.3378C127.494 53.047 127.183 53.7141 126.747 54.2969C126.31 54.8796 125.757 55.3652 125.123 55.7227C124.662 55.961 124.443 55.3215 124.335 54.9921C124.524 53.5327 125.444 52.266 126.633 51.4671C127.184 51.0816 127.828 51.7702 127.658 52.3378ZM121.49 50.5806C120.284 51.4671 119.17 52.52 118.35 53.7867C117.254 55.594 116.764 57.7047 116.954 59.8101C117.064 60.6265 117.439 61.3922 117.935 62.0352C118.741 62.9777 119.993 63.3667 121.194 63.3982C122.169 63.414 123.149 63.5699 124.128 63.449C126.132 63.3789 128.163 63.2213 130.083 62.5975C131.152 62.1963 132.361 61.7566 132.942 60.6826C133.547 59.5438 132.436 58.0126 131.182 58.2298C129.868 58.4681 128.848 59.4457 127.618 59.9117C126.7 60.1802 125.72 60.1446 124.824 59.8101C123.969 59.4807 123.944 57.9705 124.938 57.8303C126.788 57.5062 128.778 57.6271 130.483 56.7091C131.932 56.0153 133.512 54.9834 133.822 53.2594C133.941 52.2783 134.092 51.2131 133.652 50.2915C133.407 49.6888 132.776 49.4102 132.233 49.1562C130.481 48.4309 128.543 48.3152 126.688 48.5886C124.832 48.8268 123.063 49.5714 121.49 50.5806ZM108.64 51.0501C108.945 51.6633 109.66 51.8105 110.191 52.1504C110.885 52.662 111.046 53.615 111.025 54.435C110.917 56.1212 110.153 57.6981 108.896 58.8272C108.346 59.3493 107.701 59.8767 106.901 59.8609C105.771 59.8609 104.472 59.4562 103.893 58.3927C103.607 57.8706 103.893 57.2977 104.062 56.7914C104.581 55.4897 105.187 54.216 105.722 52.9248C106.056 52.1048 106.116 51.178 105.916 50.316C105.837 49.9998 105.676 49.7103 105.448 49.4769C105.221 49.2436 104.935 49.0749 104.621 48.988C103.127 48.5377 101.517 48.5483 99.9926 48.8619C98.7522 49.0809 97.6081 49.6222 96.4325 50.0585C95.8929 50.2757 95.2534 50.6454 95.2131 51.2989C95.4234 51.8928 95.8123 52.4202 96.2328 52.8792C96.8425 53.3417 97.5573 52.7425 98.1582 52.5288C98.1723 52.8897 98.2126 53.2541 98.1372 53.6098C97.852 54.8914 97.5318 56.165 97.1771 57.4291C96.853 58.7922 96.8583 60.4338 97.8429 61.5288C99.2568 62.8919 101.258 63.414 103.162 63.4946C105.552 63.5752 108.033 62.997 109.986 61.5586C111.5 60.2674 112.921 58.8027 113.884 57.0297C114.8 55.3933 115.281 53.4679 115.005 51.5932C114.885 50.7873 114.736 49.9166 114.15 49.3174C113.541 48.776 112.714 48.5728 111.936 48.4764C111 48.3661 109.946 48.4869 109.247 49.186C108.756 49.638 108.306 50.3773 108.64 51.0501ZM156.728 50.493C156.034 50.5806 155.328 50.6156 154.643 50.768C153.653 51.0046 152.933 52.075 153.094 53.0929C153.148 53.4258 153.404 53.7009 153.728 53.7973C154.413 53.99 155.13 53.9637 155.829 53.9129C155.163 56.3902 154.473 58.8833 154.168 61.443C154.124 62.3593 154.683 63.2651 155.534 63.5962C156.873 64.1218 158.348 63.9764 159.743 63.838C161.313 63.5962 162.917 63.1091 164.14 62.0334C164.636 61.5884 165.092 60.9559 164.981 60.2464C164.897 59.6489 164.266 59.3546 163.732 59.309C163.072 59.3353 162.663 59.973 162.027 60.0852C161.696 60.1763 161.321 59.938 161.218 59.6191C160.917 58.808 161.038 57.9267 161.202 57.0998C161.432 55.975 161.731 54.8502 162.257 53.827C163.133 53.8428 164.047 53.8936 164.871 53.5642C165.801 53.1788 166.106 51.856 165.566 51.0466C165.022 50.2705 163.967 50.4877 163.163 50.4474C163.347 49.5714 163.478 48.6551 163.347 47.7634C163.206 47.1046 162.516 46.8523 161.928 46.8208C160.684 46.7402 159.317 46.593 158.184 47.2255C157.167 47.9701 157.043 49.3594 156.729 50.493H156.728ZM210.913 52.9107C211.153 53.2646 211.153 53.7202 211.143 54.1371C211.038 55.7875 210.239 57.3083 209.233 58.5749C208.893 59.0059 208.384 59.3546 207.819 59.2898C207.294 59.2337 207.01 58.6608 207.019 58.1737C206.98 57.0752 207.334 56.0065 207.774 55.0131C208.235 54.1056 208.699 53.0824 209.624 52.5761C209.847 52.4893 210.091 52.4747 210.322 52.5344C210.554 52.5942 210.761 52.7252 210.913 52.909V52.9107ZM210.954 45.0986C210.183 45.4162 209.567 46.0231 209.239 46.7893C209.028 47.3324 209.408 47.9648 209.939 48.1225C210.36 48.2802 210.789 48.077 211.21 48.0051C211.434 47.9508 211.779 47.9351 211.863 48.2189C212.014 48.7305 212.049 49.2718 212.038 49.8097C212.033 50.0988 211.868 50.4334 211.565 50.4737C211.054 50.6559 210.584 50.316 210.144 50.1181C208.564 49.3297 206.579 49.3086 205.09 50.3108C203.75 51.2691 202.479 52.3834 201.565 53.771C200.936 54.7681 200.463 55.8551 200.161 56.9947C199.876 58.1229 199.711 59.3248 200.046 60.4636C200.216 61.5025 200.785 62.4959 201.696 63.0285C202.66 63.5594 203.799 63.414 204.85 63.3824C205.568 63.3369 206.355 63.3877 206.984 62.9725C207.8 62.4399 208.34 61.5131 209.295 61.1889C209.74 60.9769 210.349 61.1486 210.563 61.6147C210.735 62.0246 210.673 62.5117 210.934 62.8919C211.264 63.5138 212.059 63.5191 212.669 63.5138C213.908 63.3772 215.164 63.1547 216.297 62.5975C217.193 62.1771 218.158 61.7671 218.808 60.9857C219.372 60.3637 218.547 59.3248 217.823 59.5929C217.419 59.684 216.753 59.8977 216.618 59.3248C216.473 57.7795 216.804 56.2448 217.112 54.7398C217.422 53.2191 217.958 51.7614 218.282 50.2459C218.601 48.8235 218.809 47.3784 218.903 45.9238C218.943 45.3806 218.713 44.7377 218.149 44.5817C216.748 44.0701 215.213 44.0439 213.759 44.2611C212.795 44.4346 211.849 44.7079 210.955 45.0986H210.954ZM197.087 21.3309C196.216 23.8748 195.545 26.5291 195.611 29.2447C195.566 30.9109 196.081 32.5683 196.987 33.9523C198.206 35.6991 200.21 36.6715 202.21 37.1848C204.221 37.7559 206.33 37.579 208.394 37.6193C211.893 37.614 215.393 37.6964 218.892 37.6351C219.049 29.7727 219.035 21.9079 218.852 14.0461C216.408 14.0461 213.964 14.0461 211.518 14.0496V32.8626C209.508 33.0238 207.359 33.0956 205.519 32.1127C204.946 31.8387 204.456 31.4173 204.1 30.8916C203.21 29.7108 203.101 28.1445 203.199 26.7166C203.331 24.5336 204.1 22.4715 204.86 20.4497C205.705 18.2194 206.824 16.1117 207.93 14.0093C205.635 13.9182 203.334 13.9953 201.036 13.9585C200.631 13.9638 200.065 13.8884 199.89 14.3702C198.811 16.6295 197.874 18.9543 197.087 21.3309ZM167.956 37.5842H175.59V28.9469C175.614 27.2825 175.5 25.6181 175.665 23.9607C178.279 28.3284 180.819 32.7505 183.404 37.1375C183.568 37.3915 183.803 37.6351 184.129 37.6351C184.909 37.6999 185.693 37.6351 186.477 37.6508C188.067 37.6245 189.662 37.6859 191.253 37.6158C191.412 29.7563 191.398 21.8881 191.207 14.0304C188.688 13.969 186.158 13.8937 183.644 14.1267C183.644 18.4191 183.638 22.7133 183.644 27.0039C183.633 27.4209 183.693 27.8449 183.558 28.2513C180.849 23.5209 178.23 18.731 175.56 13.9795C173.019 13.9848 170.486 13.9795 167.951 13.9795C167.956 21.846 167.951 29.716 167.956 37.5842ZM140.446 37.6245H147.989C148.004 34.0224 147.929 30.4151 148.024 26.8129C150.715 26.8182 153.402 26.8182 156.093 26.8129C156.093 30.3993 156.088 33.9821 156.099 37.5632C158.627 37.6999 161.178 37.7104 163.702 37.5124V14.0601C161.168 13.9114 158.626 13.9249 156.093 14.1004C156.088 16.6584 156.088 19.218 156.093 21.7759C153.388 21.7759 150.688 21.7812 147.985 21.7759C147.989 19.1935 147.985 16.6146 147.969 14.0304H140.411C140.243 21.8943 140.255 29.7611 140.446 37.6245ZM125.432 37.6648H133.932C133.941 29.7668 133.936 21.8671 133.936 13.969C131.103 13.9638 128.268 13.9585 125.433 13.969V37.6648H125.432ZM111.975 19.4616C110.545 21.6866 108.805 23.6926 106.941 25.5568C106.531 25.9422 106.161 26.3872 105.662 26.6553C105.641 22.4347 105.657 18.2141 105.652 13.9953C103.067 13.9988 100.478 13.9988 97.8884 13.9953C97.7185 21.8828 97.7273 29.7773 97.927 37.6648C100.502 37.6596 103.081 37.6701 105.657 37.6596C105.652 34.9492 105.652 32.2389 105.646 29.5338C105.627 28.6823 105.641 27.8361 105.706 26.9899C108.327 30.1067 110.561 33.6475 111.696 37.6C114.86 37.6053 118.021 37.6 121.18 37.6C119.594 33.6878 117.315 30.1015 114.715 26.8077C115.734 25.6216 116.759 24.432 117.684 23.1705C118.99 21.3309 120.368 19.451 120.904 17.2172C121.18 16.1538 121.132 15.0483 121.115 13.9638C118.594 13.9585 116.069 13.9638 113.546 13.9585C113.611 15.9103 113.005 17.8252 111.975 19.4598V19.4616ZM28.4795 3.11365C29.7584 1.63671 31.7242 0.750198 33.6741 0.969198C35.5926 1.07081 37.3586 2.26568 38.373 3.89679C39.1684 5.21955 39.6222 6.7946 39.4768 8.35563C39.4119 9.82556 38.776 11.2131 37.8929 12.3537C37.6179 12.7129 37.2675 13.0825 37.3078 13.5748C37.3323 15.9611 37.292 18.3525 37.3428 20.744C42.3115 20.7388 47.2819 20.7388 52.2506 20.744C52.2063 22.9341 52.1596 25.1241 52.1104 27.314C47.1908 27.3193 42.2765 27.314 37.3586 27.314C37.3323 28.7542 37.4672 30.182 37.5233 31.6152C37.8036 36.7888 38.0086 41.966 38.3117 47.1344C38.5885 49.6065 39.0072 52.1907 40.4018 54.3001C41.1026 55.3267 42.2467 56.1222 43.5169 56.1029C45.0359 56.0854 46.4252 55.2865 47.6603 54.456C49.0164 53.2506 50.3462 52.0032 51.5901 50.6752C50.8805 49.4803 49.74 48.6183 48.5118 48.0367C49.9012 47.3832 51.3308 46.7857 52.5695 45.8642C56.4992 43.04 59.404 39.0542 61.9882 34.9948C62.8379 33.6422 63.6281 32.2547 64.4638 30.8863C65.1436 32.7557 65.5781 34.7022 65.9688 36.6504C66.7046 40.6537 67.0375 44.8095 66.2666 48.8321C65.9039 50.7768 65.2539 52.6725 64.1992 54.3439C63.0469 56.2311 61.3796 57.7501 59.3935 58.7221C58.6647 57.8549 57.9288 56.9876 57.2 56.1292C56.585 56.8825 56.1102 57.748 55.5198 58.5241C52.4812 62.6937 48.831 66.3811 44.6925 69.4619C41.5178 71.8691 38.1084 73.9312 34.5729 75.7393C34.1629 75.932 33.7793 76.2211 33.3132 76.2719C32.8892 76.2106 32.5283 75.9478 32.1481 75.7638C27.4598 73.318 22.8958 70.5323 18.9205 66.9898C15.2944 63.8465 12.1348 60.2025 9.53683 56.1677C8.65207 56.8983 8.0669 57.9022 7.27324 58.7169C6.024 58.0865 4.88743 57.2542 3.9094 56.2536C2.87787 55.1062 2.04423 53.7954 1.44259 52.3746C0.666124 50.4099 0.19921 48.3365 0.0585077 46.2286C-0.218308 41.2284 0.487748 36.1932 1.99272 31.4295C2.05228 31.2543 2.12236 31.0756 2.19244 30.8986C2.49028 31.3384 2.75659 31.8044 3.01588 32.2704C4.4296 34.7148 5.98207 37.0763 7.66569 39.3433C9.57537 41.8924 11.7706 44.2681 14.3899 46.0832C15.5742 46.8681 16.8742 47.441 18.1584 48.0279C16.9338 48.6306 15.7845 49.4873 15.0802 50.6927C16.5694 52.4447 18.2846 54.032 20.2783 55.1813C21.4294 55.9067 22.8993 56.3674 24.2326 55.9312C25.5939 55.4652 26.4436 54.1844 27.0376 52.9318C27.896 50.8153 28.3078 48.5237 28.3831 46.2444C28.6985 39.9424 29.0927 33.644 29.3222 27.3403C24.4025 27.3158 19.4847 27.3403 14.5651 27.3263C14.5143 25.1433 14.4599 22.948 14.4056 20.7598C19.3743 20.7405 24.343 20.7545 29.3116 20.7493C29.3782 18.4594 29.3169 16.1643 29.3519 13.8692C29.3975 13.3628 28.977 13.0177 28.6774 12.6848C27.2671 11.2044 26.6434 9.06694 26.8186 7.03988C26.9675 5.60149 27.6175 4.2542 28.4777 3.11365" fill="#FDFDFD"/>
</g>
</svg>
