<svg width="54" height="35" viewBox="0 0 34 35" fill="none" xmlns="http://www.w3.org/2000/svg">
<path d="M33.6762 32.2197L1.81436 0.357955C1.40016 -0.0562486 0.726809 -0.0562486 0.312606 0.357955C-0.101598 0.772158 -0.101598 1.4455 0.312606 1.85971L13.2612 14.8105C13.2145 14.8381 13.1572 14.8381 13.1168 14.8742L8.86856 18.5064C8.63278 18.7082 8.49684 19.0035 8.49684 19.3136V32.9717C8.49684 33.5579 8.97264 34.0337 9.5589 34.0337H13.8071C14.3934 34.0337 14.8692 33.5579 14.8692 32.9717V16.4184L16.9933 18.5425V32.9717C16.9933 33.5579 17.4691 34.0337 18.0554 34.0337H22.3036C22.8899 34.0337 23.3657 33.5579 23.3657 32.9717V24.9149L25.4898 27.039V32.9717C25.4898 33.5579 25.9656 34.0337 26.5519 34.0337H30.8001C31.2568 34.0337 31.6391 33.7427 31.7878 33.337L32.1723 33.7215C32.3804 33.9297 32.6523 34.0337 32.9242 34.0337C33.1961 34.0337 33.468 33.9297 33.6762 33.7236C34.0904 33.3073 34.0904 32.6361 33.6762 32.2197Z" fill="#C42F3A"/>
<path d="M22.7474 7.43113C22.3714 7.25696 21.9296 7.31856 21.6131 7.58832L17.3649 11.2206C17.1291 11.4224 16.9932 11.7176 16.9932 12.0277V12.5354L23.3655 18.9078V8.39548C23.3655 7.98128 23.1255 7.60319 22.7474 7.43113Z" fill="#C42F3A"/>
<path d="M31.2445 0.145385C30.8706 -0.0287927 30.4246 0.0306826 30.1102 0.30257L25.862 3.93481C25.6262 4.13661 25.4902 4.43186 25.4902 4.74198V21.0319L31.8626 27.4042V1.10974C31.8626 0.695532 31.6226 0.317439 31.2445 0.145385Z" fill="#C42F3A"/>
<path d="M5.75424 22.0025C5.37827 21.8284 4.93645 21.89 4.61996 22.1597L0.371721 25.792C0.135944 25.9938 0 26.289 0 26.5991V32.9715C0 33.5578 0.475803 34.0336 1.06206 34.0336H5.3103C5.89656 34.0336 6.37236 33.5578 6.37236 32.9715V22.9669C6.37236 22.5527 6.13021 22.1767 5.75424 22.0025Z" fill="#C42F3A"/>
</svg>
