<svg width="24" height="24" viewBox="0 0 24 24" fill="none" xmlns="http://www.w3.org/2000/svg"><path d="M2.961 14.272v-8.27c0-.461.372-.833.832-.833h8.267c.461 0 .833.372.833.833v8.273a.277.277 0 0 1-.277.276H3.237a.277.277 0 0 1-.276-.28zm6.678 2.834a1.725 1.725 0 1 1-3.449 0 1.725 1.725 0 0 1 3.45 0zm-.864 0a.865.865 0 0 0-1.728 0 .865.865 0 0 0 1.728 0zm-2.35-1.726H2.557a.277.277 0 0 0-.277.277v.842c0 .152.124.276.277.276h3.1c.08-.553.36-1.045.766-1.394zm12.247 1.726a1.725 1.725 0 1 1-3.45 0 1.725 1.725 0 0 1 3.45 0zm-.864 0a.865.865 0 0 0-1.729 0 .865.865 0 0 0 1.729 0zm3.914-1.45v.843a.277.277 0 0 1-.276.276h-2.247a2.283 2.283 0 0 0-2.255-1.95 2.283 2.283 0 0 0-2.256 1.95h-4.521a2.277 2.277 0 0 0-.77-1.398h4.29V7.444c0-.305.248-.556.556-.556h2.618c.737 0 1.427.365 1.84.979l1.69 2.5c.248.365.381.8.381 1.242v3.771h.674c.152 0 .276.124.276.277zm-2.815-5.222l-1.35-1.92a.277.277 0 0 0-.226-.117h-2.106a.277.277 0 0 0-.277.277v1.918c0 .153.124.277.277.277h3.457c.225 0 .355-.254.225-.435z" fill="#000"/><path d="M23.06 7.33a11.992 11.992 0 0 0-2.57-3.816 12.062 12.062 0 0 0-3.816-2.57A11.938 11.938 0 0 0 12 0a11.991 11.991 0 0 0-8.486 3.514A11.991 11.991 0 0 0 0 12a11.992 11.992 0 0 0 3.514 8.486 11.94 11.94 0 0 0 3.816 2.57c1.48.626 3.053.944 4.67.944s3.19-.318 4.67-.944a11.992 11.992 0 0 0 3.816-2.57 11.905 11.905 0 0 0 2.57-3.816c.626-1.48.944-3.053.944-4.67s-.314-3.19-.94-4.67zM1.906 12c0-2.697 1.049-5.233 2.958-7.139A10.032 10.032 0 0 1 12 1.906c2.43 0 4.728.852 6.554 2.418L4.321 18.558A10.035 10.035 0 0 1 1.906 12zm17.233 7.139A10.031 10.031 0 0 1 12 22.097c-2.43 0-4.728-.852-6.554-2.418L19.679 5.446A10.024 10.024 0 0 1 22.097 12a10.044 10.044 0 0 1-2.958 7.139z" fill="#ED1C24"/></svg>