<svg xmlns="http://www.w3.org/2000/svg" width="28" height="38" viewBox="0 0 28 38">
    <g fill="none" fill-rule="nonzero">
        <path fill="#FFD6CF" d="M15.034 9.702l.416-2.795-2.317-.147-.462 2.544z"></path>
        <path fill="#831232" d="M15.215 8.675l.235-1.768-2.301-.24-.297 1.605z" opacity=".32"></path>
        <path fill="#998269" d="M24.943 6.242h1.563V19.65h-1.563z"></path>
        <path fill="#998269" d="M24.943 16.994h1.601v21.001h-1.601z"></path>
        <path fill="#836F5A" d="M24.943 16.134h1.563v3.516h-1.563z"></path>
        <path fill="#347642" d="M1.556 31.532l5.256-5.014 1.895-6.462h2.9L9.52 27.614a1.428 1.428 0 0 1-.286.546c-.049.07-.103.138-.166.2l-6.16 5.935-1.351-2.763z"></path>
        <path fill="#2B5448" d="M8.707 20.056l-.731 2.494h2.943l.689-2.494z" opacity=".53"></path>
        <path fill="#FFD6CF" d="M17.305.661a1.826 1.826 0 0 0-1.277-.583L13.873.001a1.834 1.834 0 0 0-1.9 1.762l-.136 3.76c-.018.486.157.952.491 1.31.335.358.788.565 1.277.583l2.156.077.067.001c.464 0 .905-.173 1.248-.491.36-.333.568-.785.585-1.272l.136-3.76a1.811 1.811 0 0 0-.492-1.31z"></path>
        <path fill="#AA6518" d="M7.023 6.717l-1.822-.43a.337.337 0 0 0-.41.267l-.987 5.402a.453.453 0 0 0 .345.522l1.788.411 1.086-6.172z"></path>
        <path fill="#FFB057" d="M8.525 16.825l-2.97-.518a.739.739 0 0 1-.601-.853L6.789 5.023a.741.741 0 0 1 .856-.599l2.97.519c.401.07.672.453.601.852L9.381 16.227a.741.741 0 0 1-.856.598z"></path>
        <path fill="#AA6518" d="M10.616 4.943l-.115-.02-1.8 10.226a.741.741 0 0 1-.856.599l-2.855-.499-.036.205c-.07.399.2.783.6.853l2.971.518c.4.07.786-.2.856-.598l1.836-10.432a.74.74 0 0 0-.601-.852z" opacity=".48"></path>
        <path fill="#C71C4B" d="M17.653 1.178a1.838 1.838 0 0 0-1.618-1.1L13.88.001a1.834 1.834 0 0 0-1.9 1.762l-.081 2.225c.883-.16 4.015-.852 5.754-2.81z"></path>
        <path fill="#71CE93" d="M15.98 11.87a2.454 2.454 0 0 0-1.995-2.831L11.474 8.6c-.4-.07-.786.2-.856.599l-1.91 10.857 2.39.417c.013.028.026.056.042.083l3.997 7.027v7.75l2.902.336v-8.371c0-.088-.009-.174-.024-.258a1.425 1.425 0 0 0-.186-.588l-3.372-5.928.93-5.284.593-3.37z"></path>
        <path fill="#71CE93" d="M11.917 11.783l5.519 5.497.035-.035.002.047 6.938-.298-.116-2.675-5.78.248-4.375-4.176z"></path>
        <path fill="#D8EDDE" d="M4.109 37.058L.058 33.024l1.498-1.492 3.073 3.866a.908.908 0 0 1-.067 1.206l-.453.454z"></path>
        <path fill="#FFD6CF" d="M24.295 14.319l3.642-.184-1.057 2.798-2.47.061z"></path>
        <path fill="#3F8E50" d="M18.015 27.04a1.425 1.425 0 0 0-.186-.588l-3.371-5.928.359-2.041-5.664-.959-.446 2.532 2.39.417c.014.028.027.056.043.083l3.997 7.027v7.75l2.902.732v-8.767c0-.088-.009-.174-.024-.258z"></path>
        <ellipse cx="14.18" cy="3.747" fill="#FFD6CF" rx="1.078" ry="1.074"></ellipse>
        <path fill="#D8EDDE" d="M21.866 37.443h-5.73v-2.11l4.919.57c.46.053.807.44.809.9l.002.64z"></path>
    </g>
</svg>
