<svg width="26" height="36" viewBox="0 0 26 36" fill="none" xmlns="http://www.w3.org/2000/svg">
<path d="M24.9 15.8L25.9 13.2L24.6 13.3V5.9H23.2V13.4H22.6L17.2 13.6L14.8 11.3V11.1C14.9 10.2 14.6 9.4 13.9 8.9L14 8.1L14.1 7H14.5C14.5 7 14.5 7 14.6 7C15 7 15.4 6.8 15.8 6.5C16.1 6.2 16.3 5.8 16.3 5.3L16.4 1.8C16.4 1.5 16.4 1.3 16.3 1.1C16.3 1.1 16.3 1 16.2 1C16.1 0.9 16.1 0.8 16 0.7C16 0.7 16 0.7 16 0.6C15.7 0.3 15.3 0.1 14.8 0.1L12.8 0C11.9 0 11.1 0.7 11 1.6L10.9 5.1C10.9 5.6 11 6 11.4 6.3C11.6 6.5 11.8 6.6 12.1 6.7L11.9 7.6L11.8 8.1H10.6C10.2 8 9.9 8.3 9.8 8.7L10.4 5.5C10.5 5.1 10.2 4.8 9.8 4.7L7 4.2C6.7 4.1 6.3 4.4 6.2 4.8L6 6.2L4.8 5.9C4.6 5.9 4.5 6 4.4 6.1L3.5 11.1C3.5 11.3 3.6 11.5 3.8 11.6L5 11.9L4.6 14.2V14.4C4.5 14.8 4.8 15.1 5.2 15.2L8 15.7C8.4 15.8 8.7 15.5 8.8 15.1L8.6 16.3L8 18.7L7.3 21L6.2 24.7L1.3 29.3L0 30.7L3.8 34.4L4.2 34.1C4.5 33.8 4.5 33.3 4.3 33L3.1 31.5L8.4 26.4C8.5 26.3 8.5 26.3 8.6 26.2C8.7 26.1 8.8 25.9 8.9 25.7L10.6 19.5L14.1 25.7V32.9L15 33.1V34.8H20.3V34.2C20.3 33.8 20 33.4 19.5 33.4L16.7 33.1V25.4C16.7 25.3 16.7 25.2 16.7 25.2C16.7 25 16.6 24.8 16.5 24.7L13.4 19.1L13.7 17.2L14.2 14.2L16.1 16.1L22.5 15.8H23V18.3V35.3H24.5V15.9L24.9 15.8Z" fill="#2C4684"/>
</svg>
