<svg width="54" height="45" viewBox="0 0 54 45" fill="none" xmlns="http://www.w3.org/2000/svg">
<path d="M27.2021 9.68357L53.9743 4.8418V45H27.2021V9.68357Z" fill="#2C4684"/>
<path d="M10.181 42.2305V36.7253H8.35976C6.05406 36.7253 4.17823 34.8271 4.17823 32.4939C4.17823 30.1607 6.05406 28.2626 8.35976 28.2626H14.2334L16.1659 19.2819C16.4035 18.1776 17.0519 17.233 17.9916 16.622C18.9314 16.0111 20.0499 15.8073 21.1413 16.0476C23.3942 16.544 24.828 18.8026 24.3375 21.0824L20.9715 36.7253H15.8568V42.2305H33.9707V36.7253H32.1495C29.8438 36.7253 27.968 34.8271 27.968 32.4939C27.968 30.1607 29.8438 28.2626 32.1495 28.2626H38.0232L39.9557 19.2819C40.4463 17.0021 42.6785 15.5511 44.9312 16.0476C47.184 16.544 48.6178 18.8026 48.1272 21.0824L44.7613 36.7253H39.6466V42.2305H49.5576V45H2.84876V42.2305H10.181Z" fill="#2C4684"/>
<path d="M37.9895 36.7253V45H43.6653V36.7253H48.78L52.146 21.0824C52.6365 18.8026 51.2028 16.544 48.9499 16.0476C46.6972 15.5511 44.465 17.0021 43.9744 19.2819L42.0419 28.2626H36.1683C33.8626 28.2626 31.9867 30.1607 31.9867 32.4939C31.9867 34.8271 33.8626 36.7253 36.1683 36.7253H37.9895Z" fill="white"/>
<path d="M8.54414 4.5773C6.35323 4.5773 4.57715 6.35338 4.57715 8.54429C4.57715 10.7352 6.35323 12.5113 8.54414 12.5113C10.7341 12.5089 12.5087 10.7342 12.5111 8.54429C12.5111 6.35338 10.7351 4.5773 8.54414 4.5773Z" fill="#2C4684"/>
<path d="M8.54489 2.74639C8.88195 2.74639 9.1552 2.47314 9.1552 2.13608V0.610317C9.1552 0.273251 8.88195 0 8.54489 0C8.20782 0 7.93457 0.273251 7.93457 0.610317V2.13608C7.93457 2.47314 8.20782 2.74639 8.54489 2.74639Z" fill="#2C4684"/>
<path d="M8.54489 14.3422C8.20782 14.3422 7.93457 14.6155 7.93457 14.9525V16.4783C7.93457 16.8154 8.20782 17.0886 8.54489 17.0886C8.88195 17.0886 9.1552 16.8154 9.1552 16.4783V14.9525C9.1552 14.6155 8.88195 14.3422 8.54489 14.3422Z" fill="#2C4684"/>
<path d="M3.3943 4.2568C3.63581 4.48746 4.01596 4.48746 4.25748 4.2568C4.37196 4.14235 4.43627 3.98709 4.43627 3.82521C4.43627 3.66334 4.37196 3.50807 4.25748 3.39363L3.17852 2.31487C3.06411 2.20039 2.90888 2.13608 2.74704 2.13608C2.58519 2.13608 2.42996 2.20039 2.31552 2.31487C2.20103 2.42929 2.13672 2.58452 2.13672 2.7464C2.13672 2.90827 2.20103 3.06347 2.31552 3.17792L3.3943 4.2568Z" fill="#2C4684"/>
<path d="M2.74639 8.54431C2.74639 8.20724 2.47314 7.93399 2.13608 7.93399H0.610317C0.273384 7.93432 0.000333762 8.20737 0 8.54431C0.000333762 8.88124 0.273384 9.15429 0.610317 9.15462H2.13608C2.47314 9.15462 2.74639 8.88137 2.74639 8.54431Z" fill="#2C4684"/>
<path d="M3.98426 12.6729C3.77332 12.6165 3.54836 12.6771 3.39427 12.8318L2.31552 13.9107C2.20103 14.0251 2.13672 14.1804 2.13672 14.3422C2.13672 14.5041 2.20103 14.6593 2.31552 14.7738C2.55696 15.0044 2.93708 15.0044 3.17852 14.7738L4.25744 13.695C4.41211 13.5409 4.47272 13.316 4.41635 13.105C4.35997 12.8941 4.1952 12.7293 3.98426 12.6729Z" fill="#2C4684"/>
<path d="M13.6941 12.8318C13.54 12.6771 13.3151 12.6165 13.1041 12.6729C12.8932 12.7293 12.7285 12.894 12.6721 13.105C12.6157 13.3159 12.6763 13.5408 12.831 13.6949L13.9099 14.7737C14.1513 15.0044 14.5315 15.0044 14.7729 14.7737C14.8874 14.6593 14.9517 14.504 14.9517 14.3422C14.9517 14.1803 14.8874 14.0251 14.7729 13.9107L13.6941 12.8318Z" fill="#2C4684"/>
<path d="M16.4779 7.93399H14.9521C14.615 7.93399 14.3418 8.20724 14.3418 8.54431C14.3418 8.88137 14.615 9.15462 14.9521 9.15462H16.4779C16.8149 9.15462 17.0882 8.88137 17.0882 8.54431C17.0882 8.20724 16.8149 7.93399 16.4779 7.93399Z" fill="#2C4684"/>
<path d="M13.6943 4.25679L14.7731 3.17787C14.9273 3.0237 14.9875 2.79902 14.931 2.58841C14.8746 2.37781 14.7101 2.21333 14.4995 2.15689C14.2889 2.10045 14.0642 2.16066 13.9101 2.31483L12.8311 3.39358C12.7167 3.50803 12.6523 3.66329 12.6523 3.82517C12.6523 3.98704 12.7167 4.14231 12.8311 4.25675C13.0727 4.48745 13.4529 4.48745 13.6943 4.25679Z" fill="#2C4684"/>
</svg>
