<svg width="64" height="57" viewBox="0 0 64 57" fill="none" xmlns="http://www.w3.org/2000/svg">
<path d="M57.0632 17.6101V23.1211L57.3292 23.7711L57.0632 23.8791V33.5961L60.7282 32.1011L61.5322 34.0681C61.8862 34.9381 61.4872 35.9271 60.6422 36.2731L16.4052 54.3301C15.5682 54.6721 14.5742 54.2261 14.2272 53.3781L13.4242 51.4101L47.2782 37.5911H23.4752L10.0252 43.0811L7.78418 37.5901H5.53418L12.3002 54.1641C12.8872 55.6021 14.2592 56.5311 15.7972 56.5311C16.2772 56.5311 16.7482 56.4391 17.1942 56.2571L61.4302 38.2001C63.3382 37.4201 64.2492 35.2141 63.4602 33.2801L57.0632 17.6101Z" fill="white"/>
<path d="M44.8659 22.8319V21.4929L44.0889 22.8319H44.8659Z" fill="white"/>
<path d="M18.0113 21.4929L17.2363 22.8319H18.0113V21.4929Z" fill="white"/>
<path d="M23.0978 23.41C23.1758 23.308 23.2138 23.176 23.2138 23.012C23.2138 22.831 23.1698 22.692 23.0808 22.595C22.9918 22.498 22.8838 22.45 22.7548 22.45C22.6508 22.45 22.5578 22.482 22.4788 22.545C22.3588 22.638 22.2988 22.788 22.2988 22.995C22.2988 23.162 22.3438 23.299 22.4338 23.404C22.5238 23.51 22.6388 23.563 22.7768 23.563C22.9128 23.563 23.0198 23.511 23.0978 23.41Z" fill="white"/>
<path d="M8.94964 30.9291C9.06564 30.9291 9.17464 30.8961 9.27364 30.8271C9.37264 30.7611 9.42364 30.6381 9.42664 30.4571V30.2581C9.39164 30.2791 9.35764 30.2971 9.32264 30.3101C9.28864 30.3231 9.23964 30.3341 9.17864 30.3461L9.05664 30.3691C8.94164 30.3881 8.85964 30.4131 8.80864 30.4421C8.72464 30.4911 8.68164 30.5671 8.68164 30.6701C8.68164 30.7621 8.70764 30.8261 8.75864 30.8671C8.81164 30.9091 8.87564 30.9291 8.94964 30.9291Z" fill="white"/>
<path d="M30.0701 23.559C30.2091 23.559 30.3201 23.517 30.3991 23.433C30.4781 23.349 30.5181 23.229 30.5181 23.077C30.5181 22.919 30.4771 22.798 30.3971 22.716C30.3151 22.633 30.2071 22.593 30.0701 22.593C29.9331 22.593 29.8241 22.634 29.7431 22.716C29.6621 22.798 29.6221 22.918 29.6221 23.077C29.6221 23.23 29.6621 23.349 29.7411 23.433C29.8201 23.517 29.9311 23.559 30.0701 23.559Z" fill="white"/>
<path d="M14.7081 29.592C14.5701 29.592 14.4641 29.63 14.3881 29.708C14.3121 29.786 14.2651 29.893 14.2461 30.026H15.1681C15.1591 29.882 15.1111 29.775 15.0261 29.701C14.9401 29.628 14.8341 29.592 14.7081 29.592Z" fill="white"/>
<path d="M32.5075 21.355C32.4035 21.355 32.3145 21.384 32.2395 21.442C32.1225 21.533 32.0635 21.689 32.0635 21.908C32.0635 22.092 32.1015 22.23 32.1765 22.323C32.2515 22.415 32.3665 22.461 32.5215 22.461C32.6075 22.461 32.6855 22.437 32.7595 22.388C32.8985 22.3 32.9675 22.145 32.9675 21.928C32.9675 21.752 32.9275 21.613 32.8455 21.51C32.7625 21.406 32.6505 21.355 32.5075 21.355Z" fill="white"/>
<path d="M30.0688 22.1239C30.1938 22.1239 30.2898 22.0879 30.3578 22.0159C30.4248 21.9439 30.4598 21.8529 30.4598 21.7389C30.4598 21.6159 30.4248 21.5199 30.3578 21.4499C30.2898 21.3799 30.1928 21.3459 30.0688 21.3459C29.9458 21.3459 29.8488 21.3799 29.7798 21.4499C29.7098 21.5199 29.6758 21.6159 29.6758 21.7389C29.6758 21.8509 29.7098 21.9439 29.7798 22.0159C29.8488 22.0889 29.9458 22.1239 30.0688 22.1239Z" fill="white"/>
<path d="M21.2568 30.37C21.1428 30.389 21.0598 30.414 21.0108 30.443C20.9268 30.492 20.8838 30.568 20.8838 30.671C20.8838 30.763 20.9098 30.827 20.9608 30.868C21.0118 30.909 21.0758 30.93 21.1488 30.93C21.2658 30.93 21.3738 30.897 21.4728 30.828C21.5718 30.761 21.6228 30.639 21.6258 30.458V30.259C21.5918 30.28 21.5578 30.298 21.5218 30.311C21.4878 30.324 21.4388 30.335 21.3778 30.347L21.2568 30.37Z" fill="white"/>
<path d="M30.247 30.37C30.132 30.388 30.05 30.414 30 30.443C29.916 30.492 29.873 30.568 29.873 30.671C29.873 30.763 29.899 30.827 29.95 30.868C30.001 30.909 30.065 30.93 30.139 30.93C30.255 30.93 30.364 30.897 30.463 30.828C30.562 30.761 30.613 30.639 30.616 30.458V30.259C30.582 30.28 30.547 30.298 30.512 30.311C30.478 30.324 30.429 30.335 30.368 30.347L30.247 30.37Z" fill="white"/>
<path d="M35.5776 29.708C35.5006 29.786 35.4546 29.893 35.4346 30.026H36.3576C36.3476 29.882 36.2986 29.775 36.2136 29.701C36.1276 29.628 36.0226 29.592 35.8966 29.592C35.7586 29.592 35.6526 29.63 35.5776 29.708Z" fill="white"/>
<path d="M49.6313 23.563C49.7673 23.563 49.8733 23.511 49.9513 23.41C50.0303 23.308 50.0683 23.176 50.0683 23.012C50.0683 22.831 50.0233 22.692 49.9343 22.595C49.8463 22.498 49.7383 22.45 49.6083 22.45C49.5043 22.45 49.4113 22.482 49.3333 22.545C49.2133 22.638 49.1533 22.788 49.1533 22.995C49.1533 23.162 49.1973 23.299 49.2883 23.404C49.3783 23.51 49.4943 23.563 49.6313 23.563Z" fill="white"/>
<path d="M5.30866 23.274C5.36666 23.463 5.48766 23.559 5.66866 23.559C5.84966 23.559 5.96866 23.464 6.02566 23.274C6.07466 23.112 6.09766 22.874 6.10566 22.588C6.10666 22.541 6.11166 22.505 6.11166 22.455C6.11166 22.081 6.08366 21.803 6.02766 21.623C5.97166 21.443 5.85266 21.353 5.67066 21.353C5.48866 21.353 5.36966 21.442 5.31066 21.623C5.25066 21.803 5.22266 22.081 5.22266 22.455C5.22266 22.639 5.23066 22.8 5.24666 22.939C5.25766 23.07 5.27866 23.183 5.30866 23.274Z" fill="white"/>
<path d="M2.176 35.309C2.66 35.538 3.196 35.677 3.765 35.677H4.752H7.002H28.162H51.965H51.993C53.009 35.677 53.928 35.264 54.607 34.599C55.313 33.905 55.758 32.938 55.758 31.864V24.413V19.929V14.416V3.814C55.758 2.74 55.313 1.772 54.607 1.079C53.927 0.414 53.008 0 51.993 0H3.766C1.689 0 0 1.712 0 3.814V31.864C0 33.388 0.895 34.699 2.176 35.309ZM4.596 22.455C4.596 21.942 4.676 21.545 4.835 21.267C4.994 20.988 5.271 20.849 5.668 20.849C6.064 20.849 6.342 20.989 6.501 21.267C6.646 21.521 6.717 21.884 6.729 22.332C6.73 22.375 6.74 22.408 6.74 22.454C6.74 22.967 6.66 23.362 6.501 23.639C6.342 23.916 6.064 24.055 5.668 24.055C5.272 24.055 4.994 23.917 4.835 23.639C4.761 23.511 4.709 23.351 4.669 23.173C4.623 22.966 4.596 22.73 4.596 22.455ZM33.738 10.003C33.738 7.169 36.046 4.862 38.88 4.862C39.997 4.862 41.026 5.231 41.87 5.839C42.747 5.138 43.844 4.701 45.051 4.701C46.086 4.701 47.047 5.014 47.854 5.546C48.521 5.984 49.063 6.579 49.464 7.27C49.902 8.025 50.172 8.89 50.172 9.824C50.172 12.648 47.874 14.946 45.051 14.946C43.944 14.946 42.926 14.585 42.088 13.986C41.205 14.698 40.1 15.144 38.88 15.144C37.22 15.144 35.759 14.341 34.819 13.118C34.393 12.567 34.08 11.935 33.907 11.24C33.806 10.842 33.738 10.432 33.738 10.003ZM32.77 29.769C32.724 29.669 32.636 29.621 32.504 29.621C32.35 29.621 32.248 29.67 32.195 29.769C32.166 29.825 32.153 29.91 32.153 30.021V31.254H31.609V29.208H32.13V29.507C32.196 29.401 32.259 29.325 32.318 29.28C32.422 29.2 32.556 29.159 32.722 29.159C32.877 29.159 33.005 29.192 33.102 29.262C33.178 29.325 33.239 29.408 33.278 29.509C33.349 29.388 33.435 29.301 33.54 29.243C33.651 29.186 33.773 29.159 33.909 29.159C33.999 29.159 34.089 29.177 34.176 29.211C34.264 29.247 34.343 29.308 34.414 29.396C34.471 29.468 34.512 29.555 34.53 29.66C34.543 29.728 34.549 29.829 34.549 29.963L34.545 31.255H33.997V29.949C33.997 29.872 33.983 29.808 33.958 29.758C33.911 29.664 33.824 29.615 33.696 29.615C33.547 29.615 33.445 29.677 33.388 29.8C33.36 29.864 33.345 29.944 33.345 30.034V31.255H32.805V30.034C32.807 29.913 32.795 29.824 32.77 29.769ZM32.811 22.855C32.697 22.923 32.556 22.958 32.389 22.958C32.142 22.958 31.923 22.873 31.731 22.702C31.539 22.531 31.443 22.285 31.443 21.964C31.443 21.631 31.539 21.36 31.732 21.154C31.924 20.947 32.173 20.844 32.481 20.844C32.955 20.844 33.279 21.053 33.455 21.472C33.556 21.709 33.604 22.022 33.604 22.409C33.604 22.785 33.557 23.098 33.46 23.349C33.276 23.828 32.941 24.067 32.453 24.067C32.219 24.067 32.01 23.998 31.825 23.86C31.639 23.721 31.532 23.52 31.505 23.257H32.113C32.128 23.348 32.167 23.422 32.229 23.48C32.291 23.538 32.375 23.565 32.481 23.565C32.681 23.565 32.823 23.454 32.904 23.23C32.949 23.107 32.976 22.929 32.987 22.692C32.934 22.765 32.875 22.818 32.811 22.855ZM29.158 21.999C29.114 21.882 29.091 21.773 29.091 21.672C29.091 21.445 29.176 21.253 29.346 21.093C29.516 20.934 29.757 20.855 30.068 20.855C30.378 20.855 30.619 20.934 30.79 21.093C30.961 21.252 31.045 21.445 31.045 21.672C31.045 21.773 31.022 21.882 30.977 21.999C30.933 22.115 30.834 22.216 30.684 22.302C30.837 22.387 30.953 22.501 31.031 22.642C31.108 22.784 31.148 22.941 31.148 23.116C31.148 23.378 31.051 23.601 30.857 23.784C30.664 23.967 30.393 24.059 30.045 24.059C29.697 24.059 29.434 23.967 29.255 23.784C29.076 23.601 28.986 23.378 28.986 23.116C28.986 22.942 29.026 22.784 29.105 22.642C29.184 22.501 29.298 22.394 29.45 22.323C29.301 22.224 29.203 22.116 29.158 21.999ZM30.53 29.634C30.47 29.602 30.384 29.585 30.269 29.585C30.141 29.585 30.049 29.618 29.997 29.68C29.958 29.726 29.934 29.789 29.921 29.868H29.403C29.415 29.689 29.465 29.542 29.554 29.427C29.696 29.247 29.94 29.156 30.286 29.156C30.511 29.156 30.711 29.201 30.887 29.289C31.062 29.379 31.149 29.547 31.149 29.794V30.734C31.149 30.798 31.15 30.878 31.153 30.971C31.157 31.04 31.168 31.088 31.185 31.114C31.203 31.138 31.229 31.16 31.265 31.177V31.255H30.682C30.665 31.213 30.655 31.175 30.649 31.138C30.643 31.102 30.637 31.061 30.634 31.014C30.559 31.095 30.474 31.163 30.377 31.219C30.262 31.286 30.13 31.32 29.983 31.32C29.796 31.32 29.642 31.266 29.521 31.162C29.399 31.056 29.338 30.906 29.338 30.712C29.338 30.46 29.436 30.278 29.632 30.165C29.739 30.103 29.898 30.061 30.106 30.034L30.289 30.012C30.389 29.998 30.46 29.984 30.504 29.965C30.581 29.933 30.619 29.882 30.619 29.813C30.618 29.724 30.588 29.665 30.53 29.634ZM28.386 29.759C28.334 29.654 28.234 29.601 28.089 29.601C27.908 29.601 27.785 29.678 27.717 29.832C27.682 29.913 27.665 30.017 27.665 30.144V31.253H27.128V29.207H27.647V29.506C27.715 29.402 27.78 29.324 27.841 29.279C27.95 29.196 28.091 29.155 28.259 29.155C28.47 29.155 28.642 29.21 28.776 29.322C28.911 29.432 28.978 29.617 28.978 29.873V31.254H28.429V30.008C28.429 29.9 28.416 29.817 28.386 29.759ZM25.409 30.845C25.431 30.866 25.495 30.875 25.605 30.875C25.622 30.875 25.639 30.875 25.658 30.875C25.676 30.873 25.694 30.873 25.712 30.871V31.272L25.458 31.281C25.205 31.289 25.032 31.245 24.939 31.15C24.879 31.088 24.848 30.993 24.848 30.865V29.603H24.562V29.223H24.848V28.65H25.379V29.223H25.712V29.603H25.379V30.687C25.377 30.772 25.387 30.824 25.409 30.845ZM25.514 22.586C25.427 22.778 25.348 23.015 25.277 23.293C25.207 23.571 25.172 23.801 25.172 23.98H24.538C24.557 23.422 24.74 22.844 25.087 22.241C25.312 21.868 25.5 21.608 25.651 21.461H24.102L24.11 20.912H26.305V21.391C26.213 21.48 26.086 21.641 25.923 21.872C25.76 22.101 25.623 22.339 25.514 22.586ZM16.781 23.31V22.777L17.924 20.891H18.611V22.833H18.962V23.311H18.61V23.98H18.012V23.311L16.781 23.31ZM18.179 28.482H18.758V30.755H20.143V31.254H18.179V28.482ZM19.54 23.822C19.351 23.663 19.244 23.438 19.223 23.147H19.831C19.855 23.28 19.902 23.382 19.97 23.454C20.038 23.526 20.137 23.562 20.268 23.562C20.419 23.562 20.535 23.508 20.614 23.402C20.694 23.297 20.733 23.162 20.733 23.001C20.733 22.843 20.695 22.708 20.622 22.599C20.548 22.49 20.432 22.435 20.275 22.435C20.201 22.435 20.136 22.444 20.082 22.463C19.986 22.497 19.914 22.561 19.865 22.653L19.317 22.627L19.535 20.91H21.245V21.429H19.975L19.864 22.108C19.959 22.046 20.031 22.005 20.085 21.986C20.173 21.953 20.281 21.937 20.408 21.937C20.665 21.937 20.889 22.023 21.08 22.196C21.271 22.369 21.366 22.619 21.366 22.95C21.366 23.237 21.273 23.493 21.09 23.72C20.906 23.946 20.631 24.058 20.263 24.058C19.972 24.06 19.729 23.981 19.54 23.822ZM21.541 29.634C21.481 29.602 21.395 29.585 21.281 29.585C21.153 29.585 21.061 29.618 21.008 29.68C20.969 29.726 20.944 29.789 20.932 29.868H20.415C20.427 29.689 20.477 29.542 20.566 29.427C20.708 29.247 20.953 29.156 21.298 29.156C21.523 29.156 21.723 29.201 21.899 29.289C22.074 29.379 22.162 29.547 22.162 29.794V30.734C22.162 30.798 22.163 30.878 22.166 30.971C22.17 31.04 22.181 31.088 22.198 31.114C22.216 31.138 22.242 31.16 22.278 31.177V31.255H21.695C21.679 31.213 21.668 31.175 21.661 31.138C21.655 31.102 21.65 31.061 21.647 31.014C21.573 31.095 21.486 31.163 21.39 31.219C21.274 31.286 21.143 31.32 20.996 31.32C20.809 31.32 20.655 31.266 20.533 31.162C20.411 31.056 20.351 30.906 20.351 30.712C20.351 30.46 20.449 30.278 20.645 30.165C20.752 30.103 20.911 30.061 21.119 30.034L21.303 30.012C21.403 29.998 21.474 29.984 21.517 29.965C21.592 29.928 21.631 29.877 21.631 29.81C21.629 29.724 21.6 29.665 21.541 29.634ZM21.902 23.569C21.757 23.313 21.685 22.984 21.685 22.578C21.685 22.341 21.695 22.148 21.715 21.999C21.751 21.734 21.82 21.514 21.923 21.338C22.011 21.188 22.128 21.067 22.271 20.976C22.414 20.884 22.586 20.838 22.786 20.838C23.075 20.838 23.305 20.912 23.477 21.06C23.649 21.208 23.745 21.405 23.767 21.651H23.16C23.16 21.601 23.141 21.546 23.101 21.486C23.036 21.389 22.936 21.34 22.803 21.34C22.604 21.34 22.462 21.451 22.379 21.674C22.333 21.797 22.302 21.978 22.284 22.219C22.36 22.129 22.448 22.063 22.548 22.022C22.648 21.98 22.762 21.96 22.891 21.96C23.167 21.96 23.393 22.054 23.569 22.241C23.745 22.429 23.834 22.668 23.834 22.959C23.834 23.25 23.748 23.505 23.575 23.727C23.402 23.949 23.133 24.06 22.768 24.06C22.377 24.06 22.088 23.897 21.902 23.569ZM23.76 30.584C23.71 30.553 23.523 30.499 23.198 30.423C22.966 30.364 22.802 30.292 22.707 30.206C22.612 30.12 22.564 29.997 22.564 29.838C22.564 29.648 22.638 29.485 22.787 29.349C22.936 29.213 23.146 29.144 23.415 29.144C23.671 29.144 23.88 29.195 24.041 29.298C24.203 29.401 24.295 29.575 24.319 29.826H23.783C23.776 29.759 23.756 29.703 23.725 29.663C23.665 29.591 23.565 29.555 23.424 29.555C23.307 29.555 23.224 29.574 23.174 29.609C23.124 29.646 23.099 29.689 23.099 29.738C23.099 29.8 23.126 29.844 23.178 29.871C23.231 29.9 23.417 29.949 23.737 30.019C23.951 30.07 24.111 30.145 24.217 30.248C24.322 30.351 24.376 30.478 24.376 30.633C24.376 30.836 24.299 31.001 24.148 31.13C23.997 31.258 23.762 31.322 23.446 31.322C23.123 31.322 22.884 31.255 22.731 31.118C22.577 30.982 22.5 30.809 22.5 30.598H23.044C23.056 30.693 23.08 30.76 23.118 30.8C23.184 30.873 23.308 30.908 23.489 30.908C23.595 30.908 23.679 30.892 23.741 30.861C23.803 30.831 23.835 30.783 23.835 30.72C23.835 30.663 23.811 30.616 23.76 30.584ZM14.446 30.813C14.529 30.864 14.626 30.89 14.742 30.89C14.864 30.89 14.963 30.859 15.04 30.796C15.082 30.763 15.118 30.715 15.15 30.653H15.697C15.682 30.775 15.616 30.898 15.497 31.024C15.314 31.223 15.057 31.323 14.726 31.323C14.453 31.323 14.212 31.239 14.004 31.071C13.796 30.903 13.691 30.63 13.691 30.251C13.691 29.896 13.785 29.624 13.974 29.434C14.162 29.246 14.406 29.151 14.707 29.151C14.885 29.151 15.046 29.183 15.189 29.247C15.332 29.309 15.45 29.411 15.543 29.55C15.627 29.672 15.681 29.814 15.707 29.973C15.722 30.069 15.728 30.204 15.725 30.381H14.232C14.239 30.584 14.312 30.729 14.446 30.813ZM13.951 21.704C13.951 21.888 13.897 22.042 13.788 22.168C13.72 22.247 13.648 22.3 13.574 22.329C13.63 22.329 13.709 22.376 13.813 22.473C13.969 22.618 14.046 22.814 14.046 23.065C14.046 23.327 13.955 23.559 13.773 23.759C13.591 23.958 13.321 24.057 12.965 24.057C12.526 24.057 12.22 23.913 12.048 23.626C11.958 23.473 11.908 23.272 11.898 23.026H12.498C12.498 23.15 12.518 23.253 12.557 23.334C12.631 23.484 12.766 23.559 12.962 23.559C13.081 23.559 13.186 23.518 13.275 23.436C13.364 23.353 13.408 23.236 13.408 23.081C13.408 22.876 13.325 22.74 13.16 22.672C13.066 22.633 12.917 22.613 12.715 22.613V22.175C12.913 22.172 13.052 22.153 13.13 22.116C13.222 22.075 13.271 21.995 13.301 21.897C13.315 21.851 13.334 21.81 13.334 21.751C13.334 21.633 13.299 21.537 13.231 21.462C13.161 21.388 13.064 21.35 12.939 21.35C12.795 21.35 12.689 21.396 12.621 21.488C12.553 21.579 12.52 21.701 12.524 21.855H11.954C11.959 21.701 11.987 21.554 12.034 21.416C12.084 21.294 12.162 21.183 12.269 21.079C12.349 21.006 12.444 20.951 12.553 20.912C12.663 20.873 12.798 20.854 12.958 20.854C13.255 20.854 13.495 20.931 13.677 21.084C13.843 21.224 13.922 21.412 13.938 21.638C13.941 21.663 13.951 21.68 13.951 21.704ZM12.77 29.757C12.722 29.663 12.635 29.614 12.506 29.614C12.358 29.614 12.256 29.676 12.2 29.799C12.171 29.863 12.156 29.943 12.156 30.033V31.254H11.617V30.033C11.617 29.911 11.604 29.822 11.579 29.768C11.534 29.668 11.446 29.62 11.314 29.62C11.161 29.62 11.059 29.669 11.005 29.768C10.976 29.824 10.963 29.909 10.963 30.02V31.253H10.419V29.207H10.94V29.506C11.006 29.4 11.069 29.324 11.128 29.279C11.232 29.199 11.367 29.158 11.532 29.158C11.688 29.158 11.816 29.191 11.912 29.261C11.99 29.324 12.049 29.407 12.088 29.508C12.159 29.387 12.246 29.3 12.349 29.242C12.459 29.185 12.582 29.158 12.718 29.158C12.809 29.158 12.898 29.176 12.985 29.21C13.073 29.246 13.152 29.307 13.224 29.395C13.281 29.467 13.321 29.554 13.34 29.659C13.353 29.727 13.359 29.828 13.359 29.962L13.355 31.254H12.806V29.948C12.809 29.872 12.795 29.808 12.77 29.757ZM37.723 21.503C37.651 21.416 37.545 21.372 37.411 21.372C37.225 21.372 37.099 21.442 37.032 21.58C36.994 21.661 36.97 21.788 36.963 21.961H36.369C36.379 21.697 36.428 21.483 36.514 21.32C36.677 21.009 36.966 20.855 37.382 20.855C37.711 20.855 37.973 20.945 38.168 21.128C38.362 21.31 38.459 21.551 38.459 21.852C38.459 22.082 38.39 22.287 38.253 22.466C38.161 22.585 38.014 22.717 37.808 22.863L37.564 23.037C37.411 23.145 37.305 23.225 37.249 23.272C37.193 23.321 37.145 23.377 37.106 23.442H38.463V23.981H36.335C36.339 23.758 36.388 23.554 36.477 23.37C36.565 23.162 36.77 22.943 37.096 22.711C37.376 22.51 37.56 22.365 37.643 22.277C37.769 22.142 37.833 21.993 37.833 21.832C37.833 21.699 37.795 21.59 37.723 21.503ZM36.378 29.247C36.521 29.309 36.641 29.411 36.732 29.55C36.817 29.672 36.871 29.814 36.897 29.973C36.911 30.069 36.918 30.204 36.913 30.381H35.42C35.428 30.585 35.5 30.731 35.635 30.814C35.717 30.865 35.815 30.891 35.931 30.891C36.053 30.891 36.152 30.86 36.229 30.797C36.271 30.764 36.307 30.716 36.34 30.654H36.886C36.871 30.776 36.806 30.899 36.688 31.025C36.504 31.224 36.247 31.324 35.917 31.324C35.645 31.324 35.403 31.24 35.195 31.072C34.987 30.904 34.883 30.631 34.883 30.252C34.883 29.897 34.977 29.625 35.165 29.435C35.353 29.247 35.598 29.152 35.899 29.152C36.076 29.151 36.237 29.183 36.378 29.247ZM35.417 23.979H34.79V21.835H34.06V21.419C34.253 21.411 34.388 21.397 34.464 21.38C34.587 21.353 34.687 21.299 34.763 21.218C34.817 21.162 34.856 21.088 34.883 20.995C34.899 20.939 34.906 20.898 34.906 20.871H35.417V23.979ZM42.458 22.671C42.364 22.632 42.215 22.612 42.013 22.612V22.174C42.21 22.171 42.35 22.152 42.428 22.115C42.564 22.054 42.632 21.934 42.632 21.75C42.632 21.632 42.597 21.536 42.528 21.461C42.459 21.387 42.361 21.349 42.237 21.349C42.092 21.349 41.987 21.395 41.919 21.487C41.852 21.578 41.818 21.7 41.822 21.854H41.253C41.257 21.7 41.285 21.553 41.332 21.415C41.381 21.293 41.461 21.182 41.567 21.078C41.647 21.005 41.742 20.95 41.851 20.911C41.961 20.872 42.096 20.853 42.255 20.853C42.552 20.853 42.792 20.93 42.976 21.083C43.157 21.236 43.248 21.442 43.248 21.702C43.248 21.885 43.192 22.04 43.085 22.165C43.016 22.245 42.944 22.298 42.87 22.326C42.927 22.326 43.006 22.374 43.111 22.47C43.267 22.615 43.344 22.812 43.344 23.062C43.344 23.324 43.253 23.555 43.071 23.755C42.889 23.954 42.619 24.054 42.262 24.054C41.823 24.054 41.516 23.91 41.346 23.622C41.255 23.47 41.206 23.269 41.197 23.022H41.796C41.796 23.147 41.816 23.249 41.857 23.331C41.93 23.481 42.066 23.556 42.26 23.556C42.379 23.556 42.484 23.515 42.573 23.433C42.662 23.35 42.707 23.233 42.707 23.078C42.706 22.876 42.622 22.74 42.458 22.671ZM45.816 22.832V23.31H45.463V23.979H44.865V23.31H43.636V22.776L44.778 20.89H45.466V22.832H45.816ZM47.477 22.599C47.404 22.49 47.288 22.435 47.13 22.435C47.056 22.435 46.991 22.444 46.938 22.463C46.842 22.497 46.769 22.561 46.72 22.653L46.173 22.627L46.391 20.91H48.102V21.429H46.831L46.72 22.108C46.815 22.046 46.887 22.005 46.94 21.986C47.03 21.953 47.136 21.937 47.263 21.937C47.521 21.937 47.744 22.023 47.935 22.196C48.126 22.369 48.221 22.619 48.221 22.95C48.221 23.237 48.129 23.493 47.946 23.72C47.763 23.947 47.487 24.058 47.119 24.058C46.823 24.058 46.58 23.979 46.391 23.821C46.202 23.662 46.094 23.438 46.073 23.146H46.681C46.705 23.279 46.752 23.381 46.821 23.453C46.89 23.525 46.99 23.561 47.12 23.561C47.272 23.561 47.387 23.507 47.467 23.401C47.545 23.295 47.585 23.16 47.585 22.999C47.589 22.843 47.55 22.708 47.477 22.599ZM50.623 21.653H50.015C50.015 21.603 49.995 21.548 49.956 21.488C49.891 21.391 49.791 21.342 49.658 21.342C49.459 21.342 49.316 21.453 49.233 21.676C49.188 21.799 49.156 21.98 49.139 22.221C49.214 22.131 49.302 22.065 49.402 22.024C49.502 21.982 49.618 21.961 49.746 21.961C50.02 21.961 50.247 22.055 50.424 22.243C50.6 22.431 50.689 22.67 50.689 22.96C50.689 23.251 50.602 23.506 50.429 23.728C50.256 23.95 49.988 24.061 49.622 24.061C49.231 24.061 48.942 23.897 48.757 23.57C48.611 23.314 48.54 22.985 48.54 22.579C48.54 22.342 48.551 22.149 48.57 22C48.605 21.735 48.675 21.516 48.778 21.339C48.867 21.189 48.983 21.068 49.127 20.977C49.27 20.885 49.442 20.839 49.643 20.839C49.931 20.839 50.162 20.913 50.333 21.061C50.504 21.21 50.6 21.407 50.623 21.653ZM10.527 20.855C10.857 20.855 11.118 20.945 11.313 21.128C11.508 21.31 11.605 21.551 11.605 21.852C11.605 22.082 11.537 22.287 11.399 22.466C11.31 22.583 11.164 22.713 10.962 22.856C10.959 22.858 10.957 22.86 10.954 22.862L10.709 23.036C10.556 23.144 10.451 23.224 10.394 23.271C10.338 23.32 10.29 23.376 10.251 23.441H11.608V23.98H9.479C9.484 23.772 9.53 23.583 9.608 23.408C9.613 23.395 9.616 23.381 9.622 23.368C9.709 23.16 9.914 22.941 10.24 22.709C10.521 22.508 10.704 22.363 10.786 22.275C10.913 22.14 10.977 21.991 10.977 21.83C10.977 21.699 10.94 21.589 10.868 21.502C10.796 21.415 10.691 21.371 10.556 21.371C10.37 21.371 10.244 21.441 10.177 21.579C10.138 21.66 10.115 21.787 10.109 21.96H9.514C9.524 21.696 9.572 21.482 9.658 21.319C9.729 21.184 9.835 21.091 9.954 21.015C10.01 20.98 10.077 20.961 10.142 20.938C10.259 20.899 10.375 20.855 10.527 20.855ZM6.079 31.254H5.54V28.482H6.147L7.247 30.415V28.482H7.787V31.254H7.208L6.081 29.287V31.254H6.079ZM7.937 23.979V21.84V21.835H7.205V21.419C7.398 21.411 7.532 21.397 7.609 21.38C7.732 21.353 7.832 21.299 7.908 21.218C7.961 21.162 8 21.088 8.027 20.995C8.043 20.939 8.051 20.898 8.051 20.871H8.562V21.586V23.836V23.98H8.209L7.937 23.979ZM5.928 14.266V12.288H7.914V14.311H5.933C5.933 14.295 5.928 14.281 5.928 14.266ZM7.914 16.91C7.122 16.673 6.474 16.103 6.152 15.352H7.914V16.91ZM8.955 15.352H10.672V17.037H8.955V15.352ZM11.713 15.352H13.476C13.154 16.103 12.505 16.673 11.713 16.91V15.352ZM13.699 14.266C13.699 14.282 13.695 14.295 13.695 14.311H11.715V12.288H13.7L13.699 14.266ZM11.193 11.246L10.672 11.247V14.31H8.955V9.265H10.928C12.179 9.265 13.227 10.104 13.57 11.245H11.193V11.246ZM7.914 11.246H6.057C6.325 10.355 7.022 9.66 7.914 9.393V11.246ZM8.441 30.162C8.548 30.101 8.707 30.057 8.915 30.031L9.099 30.008C9.199 29.995 9.269 29.981 9.313 29.961C9.39 29.928 9.429 29.877 9.429 29.81C9.429 29.725 9.4 29.668 9.341 29.635C9.281 29.603 9.195 29.586 9.081 29.586C8.953 29.586 8.861 29.619 8.808 29.681C8.769 29.727 8.745 29.79 8.732 29.869H8.215C8.226 29.69 8.277 29.543 8.366 29.428C8.508 29.248 8.753 29.157 9.098 29.157C9.323 29.157 9.523 29.202 9.699 29.29C9.874 29.38 9.962 29.548 9.962 29.795V30.735C9.962 30.799 9.963 30.879 9.966 30.972C9.97 31.041 9.98 31.09 9.998 31.115C10.016 31.139 10.041 31.161 10.077 31.178V31.256H9.494C9.477 31.214 9.467 31.176 9.461 31.139C9.455 31.103 9.45 31.062 9.446 31.015C9.372 31.096 9.285 31.164 9.189 31.22C9.073 31.287 8.942 31.321 8.795 31.321C8.608 31.321 8.454 31.267 8.332 31.163C8.21 31.057 8.15 30.907 8.15 30.713C8.148 30.457 8.246 30.274 8.441 30.162Z" fill="white"/>
<path d="M35.8242 12.7071C36.5742 13.5561 37.6602 14.1021 38.8802 14.1021C39.7532 14.1021 40.5592 13.8231 41.2252 13.3541H41.3572H42.0422H42.1342H42.7442H42.9472C42.9602 13.3441 42.9682 13.3301 42.9822 13.3201C43.2602 13.0971 43.5152 12.8471 43.7332 12.5641H43.3082H42.7202H42.0512H42.0462H41.3712H40.7342C40.6132 12.3691 40.5022 12.1651 40.4052 11.9531H40.9942H41.5872H42.4622H43.0542H43.6312H44.1262C44.2602 11.7021 44.3702 11.4381 44.4552 11.1621H43.8772H43.3342H42.7912H41.2152H40.6702H40.1282C40.1112 11.0991 40.0852 11.0381 40.0712 10.9741C40.0322 10.8121 40.0162 10.6451 39.9962 10.4791H40.5172H41.0382H41.2822H42.9322H43.4532H43.9742H44.6122C44.6402 10.2751 44.6742 10.0711 44.6742 9.85905C44.6742 9.80105 44.6592 9.74705 44.6552 9.68805H43.9902H43.4692H43.2202H42.9482H40.9832H40.4622H39.9412C39.9482 9.46205 39.9742 9.24105 40.0092 9.02405H40.5302H41.0512H42.8462H43.3912H43.9202H44.5862C44.5332 8.75005 44.4532 8.48605 44.3542 8.23305H43.6872H43.1452H42.5602H41.2922H41.2712H40.7472H40.2052C40.2842 7.99605 40.3742 7.77005 40.4842 7.55005H41.0722H41.6642H42.1432H42.7812H42.9462H43.3682H44.0092C43.9362 7.43105 43.8392 7.33105 43.7592 7.21905C43.6452 7.06305 43.5432 6.89705 43.4082 6.75805H42.8342H42.3852H42.1652H41.6432H41.3572H40.9742C41.0212 6.69605 41.0742 6.63805 41.1222 6.57805C40.4772 6.15605 39.7092 5.90405 38.8822 5.90405C36.6212 5.90405 34.7822 7.74305 34.7822 10.0031C34.7822 10.2931 34.8142 10.5741 34.8722 10.8461C35.0182 11.5541 35.3612 12.1851 35.8242 12.7071Z" fill="white"/>
</svg>
