<svg width="28" height="36" viewBox="0 0 20 36" fill="none" xmlns="http://www.w3.org/2000/svg">
<path d="M10.2599 0.0925682C11.1271 -0.0951828 12.0799 -0.0108866 12.8424 0.470625C13.9012 1.06325 14.5334 2.27406 14.5245 3.47464C14.4811 4.41851 14.0596 5.34577 13.3392 5.96394C12.661 6.55529 11.7427 6.87076 10.8448 6.80052C9.66213 6.706 8.55479 5.95755 8.04134 4.88597C7.71949 4.21032 7.58665 3.42355 7.7744 2.69171C8.01324 1.43748 9.02991 0.405487 10.2599 0.0925682Z" fill="#4266BD"/>
<path d="M7.66072 8.34853C8.47303 7.93471 9.42072 7.53877 10.339 7.82487C11.4311 8.10458 12.2779 9.09442 12.4273 10.2043C12.5282 10.6411 12.4043 11.0805 12.3634 11.516C11.979 14.1611 11.6265 16.8101 11.2408 19.4552C11.205 19.8192 11.1616 20.1947 11.2535 20.5536C11.4298 20.9176 11.7223 21.2101 12.039 21.4541C12.5895 21.8743 13.0697 22.3762 13.6126 22.8066C14.1413 23.3009 14.7927 23.6917 15.1542 24.3406C15.665 25.121 15.6765 26.0891 15.7085 26.9895C15.8592 28.5158 15.923 30.0485 16.0712 31.5747C16.0648 32.4688 16.2909 33.3526 16.1964 34.2467C16.0278 35.0884 15.3215 35.8189 14.467 35.9581C13.4031 36.1906 12.2523 35.4268 12.0186 34.3706C11.9688 34.0845 11.9356 33.7971 11.9087 33.5084C11.8283 31.9413 11.6661 30.3805 11.5779 28.8147C11.4464 28.0573 11.555 27.2718 11.3532 26.5272C9.92139 25.2155 8.40023 23.9996 6.95058 22.7045C6.28132 22.191 5.82025 21.4464 5.56991 20.6494C5.42303 20.09 5.48817 19.5025 5.492 18.9316C5.73978 16.9876 6.0693 15.0514 6.28515 13.1036C5.93136 13.2977 5.5367 13.437 5.22251 13.6937C4.58262 15.5929 4.05641 17.5317 3.42929 19.4361C3.07167 20.4042 1.80212 20.7976 0.924669 20.2995C0.28606 19.9048 -0.164799 19.1065 0.0574373 18.353C0.63474 16.4295 1.23631 14.5137 1.81744 12.5914C2.05373 11.7536 2.63359 11.0179 3.4012 10.6041C4.81763 9.84543 6.24684 9.1123 7.66072 8.34853Z" fill="#4266BD"/>
<path d="M13.0761 12.6182C13.4593 12.8161 13.7812 13.1061 14.1247 13.3628C15.5923 14.4906 17.0611 15.6145 18.5311 16.7385C19.1672 17.2136 19.3664 18.1345 19.0548 18.851C18.6308 19.7731 17.3931 20.2521 16.5144 19.6556C15.1695 18.653 13.8463 17.621 12.5129 16.6018C12.7249 15.2773 12.905 13.9477 13.0761 12.6182Z" fill="#4266BD"/>
<path d="M5.53413 22.5156C6.56101 23.6677 7.82546 24.5656 8.95707 25.6078C8.9558 25.6601 8.95324 25.7636 8.95196 25.816C8.03492 28.6948 7.09617 31.5673 6.1804 34.4461C6.04246 34.9315 5.70655 35.3312 5.30934 35.6314C4.39485 36.2866 2.98863 36.0248 2.37557 35.0809C1.9477 34.51 1.903 33.727 2.13162 33.068C3.26834 29.5505 4.38719 26.028 5.53413 22.5156Z" fill="#4266BD"/>
</svg>
