<svg width="41" height="26" viewBox="0 0 41 26" fill="none">
<path d="M22.9696 10.8357L19.478 7.30642L33.676 7.30707C36.5775 7.30707 38.9566 9.90753 38.9566 13.1266C38.9566 16.3457 36.5776 18.9461 33.676 18.9461H29.038C28.5293 18.9461 28.0825 19.3174 28.0108 19.8237C27.9212 20.4463 28.4007 20.9994 29.0223 20.9994H33.676C37.7232 20.9994 41 17.4596 41 13.1266L40.9962 12.8727C40.8712 8.65623 37.6438 5.25383 33.676 5.25383L19.479 5.25342L22.9605 1.73996C23.3531 1.32319 23.3437 0.680811 22.9455 0.289084C22.5438 -0.0955744 21.9207 -0.0955744 21.5239 0.284385L16.2974 5.55993C15.9009 5.96019 15.9009 6.606 16.2974 7.00626L21.5145 12.2725C21.9303 12.6715 22.5746 12.6619 22.9651 12.2573C23.3436 11.8547 23.3436 11.2335 22.9696 10.8357Z" fill="#94A8B2"/>
<path d="M18.0304 15.1637L21.522 18.693L7.32398 18.6923C4.42246 18.6923 2.04341 16.0919 2.04341 12.8728C2.04341 9.65369 4.42245 7.05326 7.32398 7.05326L11.962 7.05326C12.4707 7.05326 12.9175 6.68198 12.9892 6.1757C13.0788 5.55308 12.5993 4.99997 11.9777 4.99997L7.32398 4.99997C3.27682 4.99997 1.52636e-06 8.53984 1.14756e-06 12.8728L0.00376242 13.1267C0.1288 17.3432 3.35618 20.7456 7.32398 20.7456L21.521 20.746L18.0395 24.2594C17.6469 24.6762 17.6563 25.3186 18.0545 25.7103C18.4562 26.095 19.0793 26.095 19.4761 25.715L24.7026 20.4395C25.0991 20.0392 25.0991 19.3934 24.7026 18.9931L19.4855 13.7268C19.0697 13.3279 18.4254 13.3375 18.0349 13.7421C17.6564 14.1447 17.6564 14.7659 18.0304 15.1637Z" fill="#94A8B2"/>
</svg>
