<svg width="209" height="81" viewBox="0 0 209 81" fill="none" xmlns="http://www.w3.org/2000/svg">
<circle cx="25" cy="39" r="23" stroke="white" stroke-width="3" stroke-linecap="round" stroke-linejoin="round"/>
<path fill-rule="evenodd" clip-rule="evenodd" d="M26.9999 37V29H22.9999V37H14.9999V41H22.9999V49H26.9999V41H34.9999V37H26.9999Z" fill="white"/>
<path fill-rule="evenodd" clip-rule="evenodd" d="M185.893 16.7966H135.116L149.381 2.84075C150.035 2.16747 150.017 1.1069 149.346 0.467079C148.675 -0.155693 147.625 -0.155693 146.954 0.467079L129.748 17.3017C129.077 17.9582 129.077 19.0188 129.748 19.6753L146.954 36.5099C147.643 37.1496 148.727 37.1327 149.381 36.4761C150.017 35.8196 150.017 34.7928 149.381 34.1362L135.116 20.1635H185.893C196.407 20.1635 204.959 29.2205 204.959 40.3649C204.959 51.5095 196.407 60.5663 185.893 60.5663H170.597C169.736 60.5663 168.962 61.1724 168.841 61.9973C168.687 63.041 169.513 63.9333 170.545 63.9333H185.893C198.3 63.9333 208.4 53.3612 208.4 40.3649C208.4 27.3688 198.3 16.7966 185.893 16.7966Z" fill="white"/>
<path fill-rule="evenodd" clip-rule="evenodd" d="M146.684 63.3145H95.9065C83.5004 63.3145 73.4 52.7424 73.4 39.7462C73.4 26.7499 83.5004 16.1778 95.9065 16.1778H111.255C112.287 16.1778 113.113 17.0701 112.959 18.1138C112.838 18.9388 112.064 19.5448 111.203 19.5448H95.9065C85.3932 19.5448 76.8413 28.6017 76.8413 39.7462C76.8413 50.8906 85.3932 59.9477 95.9065 59.9477H146.684L132.419 45.9749C131.783 45.3184 131.783 44.2916 132.419 43.635C133.073 42.9785 134.157 42.9616 134.846 43.6012L152.052 60.4358C152.723 61.0924 152.723 62.1529 152.052 62.8095L134.846 79.6441C134.175 80.2668 133.125 80.2668 132.454 79.6441C131.783 79.0042 131.765 77.9437 132.419 77.2704L146.684 63.3145Z" fill="white"/>
</svg>
