<svg width="56" height="25" viewBox="0 0 56 25" fill="none" xmlns="http://www.w3.org/2000/svg">
<path d="M6.9 15.8H7.8C8.1 15.8 8.3 15.6 8.3 15.3V14.4C8.3 14.1 8.1 13.9 7.8 13.9H6.9C6.6 13.9 6.4 14.1 6.4 14.4V15.3C6.4 15.6 6.6 15.8 6.9 15.8ZM10.5 15.8H11.4C11.7 15.8 11.9 15.6 11.9 15.3V14.4C11.9 14.1 11.7 13.9 11.4 13.9H10.5C10.2 13.9 10 14.1 10 14.4V15.3C10.1 15.6 10.3 15.8 10.5 15.8ZM14.2 15.8H15.1C15.4 15.8 15.6 15.6 15.6 15.3V14.4C15.6 14.1 15.4 13.9 15.1 13.9H14.2C13.9 13.9 13.7 14.1 13.7 14.4V15.3C13.7 15.6 14 15.8 14.2 15.8ZM17.9 15.8H18.8C19.1 15.8 19.3 15.6 19.3 15.3V14.4C19.3 14.1 19.1 13.9 18.8 13.9H17.9C17.6 13.9 17.4 14.1 17.4 14.4V15.3C17.4 15.6 17.6 15.8 17.9 15.8ZM21.5 15.8H22.4C22.7 15.8 22.9 15.6 22.9 15.3V14.4C22.9 14.1 22.7 13.9 22.4 13.9H21.5C21.2 13.9 21 14.1 21 14.4V15.3C21.1 15.6 21.3 15.8 21.5 15.8ZM25.2 15.8H26.1C26.4 15.8 26.6 15.6 26.6 15.3V14.4C26.6 14.1 26.4 13.9 26.1 13.9H25.2C24.9 13.9 24.7 14.1 24.7 14.4V15.3C24.7 15.6 25 15.8 25.2 15.8ZM28.9 15.8H29.8C30.1 15.8 30.3 15.6 30.3 15.3V14.4C30.3 14.1 30.1 13.9 29.8 13.9H28.9C28.6 13.9 28.4 14.1 28.4 14.4V15.3C28.4 15.6 28.6 15.8 28.9 15.8ZM32.5 15.8H33.4C33.7 15.8 33.9 15.6 33.9 15.3V14.4C33.9 14.1 33.7 13.9 33.4 13.9H32.5C32.2 13.9 32 14.1 32 14.4V15.3C32.1 15.6 32.3 15.8 32.5 15.8ZM36.2 15.8H37.1C37.4 15.8 37.6 15.6 37.6 15.3V14.4C37.6 14.1 37.4 13.9 37.1 13.9H36.2C35.9 13.9 35.7 14.1 35.7 14.4V15.3C35.7 15.6 36 15.8 36.2 15.8ZM39.9 15.8H40.8C41.1 15.8 41.3 15.6 41.3 15.3V14.4C41.3 14.1 41.1 13.9 40.8 13.9H39.9C39.6 13.9 39.4 14.1 39.4 14.4V15.3C39.4 15.6 39.6 15.8 39.9 15.8ZM43.5 15.8H44.4C44.7 15.8 44.9 15.6 44.9 15.3V14.4C44.9 14.1 44.7 13.9 44.4 13.9H43.5C43.2 13.9 43 14.1 43 14.4V15.3C43.1 15.6 43.3 15.8 43.5 15.8ZM0.9 12.1H54.1C54.4 12.1 54.8 12.3 54.9 12.6C55.1 12.9 55 13.3 54.8 13.6L47.5 23.8C47.3 24 47.1 24.2 46.8 24.2H5.5C5.4 24.2 5.2 24.2 5.1 24.1C0.6 21.8 0 17.2 0 13C0 12.5 0.4 12.1 0.9 12.1Z" fill="#2C4684"/>
<path d="M8.69999 4.1C8.79999 3.7 9.19999 3.4 9.49999 3.4H13V0.6C13 0.3 13.2 0 13.4 0H14.3C14.5 0 14.7 0.3 14.7 0.6V3.4H19.1V0.6C19.1 0.3 19.3 0 19.5 0H20.4C20.6 0 20.8 0.3 20.8 0.6V3.4H25.2V0.6C25.2 0.3 25.4 0 25.6 0H26.5C26.7 0 26.9 0.3 26.9 0.6V3.4H30.6C31 3.4 31.3 3.7 31.4 4.1L32 6C32.1 6.4 31.9 6.8 31.6 6.8H8.49999C8.19999 6.7 7.99999 6.3 8.09999 5.9L8.69999 4.1Z" fill="#2C4684"/>
<path d="M5.90001 8.6C6.00001 8.3 6.40001 8 6.80001 8H41.6C42 8 42.3 8.2 42.4 8.6L42.9 10.1C43 10.4 42.8 10.7 42.5 10.7H5.80001C5.50001 10.7 5.30001 10.4 5.40001 10.1L5.90001 8.6Z" fill="#2C4684"/>
</svg>