<svg width="79" height="79" viewBox="0 0 79 79" fill="none" xmlns="http://www.w3.org/2000/svg">
<path d="M40.1222 73.6696C59.0861 73.4127 74.2512 57.8311 73.9942 38.8672C73.7373 19.9032 58.1557 4.73816 39.1918 4.99507C20.2278 5.25199 5.06277 20.8336 5.31968 39.7975C5.5766 58.7615 21.1582 73.9266 40.1222 73.6696Z" fill="#FEFEFE" stroke="#FEFEFE" stroke-width="0.5669" stroke-miterlimit="22.9256"/>
<path fill-rule="evenodd" clip-rule="evenodd" d="M23.1329 19.3651C23.9075 18.5904 24.6821 17.9019 25.3706 17.2994C28.8994 14.2871 32.4281 14.115 36.129 15.0617C38.4528 15.6642 40.1741 16.1806 42.0676 17.6437C41.7233 18.3322 41.1209 19.7093 40.6905 21.0003C38.9692 25.734 39.0553 30.898 43.1865 34.2546C46.8013 37.1809 54.2891 37.6112 58.4203 39.1605C60.3999 39.9351 60.6581 41.14 61.0023 42.7753C61.3466 44.5827 57.5597 46.0458 56.2687 46.3901C52.912 47.3368 49.2972 47.3368 45.9406 46.9065C41.8094 46.304 39.2274 44.4105 35.3544 44.0663C33.8912 43.8941 32.6002 44.0663 30.1043 44.9269C28.8133 45.3573 27.5223 45.7015 26.2313 45.6155C25.5427 45.5294 23.8214 45.4433 23.2189 45.1851C22.6165 45.013 21.0673 44.4966 20.8091 43.6359C20.5509 42.8613 20.4648 41.6564 20.3787 40.9679C19.6902 37.6973 20.2066 36.6645 21.1533 33.5661C21.7558 31.5866 22.4443 29.4349 22.7025 28.4021C23.1329 25.4758 23.305 22.6356 23.1329 19.3651Z" fill="black"/>
<path fill-rule="evenodd" clip-rule="evenodd" d="M27.4355 45.9597C29.0707 46.8204 30.3617 47.2507 31.6527 47.4228C34.8372 47.9392 37.7635 47.7671 40.6898 47.595C43.0136 47.4228 44.1324 47.5089 46.3702 46.9064C48.1776 46.4761 49.8989 46.1318 51.7063 45.7876C51.7924 45.7876 51.7924 45.7876 51.8785 45.7876C53.858 45.3572 57.4728 44.9269 59.5384 44.6687C59.8827 47.4228 60.9155 49.6606 59.3663 51.9844C47.6612 53.1033 29.5011 51.6401 17.1074 49.8327C17.1935 47.595 19.173 43.722 21.9272 44.0662C24.7674 44.3244 24.8534 44.4966 27.4355 45.9597Z" fill="black"/>
<path fill-rule="evenodd" clip-rule="evenodd" d="M21.4112 47.2507C24.1653 47.2507 26.4031 49.4885 26.4031 52.2426C26.4031 54.9968 24.1653 57.2345 21.4112 57.2345C18.657 57.2345 16.4193 54.9968 16.4193 52.2426C16.3332 49.4885 18.657 47.2507 21.4112 47.2507ZM21.4112 48.5417C19.3456 48.5417 17.7103 50.177 17.7103 52.2426C17.7103 54.3082 19.3456 55.9435 21.4112 55.9435C23.4768 55.9435 25.1121 54.3082 25.1121 52.2426C25.1121 50.2631 23.4768 48.5417 21.4112 48.5417Z" fill="black"/>
<path fill-rule="evenodd" clip-rule="evenodd" d="M21.4118 55.255C23.047 55.255 24.4241 53.8779 24.4241 52.2426C24.4241 50.6074 23.047 49.2303 21.4118 49.2303C19.7765 49.2303 18.3994 50.6074 18.3994 52.2426C18.3994 53.964 19.7765 55.255 21.4118 55.255Z" fill="black"/>
<path fill-rule="evenodd" clip-rule="evenodd" d="M33.2888 48.4557C36.0429 48.4557 38.2806 50.6934 38.2806 53.4476C38.2806 56.2017 36.0429 58.4395 33.2888 58.4395C30.5346 58.4395 28.2969 56.2017 28.2969 53.4476C28.2969 50.6934 30.5346 48.4557 33.2888 48.4557ZM33.2888 49.7467C31.2232 49.7467 29.5879 51.382 29.5879 53.4476C29.5879 55.5132 31.2232 57.1485 33.2888 57.1485C35.3544 57.1485 36.9896 55.5132 36.9896 53.4476C36.9896 51.382 35.3544 49.7467 33.2888 49.7467Z" fill="black"/>
<path fill-rule="evenodd" clip-rule="evenodd" d="M33.2887 56.4599C34.924 56.4599 36.3011 55.0829 36.3011 53.4476C36.3011 51.8123 34.924 50.4352 33.2887 50.4352C31.6534 50.4352 30.2764 51.8123 30.2764 53.4476C30.2764 55.0829 31.6534 56.4599 33.2887 56.4599Z" fill="black"/>
<path fill-rule="evenodd" clip-rule="evenodd" d="M45.6827 49.2303C48.4368 49.2303 50.6746 51.468 50.6746 54.2222C50.6746 56.9763 48.4368 59.2141 45.6827 59.2141C42.9285 59.2141 40.6908 56.9763 40.6908 54.2222C40.6047 51.468 42.9285 49.2303 45.6827 49.2303ZM45.6827 50.6074C43.6171 50.6074 41.9818 52.2426 41.9818 54.3082C41.9818 56.3738 43.6171 58.0091 45.6827 58.0091C47.7483 58.0091 49.3836 56.3738 49.3836 54.3082C49.3836 52.2426 47.6622 50.6074 45.6827 50.6074Z" fill="black"/>
<path fill-rule="evenodd" clip-rule="evenodd" d="M45.6823 57.3206C47.3175 57.3206 48.6946 55.9436 48.6946 54.3083C48.6946 52.673 47.3175 51.296 45.6823 51.296C44.047 51.296 42.6699 52.673 42.6699 54.3083C42.6699 55.9436 43.9609 57.3206 45.6823 57.3206Z" fill="black"/>
<path fill-rule="evenodd" clip-rule="evenodd" d="M58.5059 48.7139C61.2601 48.7139 63.4978 50.9516 63.4978 53.7058C63.4978 56.4599 61.2601 58.6976 58.5059 58.6976C55.7518 58.6976 53.514 56.4599 53.514 53.7058C53.428 51.0377 55.7518 48.7139 58.5059 48.7139ZM58.5059 50.0909C56.4403 50.0909 54.805 51.7262 54.805 53.7918C54.805 55.8574 56.4403 57.4927 58.5059 57.4927C60.5715 57.4927 62.2068 55.8574 62.2068 53.7918C62.2068 51.7262 60.4855 50.0909 58.5059 50.0909Z" fill="black"/>
<path fill-rule="evenodd" clip-rule="evenodd" d="M58.5055 56.8042C60.1408 56.8042 61.5179 55.4271 61.5179 53.7918C61.5179 52.1566 60.1408 50.7795 58.5055 50.7795C56.8702 50.7795 55.4932 52.1566 55.4932 53.7918C55.4932 55.4271 56.7842 56.8042 58.5055 56.8042Z" fill="black"/>
<path fill-rule="evenodd" clip-rule="evenodd" d="M39.6578 0C17.9689 0 0.325195 17.6437 0.325195 39.3326C0.325195 61.1075 17.9689 78.6652 39.6578 78.6652C61.4327 78.6652 78.9904 61.1075 78.9904 39.3326C78.9904 17.6437 61.4327 0 39.6578 0ZM19.2599 14.6314C24.7682 10.0698 31.9118 7.31569 39.6578 7.31569C57.3876 7.31569 71.7608 21.6028 71.7608 39.3326C71.7608 47.0786 69.0066 54.2222 64.4451 59.7305L19.2599 14.6314ZM60.0557 64.0338C54.5474 68.6814 47.4038 71.4356 39.6578 71.4356C21.928 71.4356 7.64089 57.0624 7.64089 39.3326C7.64089 31.5866 10.395 24.443 14.9566 18.9347L60.0557 64.0338Z" fill="#F50000"/>
</svg>
