<svg width="80" height="79" viewBox="0 0 80 79" fill="none" xmlns="http://www.w3.org/2000/svg">
<path fill-rule="evenodd" clip-rule="evenodd" d="M39.9979 73.6733C58.9327 73.6733 74.3387 58.2673 74.3387 39.3326C74.3387 20.3979 58.9327 4.99188 39.9979 4.99188C21.0632 4.99188 5.65723 20.3979 5.65723 39.3326C5.65723 58.2673 21.0632 73.6733 39.9979 73.6733Z" fill="#FEFEFE" stroke="#FEFEFE" stroke-width="0.5669" stroke-miterlimit="22.9256"/>
<path d="M65.3873 43.3777H22.1816V50.4352H65.3873V43.3777Z" fill="black"/>
<path d="M20.8908 43.3777H18.8252V50.4352H20.8908V43.3777Z" fill="black"/>
<path d="M16.8459 43.3777H14.7803V50.4352H16.8459V43.3777Z" fill="black"/>
<path fill-rule="evenodd" clip-rule="evenodd" d="M18.9111 42.0868C18.9111 33.6522 26.5711 32.1891 32.1654 31.1563C33.0261 30.9841 33.8007 30.812 34.5753 30.6399L35.3499 30.4677C41.4607 29.0046 45.764 28.0579 45.764 18.9348H47.7436C47.7436 29.6931 42.8377 30.812 35.7803 32.4473L35.0057 32.6194C34.3171 32.7915 33.4564 32.9637 32.5097 33.1358C27.5178 34.0825 20.8907 35.3735 20.8046 42.1728L18.9111 42.0868Z" fill="black"/>
<path fill-rule="evenodd" clip-rule="evenodd" d="M14.7812 42.0868C14.7812 37.267 16.8469 34.0825 19.6871 31.8448C22.4412 29.6931 25.7978 28.5743 28.4659 27.8857L29.4126 27.6275C35.007 26.3365 39.9989 25.2176 39.9989 18.8487H41.9784C41.8923 26.7669 36.2119 28.1439 29.843 29.6071C29.6708 29.6931 29.4987 29.6931 28.8962 29.8653C26.4003 30.4677 23.3019 31.5005 20.892 33.394C18.5682 35.2875 16.7608 38.0416 16.7608 42.0868H14.7812Z" fill="black"/>
<path fill-rule="evenodd" clip-rule="evenodd" d="M39.9976 0C18.3088 0 0.665039 17.6437 0.665039 39.3326C0.665039 61.1075 18.3088 78.6652 39.9976 78.6652C61.7726 78.6652 79.3302 61.1075 79.3302 39.3326C79.3302 17.6437 61.7726 0 39.9976 0ZM19.5998 14.6314C25.1081 10.0698 32.2516 7.31569 39.9976 7.31569C57.7274 7.31569 72.1006 21.6028 72.1006 39.3326C72.1006 47.0786 69.3465 54.2222 64.7849 59.7305L19.5998 14.6314ZM60.3955 64.0338C54.8872 68.6814 47.7437 71.4356 39.9976 71.4356C22.2678 71.4356 7.98073 57.0624 7.98073 39.3326C7.98073 31.5866 10.7349 24.443 15.2964 18.9347L60.3955 64.0338Z" fill="#F50000"/>
</svg>
