<svg width="80" height="79" viewBox="0 0 80 79" fill="none" xmlns="http://www.w3.org/2000/svg">
<path fill-rule="evenodd" clip-rule="evenodd" d="M40.328 73.6733C59.2628 73.6733 74.6687 58.2673 74.6687 39.3326C74.6687 20.3979 59.2628 4.99188 40.328 4.99188C21.3933 4.99188 5.9873 20.3979 5.9873 39.3326C5.9873 58.2673 21.3933 73.6733 40.328 73.6733Z" fill="#FEFEFE" stroke="#FEFEFE" stroke-width="0.5669" stroke-miterlimit="22.9256"/>
<path fill-rule="evenodd" clip-rule="evenodd" d="M19.4139 39.5047C22.5984 39.5047 25.1804 36.9227 25.1804 33.7382C25.1804 30.5538 22.5984 27.9717 19.4139 27.9717C16.2295 27.9717 13.6475 30.5538 13.6475 33.7382C13.6475 36.9227 16.2295 39.5047 19.4139 39.5047Z" fill="black"/>
<path fill-rule="evenodd" clip-rule="evenodd" d="M39.3814 24.8734C43.943 24.8734 48.5045 24.8734 53.1521 24.8734C54.271 24.8734 55.2178 25.8201 55.2178 26.939C55.2178 28.0578 54.271 29.0046 53.1521 29.0046C49.107 29.0046 45.1479 29.0046 41.1028 29.0046C39.6396 30.3816 38.2626 31.8448 36.7994 33.2218C42.9102 35.4596 48.9349 37.7834 55.0456 40.0211C53.4964 39.849 51.7751 39.7629 50.2259 40.0211C47.1275 40.5375 43.0823 43.2056 39.8118 42.9474C37.488 42.7753 34.0453 40.7097 30.9469 40.1933C28.1927 39.7629 25.955 40.1072 22.7705 41.2261C28.2788 35.8039 33.8731 30.2956 39.3814 24.8734Z" fill="black"/>
<path fill-rule="evenodd" clip-rule="evenodd" d="M13.9915 48.3697C13.2169 48.3697 12.5283 47.6811 12.5283 46.9065C12.5283 46.1319 13.2169 45.4434 13.9915 45.4434C15.8849 45.4434 17.9505 44.5827 19.9301 43.636C22.2539 42.6032 24.5777 41.5704 27.0736 41.5704C29.5696 41.5704 31.8934 42.6032 34.2172 43.636C36.2828 44.4967 38.2623 45.4434 40.1558 45.4434C42.0493 45.4434 44.1149 44.5827 46.0944 43.636C48.4182 42.6032 50.7421 41.5704 53.238 41.5704C55.7339 41.5704 58.0577 42.6032 60.3815 43.636C62.4472 44.4967 64.4267 45.4434 66.3202 45.4434C67.0948 45.4434 67.7833 46.1319 67.7833 46.9065C67.7833 47.6811 67.0948 48.3697 66.3202 48.3697C63.8242 48.3697 61.5004 47.3369 59.1766 46.3041C57.111 45.4434 55.1315 44.4967 53.238 44.4967C51.3445 44.4967 49.2789 45.3573 47.2994 46.3041C44.9756 47.3369 42.6518 48.3697 40.1558 48.3697C37.6599 48.3697 35.3361 47.3369 33.0123 46.3041C30.9467 45.4434 28.9671 44.4967 27.0736 44.4967C25.1802 44.4967 23.1146 45.3573 21.135 46.3041C18.8112 47.3369 16.4874 48.3697 13.9915 48.3697Z" fill="black"/>
<path fill-rule="evenodd" clip-rule="evenodd" d="M13.9915 54.05C13.2169 54.05 12.5283 53.3615 12.5283 52.5869C12.5283 51.8123 13.2169 51.1237 13.9915 51.1237C15.8849 51.1237 17.9505 50.2631 19.9301 49.3163C22.2539 48.2835 24.5777 47.2507 27.0736 47.2507C29.5696 47.2507 31.8934 48.2835 34.2172 49.3163C36.2828 50.177 38.2623 51.1237 40.1558 51.1237C42.0493 51.1237 44.1149 50.2631 46.0944 49.3163C48.4182 48.2835 50.7421 47.2507 53.238 47.2507C55.7339 47.2507 58.0577 48.2835 60.3815 49.3163C62.4472 50.177 64.4267 51.1237 66.3202 51.1237C67.0948 51.1237 67.7833 51.8123 67.7833 52.5869C67.7833 53.3615 67.0948 54.05 66.3202 54.05C63.8242 54.05 61.5004 53.0172 59.1766 51.9844C57.111 51.1237 55.1315 50.177 53.238 50.177C51.3445 50.177 49.2789 51.0377 47.2994 51.9844C44.9756 53.0172 42.6518 54.05 40.1558 54.05C37.6599 54.05 35.3361 53.0172 33.0123 51.9844C30.9467 51.1237 28.9671 50.177 27.0736 50.177C25.1802 50.177 23.1146 51.0377 21.135 51.9844C18.8112 53.0172 16.4874 54.05 13.9915 54.05Z" fill="black"/>
<path fill-rule="evenodd" clip-rule="evenodd" d="M40.3277 0C18.6388 0 0.995117 17.6437 0.995117 39.3326C0.995117 61.1075 18.6388 78.6652 40.3277 78.6652C62.1027 78.6652 79.6603 61.1075 79.6603 39.3326C79.6603 17.6437 62.1027 0 40.3277 0ZM19.9298 14.6314C25.4381 10.0698 32.5817 7.31569 40.3277 7.31569C58.0575 7.31569 72.4307 21.6028 72.4307 39.3326C72.4307 47.0786 69.6765 54.2222 65.115 59.7305L19.9298 14.6314ZM60.7256 64.0338C55.2173 68.6814 48.0737 71.4356 40.3277 71.4356C22.5979 71.4356 8.31081 57.0624 8.31081 39.3326C8.31081 31.5866 11.065 24.443 15.6265 18.9347L60.7256 64.0338Z" fill="#F50000"/>
</svg>
