<svg width="32" height="28" viewBox="0 0 32 28" fill="none">
<path d="M0 2C0 0.895432 0.895431 0 2 0H23.6735C24.778 0 25.6735 0.89543 25.6735 2V9.06122H0V2Z" fill="#F46E5A"/>
<path fill-rule="evenodd" clip-rule="evenodd" d="M3.20918 21.1429C1.4368 21.1429 0 19.6215 0 17.7449V7.55103H25.6735V17.7449C25.6735 19.6215 24.2367 21.1429 22.4643 21.1429H3.20918Z" fill="#E2574C"/>
<rect x="25.6733" y="13.5919" width="6.04082" height="3.02041" fill="#D8D8D8"/>
<circle cx="11.3263" cy="20.3878" r="3.77551" fill="#EDEDEE"/>
<path fill-rule="evenodd" clip-rule="evenodd" d="M6.04102 20.3878C6.04102 23.3024 8.41197 25.6735 11.3267 25.6735C14.2415 25.6735 16.6124 23.3025 16.6124 20.3878C16.6124 17.4731 14.2414 15.1021 11.3267 15.1021C8.41208 15.1021 6.04102 17.4731 6.04102 20.3878ZM7.963 20.3876C7.963 18.5326 9.4716 17.024 11.3266 17.024C13.1817 17.024 14.6903 18.5326 14.6903 20.3876C14.6903 22.2426 13.1817 23.7512 11.3266 23.7512C9.4716 23.7512 7.963 22.2426 7.963 20.3876Z" fill="#504B5A"/>
<circle cx="11.3263" cy="20.3877" r="2.26531" fill="#DCDBDE"/>
</svg>
