<svg width="70" height="30" viewBox="0 0 70 30" fill="none" xmlns="http://www.w3.org/2000/svg">
<g id="icon_car">
<path id="Shape" d="M0.135864 14.4036L1.01317 10.9141C1.22425 10.0751 1.66039 9.309 2.27552 8.69738L7.77288 1.87657C8.68363 0.746435 10.0614 0.0888672 11.5178 0.0888672H38.6081C39.6983 0.0888672 40.7296 0.580083 41.4128 1.42481L48.0518 9.63211L0.135864 14.4036Z" fill="#FF9164"/>
<path id="Shape_2" d="M38.6085 0.0888672H11.518C10.0614 0.0888672 8.68368 0.74657 7.77294 1.87684L2.27612 8.69792C1.66125 9.30927 1.22511 10.0752 1.01418 10.914L0.136597 14.4037L18.1334 23.947H68.5233V14.7858C68.5233 13.0328 67.2519 11.5337 65.5114 11.2547C59.4369 10.2806 48.0522 9.63225 48.0522 9.63225L41.4135 1.42495C40.7302 0.580083 39.6986 0.0888672 38.6085 0.0888672Z" fill="#0CAAC1"/>
<g id="Group">
<path id="Shape_3" d="M38.6087 0.0888672H11.5291C10.0661 0.0888672 8.68323 0.752246 7.77275 1.89076L2.53607 8.43927L40.8533 9.63211H48.0518L41.4134 1.42481C40.7301 0.580083 39.6987 0.0888672 38.6087 0.0888672Z" fill="#20BBD1"/>
<path id="Shape_4" d="M68.523 16.0253C68.523 14.9655 67.8269 14.0374 66.8048 13.7361C64.4107 13.0303 59.0694 12.0178 48.1271 12.0178H1.3361C0.673531 12.0178 0.136408 12.5517 0.136408 13.2106L0.135864 20.3682L22.9321 22.754H68.523V16.0253Z" fill="#20BBD1"/>
</g>
<path id="Shape_5" d="M68.523 21.561H12.2652L1.59613 19.2039C0.955305 19.064 0.308501 19.4654 0.164299 20.1096C0.0213196 20.7527 0.429191 21.3898 1.07586 21.5325L11.8736 23.9183C11.9591 23.9375 12.0458 23.9468 12.1336 23.9468H68.5226C69.1857 23.9468 69.7225 23.4127 69.7225 22.754C69.7226 22.0952 69.1861 21.561 68.523 21.561Z" fill="#0BA2B7"/>
<ellipse id="Oval" cx="11.5337" cy="23.3501" rx="5.49899" ry="5.46757" fill="#EDEDEE"/>
<path id="Shape_6" fill-rule="evenodd" clip-rule="evenodd" d="M4.93573 23.3505C4.93573 26.9683 7.89562 29.9114 11.5344 29.9114C15.1731 29.9114 18.133 26.9685 18.133 23.3505C18.133 19.7327 15.173 16.7896 11.5344 16.7896C7.89575 16.7896 4.93573 19.7327 4.93573 23.3505ZM7.33525 23.3504C7.33525 21.0478 9.21858 19.1752 11.5344 19.1752C13.8502 19.1752 15.7335 21.0478 15.7335 23.3504C15.7335 25.6529 13.8502 27.5255 11.5344 27.5255C9.21858 27.5255 7.33525 25.6529 7.33525 23.3504Z" fill="#504B5A"/>
<g id="Group_2">
<path id="Shape_7" d="M46.9273 19.1752H20.5326C19.87 19.1752 19.3329 18.641 19.3329 17.9824C19.3329 17.3236 19.87 16.7896 20.5326 16.7896H46.9273C47.5899 16.7896 48.127 17.3236 48.127 17.9824C48.127 18.6413 47.5899 19.1752 46.9273 19.1752Z" fill="#0CAAC1"/>
<path id="Shape_8" d="M68.523 19.1752H66.1235C65.4609 19.1752 64.9238 18.641 64.9238 17.9824C64.9238 17.3236 65.4611 16.7896 66.1235 16.7896H68.523C69.1856 16.7896 69.7227 17.3236 69.7227 17.9824C69.7227 18.6413 69.1856 19.1752 68.523 19.1752Z" fill="#0CAAC1"/>
</g>
<path id="Shape_9" d="M1.01401 10.914L0.736206 12.0179H3.7351C4.39767 12.0179 4.93479 11.4839 4.93479 10.8251C4.93479 10.1663 4.39753 9.63226 3.7351 9.63226H1.55222C1.31356 10.0305 1.12831 10.4601 1.01401 10.914Z" fill="#FF0000"/>
<ellipse id="Oval_2" cx="55.9248" cy="23.3501" rx="5.49899" ry="5.46757" fill="#EDEDEE"/>
<path id="Shape_10" fill-rule="evenodd" clip-rule="evenodd" d="M49.3268 23.3505C49.3268 26.9683 52.2867 29.9114 55.9255 29.9114C59.5643 29.9114 62.5241 26.9685 62.5241 23.3505C62.5241 19.7327 59.5641 16.7896 55.9255 16.7896C52.2869 16.7896 49.3268 19.7327 49.3268 23.3505ZM51.7264 23.3504C51.7264 21.0478 53.6097 19.1752 55.9255 19.1752C58.2413 19.1752 60.1246 21.0478 60.1246 23.3504C60.1246 25.6529 58.2413 27.5255 55.9255 27.5255C53.6097 27.5255 51.7264 25.6529 51.7264 23.3504Z" fill="#504B5A"/>
<path id="Shape_11" d="M41.2855 8.71627L36.2537 2.21276C35.7994 1.62573 35.0968 1.28168 34.3517 1.28168H16.9844C15.9316 1.28168 15.0018 1.96397 14.6915 2.96424L13.4102 7.09519C13.0189 7.87343 13.57 8.79289 14.4444 8.82087L40.8535 9.63195H40.8544C41.3304 9.63195 41.5904 9.08006 41.2855 8.71627Z" fill="#504B5A"/>
<path id="Shape_12" d="M68.523 14.7856C68.523 14.2202 68.3783 13.6891 68.1402 13.2108H66.1232C65.4607 13.2108 64.9236 13.7448 64.9236 14.4036C64.9236 15.0624 65.4608 15.5964 66.1232 15.5964H68.523V14.7856Z" fill="#EDEDEE"/>
<g id="Group_3">
<path id="Shape_13" d="M41.3161 1.30452C41.2992 1.29641 41.2851 1.28979 41.2682 1.28168H39.3456C38.7704 1.28168 38.4467 1.93911 38.7992 2.39087L43.9957 9.04681C44.284 9.416 44.7276 9.63195 45.1976 9.63195H48.0518L41.3161 1.30452Z" fill="#625D6B"/>
<path id="Shape_14" d="M12.2456 2.43789C12.5079 1.90411 12.117 1.28168 11.5196 1.28168H8.38463C8.16812 1.46965 7.95487 1.6633 7.77275 1.8906L2.53607 8.43911L7.64445 8.59816C8.58795 8.62749 9.46105 8.10411 9.87558 7.26087L12.2456 2.43789Z" fill="#625D6B"/>
</g>
</g>
</svg>
