<svg width="78" height="68" viewBox="0 0 78 68" fill="none" xmlns="http://www.w3.org/2000/svg">
<path d="M3.1878 19.2067H74.5388C76.6638 19.2067 77.6445 17.6538 77.6445 16.101C77.5628 13.8942 76.0099 12.75 74.0484 12.75H72.9859C71.1061 12.5048 70.207 11.6875 69.8801 10.7067C69.7167 10.0529 69.7167 9.31731 69.9618 8.66346C70.207 8.00962 70.6157 7.4375 71.1878 7.02885C71.9234 6.53846 72.8224 6.45673 73.8849 7.11058C74.0484 7.19231 74.2118 7.27404 74.3753 7.27404C74.8657 7.27404 75.1926 6.86538 75.1926 6.375C75.1926 4.41346 74.457 2.86058 73.4763 1.79808C72.8224 1.14423 72.0868 0.653846 71.2695 0.408654C70.4522 0.0817308 69.5532 0 68.6542 0C66.284 0.0817308 63.5868 1.14423 61.3801 3.26923C60.6445 4.00481 59.7455 4.98558 58.8465 6.12981C56.4763 8.99038 53.4522 12.5048 51.0003 12.8317H49.3657C47.4859 12.5865 46.5868 11.7692 46.2599 10.7885C46.0965 10.1346 46.0965 9.39904 46.3417 8.74519C46.5868 8.09135 46.9955 7.51923 47.5676 7.11058C48.3032 6.62019 49.2022 6.53846 50.2647 7.19231C50.4282 7.27404 50.5917 7.35577 50.7551 7.35577C51.2455 7.35577 51.5724 6.94712 51.5724 6.45673C51.5724 4.49519 50.8368 2.94231 49.8561 1.87981C49.2022 1.22596 48.4667 0.735577 47.6493 0.490385C46.832 0.163461 45.933 0.0817307 45.034 0.0817307C42.6638 0.163461 39.9667 1.22596 37.7599 3.35096C37.0243 4.08654 36.1253 5.06731 35.2263 6.21154C32.8561 9.07212 29.832 12.5865 27.3801 12.9135H25.7455C23.8657 12.6683 22.9667 11.851 22.6397 10.8702C22.4763 10.2163 22.4763 9.48077 22.7215 8.82692C22.9666 8.17308 23.3753 7.51923 23.9474 7.19231C24.683 6.70192 25.582 6.62019 26.6445 7.27404C26.808 7.35577 26.9715 7.4375 27.1349 7.4375C27.6253 7.4375 27.9522 7.02885 27.9522 6.53846C27.9522 4.57692 27.2166 3.02404 26.2359 1.96154C25.6638 1.30769 24.9282 0.817308 24.1109 0.572115C23.2936 0.245192 22.3945 0.163461 21.4955 0.163461C19.1253 0.245192 16.4282 1.30769 14.2215 3.43269C13.4859 4.16827 12.5868 5.14904 11.6878 6.29327C9.31761 9.15385 6.29357 12.6683 3.84165 12.9952H3.1878C2.37049 12.9952 1.55319 13.3221 0.98107 13.8942C0.408954 14.4663 0.0820312 15.2019 0.0820312 16.101C0.0820312 16.9183 0.408954 17.7356 0.98107 18.3077C1.55319 18.8798 2.28876 19.2067 3.1878 19.2067Z" fill="#C42F3A"/>
<path d="M74.0481 61.5433H72.9856C71.1058 61.2981 70.2067 60.4808 69.8798 59.5C69.7164 58.8462 69.7164 58.1106 69.9615 57.4567C70.2067 56.8029 70.6154 56.2308 71.1875 55.8221C71.9231 55.3317 72.8221 55.25 73.8846 55.9039C74.0481 55.9856 74.2115 56.0673 74.375 56.0673C74.8654 56.0673 75.1923 55.6587 75.1923 55.1683C75.1923 53.2067 74.4567 51.6539 73.476 50.5914C72.8221 49.9375 72.0865 49.4471 71.2692 49.2019C70.4519 48.875 69.5529 48.7933 68.6539 48.7933C66.2837 48.875 63.5865 49.9375 61.3798 52.0625C60.6442 52.7981 59.7452 53.7789 58.8462 54.9231C56.476 57.7837 53.4519 61.2981 51 61.625H49.3654C47.4856 61.3798 46.5865 60.5625 46.2596 59.5817C46.0962 58.9279 46.0962 58.1923 46.3414 57.5385C46.5865 56.8846 46.9952 56.3125 47.5673 55.9039C48.3029 55.4135 49.2019 55.3317 50.2644 55.9856C50.4279 56.0673 50.5914 56.149 50.7548 56.149C51.2452 56.149 51.5721 55.7404 51.5721 55.25C51.5721 53.2885 50.8365 51.7356 49.8558 50.6731C49.2019 50.0192 48.4664 49.5288 47.649 49.2837C46.8317 48.9567 45.9327 48.875 45.0337 48.875C42.6635 48.9567 39.9664 50.0192 37.7596 52.1442C37.024 52.8798 36.125 53.8606 35.226 55.0048C32.8558 57.8654 29.8317 61.3798 27.3798 61.7067H25.7452C23.8654 61.4615 22.9663 60.6442 22.6394 59.6635C22.476 59.0096 22.476 58.274 22.7212 57.6202C22.9663 56.9664 23.375 56.3125 23.9471 55.9856C24.6827 55.4952 25.5817 55.4135 26.6442 56.0673C26.8077 56.149 26.9712 56.2308 27.1346 56.2308C27.625 56.2308 27.9519 55.8221 27.9519 55.3317C27.9519 53.3702 27.2163 51.8173 26.2356 50.7548C25.5817 50.101 24.8462 49.6106 24.0288 49.3654C23.2115 49.0385 22.3125 48.9567 21.4135 48.9567C19.0433 49.0385 16.3462 50.101 14.1394 52.226C13.4038 52.9615 12.5048 53.9423 11.6058 55.0865C9.23558 57.9471 6.21154 61.4615 3.75962 61.7885H3.10577C2.28846 61.7885 1.47115 62.1154 0.899039 62.6875C0.326923 63.2596 0 63.9952 0 64.8942C0 65.7115 0.326923 66.5289 0.899039 67.101C1.47115 67.6731 2.20673 68 3.10577 68H74.4567C76.5817 68 77.5625 66.4471 77.5625 64.8942C77.5625 62.6875 76.0096 61.5433 74.0481 61.5433Z" fill="#C42F3A"/>
<path d="M74.0481 37.351H72.9856C71.1058 37.1058 70.2067 36.2885 69.8798 35.3077C69.7164 34.6538 69.7164 33.9183 69.9615 33.2644C70.2067 32.6106 70.6154 32.0385 71.1875 31.6298C71.9231 31.1394 72.8221 31.0577 73.8846 31.7115C74.0481 31.7933 74.2115 31.875 74.375 31.875C74.8654 31.875 75.1923 31.4663 75.1923 30.976C75.1923 29.0144 74.4567 27.4615 73.476 26.399C72.8221 25.7452 72.0865 25.2548 71.2692 25.0096C70.4519 24.6827 69.5529 24.601 68.6539 24.601C66.2837 24.6827 63.5865 25.7452 61.3798 27.8702C60.6442 28.6058 59.7452 29.5865 58.8462 30.7308C56.476 33.5913 53.4519 37.1058 51 37.4327H49.3654C47.4856 37.1875 46.5865 36.3702 46.2596 35.3894C46.0962 34.7356 46.0962 34 46.3414 33.3461C46.5865 32.6923 46.9952 32.1202 47.5673 31.7115C48.3029 31.2211 49.2019 31.1394 50.2644 31.7933C50.4279 31.875 50.5914 31.9567 50.7548 31.9567C51.2452 31.9567 51.5721 31.5481 51.5721 31.0577C51.5721 29.0961 50.8365 27.5433 49.8558 26.4808C49.2019 25.8269 48.4664 25.3365 47.649 25.0913C46.8317 24.7644 45.9327 24.6827 45.0337 24.6827C42.6635 24.7644 39.9664 25.8269 37.7596 27.9519C37.024 28.6875 36.125 29.6683 35.226 30.8125C32.8558 33.6731 29.8317 37.1875 27.3798 37.5144H25.7452C23.8654 37.2692 22.9663 36.4519 22.6394 35.4711C22.476 34.8173 22.476 34.0817 22.7212 33.4279C22.9663 32.774 23.375 32.1202 23.9471 31.7933C24.6827 31.3029 25.5817 31.2211 26.6442 31.875C26.8077 31.9567 26.9712 32.0385 27.1346 32.0385C27.625 32.0385 27.9519 31.6298 27.9519 31.1394C27.9519 29.1779 27.2163 27.625 26.2356 26.5625C25.5817 25.9086 24.8462 25.4183 24.0288 25.1731C23.2115 24.8461 22.3125 24.7644 21.4135 24.7644C19.0433 24.8461 16.3462 25.9086 14.1394 28.0336C13.4038 28.7692 12.5048 29.75 11.6058 30.8942C9.23558 33.7548 6.21154 37.2692 3.75962 37.5961H3.10577C2.28846 37.5961 1.47115 37.9231 0.899039 38.4952C0.326923 39.0673 0 39.8029 0 40.7019C0 41.5192 0.326923 42.3365 0.899039 42.9086C1.47115 43.4808 2.20673 43.8077 3.10577 43.8077H74.4567C76.5817 43.8077 77.5625 42.2548 77.5625 40.7019C77.5625 38.4952 76.0096 37.351 74.0481 37.351Z" fill="#C42F3A"/>
</svg>
