<svg width="54" height="55" viewBox="0 0 54 55" fill="none" xmlns="http://www.w3.org/2000/svg">
<path d="M12.1005 21.7538C16.1958 21.0899 18.9776 17.2319 18.3137 13.1366C17.6498 9.04127 13.7917 6.25955 9.69644 6.92343C5.60114 7.58731 2.81943 11.4454 3.48331 15.5407C4.14718 19.636 8.00525 22.4177 12.1005 21.7538Z" fill="#2C4684"/>
<path d="M20.2218 25.4648H1.58202C1.03379 25.4648 0.52459 25.7487 0.236238 26.2151C-0.0520077 26.6815 -0.078164 27.2639 0.167051 27.7544L9.487 46.3942C9.75489 46.9302 10.3027 47.2687 10.902 47.2687C11.5012 47.2687 12.049 46.9302 12.3169 46.3942L21.6368 27.7544C21.882 27.264 21.8558 26.6815 21.5676 26.2151C21.2794 25.7487 20.7702 25.4648 20.2218 25.4648Z" fill="#2C4684"/>
<path d="M27 0.046875C26.1263 0.046875 25.418 0.755203 25.418 1.62891V52.4648C25.418 53.3385 26.1263 54.0468 27 54.0468C27.8737 54.0468 28.582 53.3385 28.582 52.4648V1.62891C28.582 0.755203 27.8737 0.046875 27 0.046875Z" fill="#2C4684"/>
<path d="M44.2939 21.7597C48.3892 21.0958 51.1709 17.2378 50.507 13.1425C49.8432 9.04719 45.9851 6.26547 41.8898 6.92935C37.7945 7.59323 35.0128 11.4513 35.6767 15.5466C36.3405 19.6419 40.1986 22.4236 44.2939 21.7597Z" fill="#2C4684"/>
<path d="M53.8331 44.9792L44.5132 26.3394C44.2453 25.8034 43.6975 25.4648 43.0983 25.4648C42.499 25.4648 41.9512 25.8034 41.6833 26.3394L32.3633 44.9792C32.1181 45.4695 32.1443 46.052 32.4325 46.5184C32.7208 46.9849 33.2301 47.2687 33.7783 47.2687H52.4181C52.9663 47.2687 53.4755 46.9849 53.7639 46.5184C54.0521 46.052 54.0783 45.4696 53.8331 44.9792Z" fill="#2C4684"/>
</svg>
