<svg width="32" height="33" fill="none"><path fill-rule="evenodd" clip-rule="evenodd" d="M9.658 4.578c-.173-.399-.26-.833-.26-1.303 0-.446.087-.868.26-1.268.173-.399.404-.745.693-1.038a3.33 3.33 0 0 1 1.022-.705c.393-.176.82-.264 1.283-.264.439 0 .854.088 1.247.264.393.176.74.411 1.04.705.3.293.531.64.693 1.038.162.4.243.822.243 1.268 0 .916-.312 1.697-.936 2.342a3.059 3.059 0 0 1-2.287.969c-.462 0-.89-.088-1.283-.264a3.33 3.33 0 0 1-1.022-.705 3.389 3.389 0 0 1-.693-1.039zM22.256 22.61c-.393-.094-.745-.035-1.057.177a1.442 1.442 0 0 0-.607.88c-.07.352-.173.693-.312 1.021a7.992 7.992 0 0 1-1.265 2.254 8.937 8.937 0 0 1-1.871 1.761 8.604 8.604 0 0 1-2.322 1.145 8.535 8.535 0 0 1-2.617.405 8.348 8.348 0 0 1-3.327-.669 8.906 8.906 0 0 1-2.72-1.796 8.377 8.377 0 0 1-1.837-2.66 8.068 8.068 0 0 1-.676-3.292c0-.869.133-1.708.399-2.518a8.614 8.614 0 0 1 2.86-4.085 8.891 8.891 0 0 1 2.251-1.286c.37-.118.636-.352.798-.705.161-.352.173-.704.034-1.056a1.324 1.324 0 0 0-.745-.758 1.524 1.524 0 0 0-1.092-.052 11.7 11.7 0 0 0-2.98 1.69 11.482 11.482 0 0 0-2.322 2.43 10.957 10.957 0 0 0-2.01 6.34c0 1.55.3 3 .901 4.35.6 1.35 1.415 2.529 2.443 3.539a11.58 11.58 0 0 0 3.605 2.395c1.374.587 2.847.88 4.418.88 1.202 0 2.357-.176 3.466-.528a11.774 11.774 0 0 0 3.084-1.497 11.058 11.058 0 0 0 2.495-2.342 10.716 10.716 0 0 0 1.664-3.029c.162-.4.3-.845.416-1.338.092-.4.035-.752-.173-1.057-.208-.305-.509-.505-.901-.599zm3.43-3.98L30.99 28c.116.235.173.481.173.74 0 .47-.167.868-.502 1.197a1.648 1.648 0 0 1-1.196.493c-.37 0-.693-.094-.97-.282a1.752 1.752 0 0 1-.624-.74l-4.575-8.1h-7.867c-.092.024-.22.036-.381.036-.555 0-1.04-.17-1.456-.511-.416-.34-.67-.78-.762-1.32l-1.906-9.334h.034a.93.93 0 0 1-.034-.282c0-.704.254-1.309.762-1.813.508-.505 1.132-.758 1.871-.758.601 0 1.127.177 1.577.529.45.352.757.798.919 1.338l.034.106c0 .047.006.076.018.088.011.012.017.04.017.088l.312 1.62h5.407c.23 0 .439.059.623.176.347.188.572.47.676.845.104.376.064.728-.121 1.057a1.254 1.254 0 0 1-.59.563c-.253.118-.52.165-.796.141h-4.61l.693 3.452h5.892c.462 0 .878.117 1.248.352s.647.551.831.95z" fill="#4266BD"/></svg>