<svg width="32" height="33" viewBox="0 0 32 33" fill="none" xmlns="http://www.w3.org/2000/svg">
<g id="wheelchair-access">
<path id="Shape" fill-rule="evenodd" clip-rule="evenodd" d="M9.65789 4.57843C9.4846 4.17929 9.39796 3.74492 9.39796 3.27534C9.39796 2.82924 9.4846 2.40661 9.65789 2.00747C9.83117 1.60832 10.0622 1.262 10.351 0.968515C10.6398 0.675025 10.9806 0.440234 11.3734 0.26414C11.7662 0.0880468 12.1936 0 12.6557 0C13.0947 0 13.5105 0.0880468 13.9033 0.26414C14.2961 0.440234 14.6427 0.675025 14.943 0.968515C15.2434 1.262 15.4744 1.60832 15.6361 2.00747C15.7979 2.40661 15.8787 2.82924 15.8787 3.27534C15.8787 4.19103 15.5668 4.97171 14.943 5.61739C14.3192 6.26306 13.5567 6.5859 12.6557 6.5859C12.1936 6.5859 11.7662 6.49785 11.3734 6.32176C10.9806 6.14567 10.6398 5.91088 10.351 5.61739C10.0622 5.3239 9.83117 4.97758 9.65789 4.57843ZM22.2556 22.6104C21.8628 22.5164 21.5105 22.5753 21.1986 22.7866C20.8867 22.9979 20.6845 23.2913 20.5921 23.6671C20.5228 24.0192 20.4188 24.3597 20.2802 24.6884C19.9799 25.5101 19.5582 26.2615 19.0153 26.9424C18.4723 27.6233 17.8484 28.2104 17.1438 28.7034C16.4391 29.1964 15.6651 29.578 14.8218 29.8482C13.9785 30.118 13.1063 30.2531 12.2052 30.2531C11.0269 30.2531 9.91791 30.0301 8.87821 29.584C7.83852 29.1378 6.93167 28.5392 6.15767 27.7878C5.38368 27.0363 4.77141 26.1501 4.32088 25.1288C3.87034 24.1075 3.64507 23.0097 3.64507 21.8357C3.64507 20.967 3.77792 20.1276 4.04362 19.3176C4.30932 18.5076 4.68477 17.7562 5.16996 17.0636C5.65515 16.3709 6.23276 15.7604 6.90279 15.2322C7.57282 14.7039 8.32371 14.2754 9.15547 13.9467C9.52514 13.8293 9.79084 13.5945 9.95257 13.2423C10.1143 12.8901 10.1258 12.5379 9.98722 12.1857C9.8486 11.8335 9.60022 11.5811 9.24211 11.4285C8.88399 11.2759 8.5201 11.2583 8.15043 11.3757C7.06452 11.7983 6.07103 12.3618 5.16996 13.0662C4.26889 13.7706 3.49489 14.5806 2.84797 15.4963C2.20105 16.412 1.7043 17.4097 1.35774 18.4899C1.01117 19.5699 0.837891 20.6851 0.837891 21.8357C0.837891 23.3854 1.13825 24.8351 1.73896 26.1852C2.33968 27.5352 3.1541 28.715 4.18225 29.7247C5.21039 30.7342 6.41182 31.5326 7.78653 32.1195C9.16124 32.7065 10.6341 33 12.2052 33C13.4067 33 14.5619 32.8238 15.6709 32.4717C16.7799 32.1195 17.808 31.6205 18.7553 30.9749C19.7026 30.3293 20.5344 29.5485 21.2505 28.6328C21.9667 27.7171 22.5212 26.7076 22.914 25.6041C23.0758 25.2047 23.2144 24.7588 23.3299 24.2658C23.4224 23.8665 23.3645 23.5142 23.1566 23.2091C22.9487 22.9041 22.6484 22.7044 22.2556 22.6104ZM25.6864 18.6307L30.9889 27.9989C31.1045 28.2337 31.1623 28.4801 31.1621 28.7386C31.1621 29.2084 30.9946 29.6073 30.6596 29.9361C30.3246 30.2649 29.926 30.4292 29.4639 30.4292C29.0943 30.4292 28.7708 30.3352 28.4936 30.1474C28.2162 29.9595 28.0083 29.7129 27.8697 29.4077L23.2951 21.3074H15.428C15.3356 21.3309 15.2085 21.3426 15.0468 21.3426C14.4923 21.3426 14.0071 21.1724 13.5912 20.8319C13.1753 20.4915 12.9212 20.0513 12.8287 19.5112L10.9226 10.1782H10.9573C10.9342 10.1078 10.9226 10.0139 10.9226 9.89647C10.9226 9.19209 11.1768 8.5875 11.6851 8.0827C12.1934 7.5779 12.8172 7.3255 13.5565 7.3255C14.1572 7.3255 14.6829 7.50159 15.1334 7.85378C15.5839 8.20597 15.8901 8.65207 16.0518 9.19209L16.0864 9.29775C16.0864 9.34471 16.0922 9.37406 16.1038 9.3858C16.1153 9.39754 16.1212 9.42688 16.1212 9.47384L16.433 11.0939H21.8395C22.0705 11.0939 22.2785 11.1526 22.4633 11.27C22.81 11.4578 23.0353 11.7396 23.1393 12.1152C23.2431 12.4909 23.2028 12.8431 23.0178 13.1718C22.8792 13.4301 22.6828 13.6179 22.4288 13.7353C22.1747 13.8527 21.9089 13.8997 21.6317 13.8762H17.0223L17.7154 17.3276H23.607C24.0691 17.3276 24.485 17.445 24.8547 17.6797C25.2243 17.9145 25.5016 18.2314 25.6864 18.6307Z" fill="#4266BD"/>
</g>
</svg>
