<svg width="58" height="40" viewBox="0 0 58 40" fill="none" xmlns="http://www.w3.org/2000/svg">
<path d="M20.1158 1.90365C24.7584 -0.323342 30.2834 -0.608374 35.1354 1.11189C38.676 2.35063 41.8351 4.63448 44.1463 7.58628C45.3015 7.58772 46.4575 7.58196 47.6127 7.58916C50.083 7.63235 52.5086 8.6897 54.2368 10.4517C55.9722 12.1929 56.9986 14.6185 57.0202 17.0787C57.0245 18.9753 57.0202 20.8719 57.0223 22.7678C57.0303 23.4307 56.9871 24.0958 56.8676 24.7486C56.4616 27.0246 55.1927 29.127 53.3817 30.5615C51.7349 31.8838 49.6425 32.6359 47.5299 32.6597C46.1955 32.6619 44.861 32.6604 43.5265 32.6604C41.9869 34.4318 40.1378 35.9347 38.0793 37.0633C35.4866 38.4935 32.5658 39.3176 29.6089 39.4681C28.6466 39.5731 27.6807 39.4832 26.7205 39.4054C24.1502 39.1643 21.6288 38.4136 19.3493 37.2022C17.1892 36.0592 15.2465 34.5095 13.6465 32.6619C12.2508 32.6575 10.8544 32.664 9.45808 32.659C7.02452 32.6273 4.62766 31.6131 2.8966 29.9051C1.10364 28.1625 0.0318905 25.7002 0.00237967 23.1982C-0.00193899 21.1836 0.000940117 19.1696 0.000940117 17.155C0.00525877 14.982 0.784777 12.8241 2.16243 11.1449C3.88701 9.00712 6.55882 7.6669 9.30693 7.59204C10.5478 7.5762 11.7887 7.5942 13.0296 7.58268C14.9097 5.17575 17.3569 3.21436 20.1158 1.90365ZM33.4151 10.6705C31.6315 11.8063 30.3446 13.6943 29.9624 15.7759C29.7874 16.6324 29.8314 17.5098 29.8263 18.3779C29.8263 19.482 29.8263 20.5862 29.8263 21.6896C29.8206 22.6742 29.8688 23.6675 29.6903 24.6407C29.285 27.0922 27.8714 29.3458 25.8647 30.8055C33.0963 30.8041 40.3279 30.8106 47.5594 30.8027C48.6672 30.7796 49.7699 30.514 50.7668 30.0296C52.7073 29.0968 54.2239 27.3261 54.8364 25.2604C55.0667 24.4996 55.1718 23.7035 55.166 22.9089C55.1624 20.9417 55.1725 18.9746 55.161 17.0067C55.1149 14.5228 53.7726 12.1202 51.7025 10.7526C50.4364 9.89892 48.9133 9.43755 47.386 9.43971C44.2197 9.43611 41.0527 9.43971 37.8864 9.43827C36.3173 9.3958 34.7345 9.81399 33.4151 10.6705ZM22.6595 12.8766C22.2723 12.9774 21.9037 13.1969 21.6727 13.5295C21.3013 14.0535 21.3366 14.82 21.7382 15.3174C22.057 15.7133 22.5667 15.9105 23.0633 15.945C23.6334 15.9854 24.2524 15.8651 24.6835 15.4657C25.2708 14.9258 25.2989 13.8937 24.7231 13.3351C24.1905 12.8119 23.3613 12.7053 22.6595 12.8766ZM4.88678 13.4978C5.88367 17.6783 6.88056 21.858 7.87745 26.0385C8.9348 26.0392 9.99144 26.0392 11.0488 26.0385C11.603 23.4192 12.194 20.7999 12.4833 18.1353C12.7698 20.8007 13.3657 23.4185 13.9164 26.0385C14.9852 26.0392 16.0541 26.0385 17.1237 26.0392C18.122 21.8587 19.1204 17.6783 20.1173 13.4978C18.9339 13.4978 17.7513 13.4978 16.5688 13.4978C16.1678 16.0055 15.7266 18.5096 15.4697 21.0375C15.2149 18.4931 14.6081 16.0026 14.1143 13.4978C13.0505 13.4978 11.9867 13.4978 10.9228 13.4978C10.4291 16.0026 9.82805 18.4923 9.56245 21.036C9.3206 18.5074 8.86427 16.0055 8.46911 13.4978C7.275 13.4978 6.08089 13.4971 4.88678 13.4978ZM21.6468 16.929C21.6475 19.9657 21.6468 23.0025 21.6475 26.0385C22.7228 26.0385 23.7982 26.0392 24.8735 26.0385C24.8735 23.0017 24.8735 19.9657 24.8735 16.929C23.7982 16.929 22.7228 16.9283 21.6468 16.929Z" fill="#2C4684"/>
<path d="M48.0634 12.8781C48.7659 12.7053 49.5966 12.8104 50.1306 13.3344C50.7079 13.8922 50.6798 14.9266 50.0911 15.4657C49.6621 15.8644 49.0445 15.9846 48.4766 15.9458C47.9432 15.9105 47.3919 15.6823 47.0824 15.2303C46.7434 14.7344 46.7311 14.0261 47.0802 13.5324C47.3106 13.1998 47.6769 12.9803 48.0634 12.8781Z" fill="#2C4684"/>
<path d="M34.2061 13.4985C37.8208 13.4978 41.4348 13.4985 45.0495 13.4978C45.0502 14.4831 45.0495 15.4685 45.0495 16.4539C42.5878 16.4546 40.1262 16.4539 37.6653 16.4539C37.6646 17.3882 37.6646 18.3224 37.6653 19.2567C39.8901 19.2574 42.115 19.2567 44.3398 19.2574C44.3391 20.2378 44.3398 21.2181 44.3391 22.1984C42.1142 22.1984 39.8901 22.1977 37.6653 22.1984C37.6646 23.4789 37.6646 24.7587 37.6653 26.0392C36.5122 26.0392 35.3591 26.0392 34.2068 26.0392C34.2061 21.8587 34.2061 17.6782 34.2061 13.4985Z" fill="#2C4684"/>
<path d="M47.0589 16.929C48.1335 16.9283 49.2082 16.929 50.2828 16.929C50.2828 19.9657 50.2828 23.0017 50.2828 26.0385C49.2082 26.0385 48.1335 26.0385 47.0589 26.0385C47.0582 23.0024 47.0589 19.9657 47.0589 16.929Z" fill="#2C4684"/>
<path d="M33.4147 10.6705C34.7341 9.81399 36.3169 9.3958 37.886 9.43827C41.0523 9.43971 44.2193 9.43611 47.3856 9.43971C48.9129 9.43755 50.436 9.89893 51.7021 10.7526C53.7721 12.1202 55.1145 14.5228 55.1606 17.0067C55.1721 18.9746 55.162 20.9417 55.1656 22.9089C55.1714 23.7035 55.0663 24.4996 54.836 25.2604C54.2235 27.3262 52.7069 29.0968 50.7664 30.0296C49.7695 30.514 48.6668 30.7796 47.559 30.8027C40.3274 30.8106 33.0959 30.8041 25.8643 30.8056C27.871 29.3458 29.2846 27.0922 29.6899 24.6407C29.8684 23.6675 29.8201 22.6742 29.8259 21.6896C29.8259 20.5862 29.8259 19.482 29.8259 18.3779C29.8309 17.5098 29.787 16.6324 29.9619 15.7759C30.3441 13.6943 31.6311 11.8063 33.4147 10.6705ZM48.0636 12.8781C47.6771 12.9803 47.3107 13.1998 47.0804 13.5324C46.7313 14.0261 46.7435 14.7344 47.0825 15.2303C47.392 15.6823 47.9434 15.9105 48.4768 15.9458C49.0447 15.9846 49.6622 15.8644 50.0912 15.4657C50.68 14.9266 50.7081 13.8922 50.1308 13.3344C49.5967 12.8104 48.7661 12.7053 48.0636 12.8781ZM34.205 13.4985C34.205 17.6783 34.205 21.8587 34.2057 26.0392C35.3581 26.0392 36.5112 26.0392 37.6643 26.0392C37.6636 24.7587 37.6636 23.4789 37.6643 22.1985C39.8891 22.1977 42.1132 22.1985 44.338 22.1985C44.3388 21.2181 44.338 20.2378 44.3388 19.2575C42.1139 19.2567 39.8891 19.2575 37.6643 19.2567C37.6636 18.3225 37.6636 17.3882 37.6643 16.4539C40.1252 16.4539 42.5868 16.4547 45.0485 16.4539C45.0485 15.4686 45.0492 14.4832 45.0485 13.4978C41.4337 13.4985 37.8197 13.4978 34.205 13.4985ZM47.0581 16.929C47.0581 19.9657 47.0574 23.0025 47.0581 26.0385C48.1327 26.0385 49.2073 26.0385 50.282 26.0385C50.282 23.0017 50.282 19.9657 50.282 16.929C49.2073 16.929 48.1327 16.9283 47.0581 16.929Z" fill="white"/>
<path d="M22.6602 12.8766C23.362 12.7053 24.1912 12.8118 24.7238 13.3351C25.2996 13.8937 25.2716 14.9258 24.6842 15.4656C24.2531 15.8651 23.6341 15.9853 23.064 15.945C22.5674 15.9105 22.0578 15.7133 21.7389 15.3174C21.3373 14.82 21.302 14.0534 21.6734 13.5294C21.9045 13.1969 22.273 12.9774 22.6602 12.8766Z" fill="white"/>
<path d="M4.88672 13.4978C6.08083 13.4971 7.27494 13.4978 8.46905 13.4978C8.8642 16.0055 9.32054 18.5074 9.56239 21.036C9.82798 18.4923 10.429 16.0026 10.9228 13.4978C11.9866 13.4978 13.0504 13.4978 14.1143 13.4978C14.608 16.0026 15.2148 18.493 15.4696 21.0374C15.7266 18.5096 16.1678 16.0055 16.5687 13.4978C17.7513 13.4978 18.9339 13.4978 20.1172 13.4978C19.1203 17.6782 18.122 21.8587 17.1236 26.0392C16.0541 26.0385 14.9852 26.0392 13.9163 26.0385C13.3657 23.4185 12.7697 20.8006 12.4832 18.1353C12.1939 20.7999 11.603 23.4192 11.0487 26.0385C9.99137 26.0392 8.93474 26.0392 7.87739 26.0385C6.8805 21.858 5.88361 17.6782 4.88672 13.4978Z" fill="white"/>
<path d="M21.6475 16.929C22.7235 16.9283 23.7989 16.929 24.8742 16.929C24.8742 19.9657 24.8742 23.0017 24.8742 26.0385C23.7989 26.0392 22.7235 26.0385 21.6482 26.0385C21.6475 23.0024 21.6482 19.9657 21.6475 16.929Z" fill="white"/>
</svg>
