<svg width="219" height="77" viewBox="0 0 219 77" fill="none" xmlns="http://www.w3.org/2000/svg">
<path fill-rule="evenodd" clip-rule="evenodd" d="M193.206 51.4565C193.392 51.6544 193.497 51.9067 193.621 52.145C193.376 53.5378 192.482 54.7029 191.382 55.5246C191.123 55.7068 190.757 55.854 190.471 55.6403C190.187 55.2163 190.303 54.6679 190.412 54.2071C190.722 53.1226 191.528 52.2817 192.367 51.5879C192.588 51.3846 192.936 51.2638 193.208 51.4565H193.206ZM184.879 52.9509C183.719 54.37 183.048 56.1746 182.873 57.9967C182.759 59.3282 182.848 60.7999 183.693 61.8879C184.493 62.9216 185.804 63.3718 187.056 63.4594C188.928 63.5645 190.806 63.4629 192.677 63.3017C194.177 63.1598 195.666 62.8147 197.041 62.1805C197.772 61.8318 198.536 61.3921 198.905 60.6264C199.336 59.5367 198.406 58.1281 197.222 58.2402C196.211 58.3103 195.382 58.9848 194.516 59.4456C193.451 60.1849 192.029 60.3076 190.822 59.8713C190.012 59.577 189.788 58.2945 190.632 57.9003C191.533 57.648 192.491 57.7286 193.407 57.5569C194.772 57.429 196.067 56.9332 197.262 56.2745C198.225 55.6911 199.156 54.9079 199.531 53.7971C199.935 52.6513 200.041 51.3093 199.49 50.195C199.175 49.6064 198.551 49.2875 197.956 49.0703C196.232 48.4581 194.381 48.2941 192.577 48.5937C189.607 49.0352 186.759 50.5559 184.879 52.9509ZM176.215 51.4757C176.375 51.679 176.49 51.9172 176.609 52.145C176.359 53.5431 175.485 54.7485 174.354 55.5544C174.1 55.7016 173.745 55.9048 173.485 55.6613C173.224 55.2566 173.289 54.7327 173.391 54.2824C173.675 53.1839 174.489 52.3272 175.33 51.6194C175.565 51.4092 175.94 51.2235 176.215 51.4757ZM169.526 51.2638C167.796 52.629 166.59 54.5491 166.111 56.7002C165.801 58.1018 165.642 59.6278 166.187 60.9961C166.422 61.5802 166.8 62.0957 167.287 62.4949C167.774 62.8942 168.354 63.1644 168.972 63.2807C170.295 63.6259 171.665 63.3718 173.011 63.4997C175.474 63.3683 178.084 63.2755 180.299 62.0403C180.889 61.6601 181.564 61.2957 181.923 60.6615C182.273 59.563 181.389 58.058 180.154 58.2402C179.064 58.4172 178.165 59.132 177.21 59.6383C176.32 60.1954 175.22 60.2165 174.225 60.0185C173.825 59.9309 173.394 59.7504 173.23 59.3387C172.906 58.8079 173.165 57.9862 173.804 57.8705C174.759 57.6428 175.754 57.6778 176.725 57.5307C178.319 57.3379 179.829 56.6599 181.114 55.6911C181.879 55.0779 182.624 54.2632 182.708 53.2295C182.799 52.2659 183.023 51.2287 182.549 50.3317C182.259 49.6379 181.529 49.3138 180.879 49.0545C179.152 48.465 177.307 48.3069 175.506 48.5937C173.324 48.9178 171.255 49.8902 169.526 51.2638ZM144.595 51.7753C144.74 52.4534 144.474 53.1384 144.145 53.7201C143.675 54.5523 143.001 55.2916 142.16 55.7419C141.652 55.9959 141.42 55.2618 141.356 54.8869C141.631 53.4835 142.5 52.18 143.724 51.467C144.034 51.2935 144.52 51.3759 144.595 51.7753ZM138.235 50.838C137.072 51.6895 135.972 52.6881 135.287 53.9846C134.242 55.8487 133.671 58.0668 134.051 60.2112C134.291 61.5953 135.341 62.7691 136.665 63.1896C138.312 63.752 140.064 63.4226 141.76 63.4787C143.81 63.4034 145.909 63.2001 147.805 62.3644C148.576 61.9282 149.453 61.5532 149.965 60.7929C150.499 59.6646 149.523 58.1193 148.248 58.2647C147.195 58.3979 146.338 59.1232 145.415 59.5928C144.474 60.206 143.295 60.2568 142.235 60.0185C141.983 59.9592 141.752 59.8327 141.566 59.6526C141.381 59.4724 141.247 59.2453 141.18 58.9953C141.121 58.5188 141.405 57.9722 141.895 57.8705C142.531 57.7286 143.185 57.7479 143.829 57.6673C146.044 57.4904 148.325 56.7037 149.909 55.0691C150.89 54.0302 151.023 52.5042 150.92 51.1429C150.804 50.4018 150.389 49.6922 149.699 49.3786C148.085 48.5639 146.219 48.3554 144.441 48.4973C142.216 48.6848 140.026 49.475 138.235 50.838ZM127.658 52.3377C127.494 53.0469 127.183 53.714 126.747 54.2968C126.31 54.8795 125.757 55.3651 125.123 55.7226C124.662 55.9609 124.443 55.3214 124.335 54.992C124.524 53.5326 125.444 52.2659 126.633 51.467C127.184 51.0815 127.828 51.7701 127.658 52.3377ZM121.49 50.5805C120.284 51.467 119.17 52.5199 118.35 53.7866C117.254 55.5939 116.764 57.7046 116.954 59.81C117.064 60.6264 117.439 61.3921 117.935 62.035C118.741 62.9776 119.993 63.3666 121.194 63.3981C122.169 63.4139 123.149 63.5698 124.128 63.4489C126.132 63.3788 128.163 63.2211 130.083 62.5974C131.152 62.1962 132.361 61.7565 132.942 60.6825C133.547 59.5437 132.436 58.0125 131.182 58.2297C129.868 58.468 128.848 59.4456 127.618 59.9116C126.7 60.1801 125.72 60.1445 124.824 59.81C123.969 59.4806 123.944 57.9704 124.938 57.8302C126.788 57.5061 128.778 57.627 130.483 56.709C131.932 56.0152 133.512 54.9832 133.822 53.2593C133.941 52.2782 134.092 51.2129 133.652 50.2914C133.407 49.6887 132.776 49.4101 132.233 49.1561C130.481 48.4308 128.543 48.3151 126.688 48.5884C124.832 48.8267 123.063 49.5713 121.49 50.5805ZM108.64 51.05C108.945 51.6632 109.66 51.8104 110.191 52.1503C110.885 52.6618 111.046 53.6149 111.025 54.4349C110.917 56.1211 110.153 57.698 108.896 58.8271C108.346 59.3492 107.701 59.8766 106.901 59.8608C105.771 59.8608 104.472 59.4561 103.893 58.3926C103.607 57.8705 103.893 57.2976 104.062 56.7913C104.581 55.4896 105.187 54.2159 105.722 52.9246C106.056 52.1047 106.116 51.1779 105.916 50.3159C105.837 49.9997 105.676 49.7101 105.448 49.4768C105.221 49.2435 104.935 49.0747 104.621 48.9879C103.127 48.5376 101.517 48.5482 99.9926 48.8618C98.7522 49.0808 97.6081 49.6221 96.4325 50.0584C95.8929 50.2756 95.2534 50.6453 95.2131 51.2988C95.4234 51.8927 95.8123 52.4201 96.2328 52.8791C96.8425 53.3416 97.5573 52.7424 98.1582 52.5287C98.1723 52.8896 98.2126 53.254 98.1372 53.6097C97.852 54.8913 97.5318 56.1649 97.1771 57.429C96.853 58.7921 96.8583 60.4337 97.8429 61.5287C99.2568 62.8918 101.258 63.4139 103.162 63.4945C105.552 63.5751 108.033 62.9969 109.986 61.5585C111.5 60.2673 112.921 58.8026 113.884 57.0296C114.8 55.3932 115.281 53.4678 115.005 51.5931C114.885 50.7872 114.736 49.9165 114.15 49.3173C113.541 48.7759 112.714 48.5727 111.936 48.4763C111 48.3659 109.946 48.4868 109.247 49.1859C108.756 49.6379 108.306 50.3772 108.64 51.05ZM156.728 50.4929C156.034 50.5805 155.328 50.6155 154.643 50.7679C153.653 51.0045 152.933 52.0749 153.094 53.0928C153.148 53.4257 153.404 53.7008 153.728 53.7971C154.413 53.9899 155.13 53.9636 155.829 53.9128C155.163 56.3901 154.473 58.8832 154.168 61.4429C154.124 62.3592 154.683 63.2649 155.534 63.5961C156.873 64.1217 158.348 63.9763 159.743 63.8379C161.313 63.5961 162.917 63.109 164.14 62.0333C164.636 61.5883 165.092 60.9558 164.981 60.2463C164.897 59.6488 164.266 59.3545 163.732 59.3089C163.072 59.3352 162.663 59.9729 162.027 60.0851C161.696 60.1762 161.321 59.9379 161.218 59.619C160.917 58.8079 161.038 57.9266 161.202 57.0997C161.432 55.9749 161.731 54.8501 162.257 53.8269C163.133 53.8427 164.047 53.8935 164.871 53.5641C165.801 53.1787 166.106 51.8559 165.566 51.0465C165.022 50.2704 163.967 50.4876 163.163 50.4473C163.347 49.5713 163.478 48.655 163.347 47.7633C163.206 47.1045 162.516 46.8522 161.928 46.8207C160.684 46.7401 159.317 46.5929 158.184 47.2254C157.167 47.97 157.043 49.3593 156.729 50.4929H156.728ZM210.913 52.9106C211.153 53.2645 211.153 53.7201 211.143 54.137C211.038 55.7874 210.239 57.3081 209.233 58.5748C208.893 59.0058 208.384 59.3545 207.819 59.2897C207.294 59.2336 207.01 58.6607 207.019 58.1736C206.98 57.0751 207.334 56.0064 207.774 55.013C208.235 54.1055 208.699 53.0823 209.624 52.576C209.847 52.4891 210.091 52.4746 210.322 52.5343C210.554 52.594 210.761 52.7251 210.913 52.9089V52.9106ZM210.954 45.0985C210.183 45.4161 209.567 46.023 209.239 46.7891C209.028 47.3323 209.408 47.9647 209.939 48.1224C210.36 48.2801 210.789 48.0769 211.21 48.005C211.434 47.9507 211.779 47.935 211.863 48.2188C212.014 48.7304 212.049 49.2717 212.038 49.8096C212.033 50.0987 211.868 50.4333 211.565 50.4736C211.054 50.6558 210.584 50.3159 210.144 50.1179C208.564 49.3295 206.579 49.3085 205.09 50.3107C203.75 51.269 202.479 52.3833 201.565 53.7709C200.936 54.768 200.463 55.855 200.161 56.9945C199.876 58.1228 199.711 59.3247 200.046 60.4635C200.216 61.5024 200.785 62.4958 201.696 63.0284C202.66 63.5593 203.799 63.4139 204.85 63.3823C205.568 63.3368 206.355 63.3876 206.984 62.9724C207.8 62.4398 208.34 61.5129 209.295 61.1888C209.74 60.9768 210.349 61.1485 210.563 61.6146C210.735 62.0245 210.673 62.5116 210.934 62.8918C211.264 63.5137 212.059 63.519 212.669 63.5137C213.908 63.3771 215.164 63.1546 216.297 62.5974C217.193 62.177 218.158 61.767 218.808 60.9856C219.372 60.3636 218.547 59.3247 217.823 59.5928C217.419 59.6839 216.753 59.8976 216.618 59.3247C216.473 57.7794 216.804 56.2447 217.112 54.7397C217.422 53.219 217.958 51.7613 218.282 50.2458C218.601 48.8234 218.809 47.3783 218.903 45.9237C218.943 45.3805 218.713 44.7376 218.149 44.5816C216.748 44.07 215.213 44.0438 213.759 44.261C212.795 44.4345 211.849 44.7078 210.955 45.0985H210.954ZM197.087 21.3308C196.216 23.8747 195.545 26.529 195.611 29.2446C195.566 30.9108 196.081 32.5682 196.987 33.9522C198.206 35.699 200.21 36.6713 202.21 37.1847C204.221 37.7558 206.33 37.5789 208.394 37.6192C211.893 37.6139 215.393 37.6963 218.892 37.6349C219.049 29.7726 219.035 21.9078 218.852 14.046C216.408 14.046 213.964 14.046 211.518 14.0495V32.8625C209.508 33.0237 207.359 33.0955 205.519 32.1126C204.946 31.8386 204.456 31.4172 204.1 30.8915C203.21 29.7106 203.101 28.1444 203.199 26.7165C203.331 24.5335 204.1 22.4714 204.86 20.4496C205.705 18.2193 206.824 16.1116 207.93 14.0092C205.635 13.9181 203.334 13.9952 201.036 13.9584C200.631 13.9637 200.065 13.8883 199.89 14.3701C198.811 16.6294 197.874 18.9542 197.087 21.3308ZM167.956 37.5841H175.59V28.9468C175.614 27.2824 175.5 25.618 175.665 23.9606C178.279 28.3283 180.819 32.7504 183.404 37.1374C183.568 37.3914 183.803 37.6349 184.129 37.6349C184.909 37.6998 185.693 37.6349 186.477 37.6507C188.067 37.6244 189.662 37.6858 191.253 37.6157C191.412 29.7562 191.398 21.888 191.207 14.0303C188.688 13.9689 186.158 13.8936 183.644 14.1266C183.644 18.419 183.638 22.7132 183.644 27.0038C183.633 27.4208 183.693 27.8448 183.558 28.2512C180.849 23.5208 178.23 18.7309 175.56 13.9794C173.019 13.9847 170.486 13.9794 167.951 13.9794C167.956 21.8459 167.951 29.7159 167.956 37.5841ZM140.446 37.6244H147.989C148.004 34.0223 147.929 30.415 148.024 26.8128C150.715 26.8181 153.402 26.8181 156.093 26.8128C156.093 30.3992 156.088 33.982 156.099 37.5631C158.627 37.6998 161.178 37.7103 163.702 37.5123V14.06C161.168 13.9113 158.626 13.9248 156.093 14.1003C156.088 16.6583 156.088 19.2179 156.093 21.7758C153.388 21.7758 150.688 21.7811 147.985 21.7758C147.989 19.1934 147.985 16.6145 147.969 14.0303H140.411C140.243 21.8942 140.255 29.761 140.446 37.6244ZM125.432 37.6647H133.932C133.941 29.7667 133.936 21.8669 133.936 13.9689C131.103 13.9637 128.268 13.9584 125.433 13.9689V37.6647H125.432ZM111.975 19.4615C110.545 21.6865 108.805 23.6925 106.941 25.5567C106.531 25.9421 106.161 26.3871 105.662 26.6552C105.641 22.4346 105.657 18.214 105.652 13.9952C103.067 13.9987 100.478 13.9987 97.8884 13.9952C97.7185 21.8827 97.7273 29.7772 97.927 37.6647C100.502 37.6595 103.081 37.67 105.657 37.6595C105.652 34.9491 105.652 32.2388 105.646 29.5337C105.627 28.6822 105.641 27.836 105.706 26.9898C108.327 30.1066 110.561 33.6474 111.696 37.5999C114.86 37.6052 118.021 37.5999 121.18 37.5999C119.594 33.6877 117.315 30.1013 114.715 26.8076C115.734 25.6215 116.759 24.4319 117.684 23.1704C118.99 21.3308 120.368 19.4509 120.904 17.2171C121.18 16.1537 121.132 15.0482 121.115 13.9637C118.594 13.9584 116.069 13.9637 113.546 13.9584C113.611 15.9101 113.005 17.8251 111.975 19.4597V19.4615ZM28.4795 3.11354C29.7584 1.6366 31.7242 0.750092 33.6741 0.969091C35.5926 1.07071 37.3586 2.26557 38.373 3.89668C39.1684 5.21944 39.6222 6.79449 39.4768 8.35552C39.4119 9.82545 38.776 11.213 37.8929 12.3536C37.6179 12.7127 37.2675 13.0824 37.3078 13.5747C37.3323 15.961 37.292 18.3524 37.3428 20.7439C42.3115 20.7387 47.2819 20.7387 52.2506 20.7439C52.2063 22.934 52.1596 25.124 52.1104 27.3139C47.1908 27.3192 42.2765 27.3139 37.3586 27.3139C37.3323 28.7541 37.4672 30.1819 37.5233 31.6151C37.8036 36.7887 38.0086 41.9659 38.3117 47.1343C38.5885 49.6064 39.0072 52.1906 40.4018 54.3C41.1026 55.3266 42.2467 56.1221 43.5169 56.1028C45.0359 56.0853 46.4252 55.2863 47.6603 54.4559C49.0164 53.2505 50.3462 52.0031 51.5901 50.6751C50.8805 49.4802 49.74 48.6182 48.5118 48.0366C49.9012 47.3831 51.3308 46.7856 52.5695 45.8641C56.4992 43.0399 59.404 39.0541 61.9882 34.9947C62.8379 33.6421 63.6281 32.2546 64.4638 30.8862C65.1436 32.7556 65.5781 34.7021 65.9688 36.6503C66.7046 40.6536 67.0375 44.8094 66.2666 48.832C65.9039 50.7767 65.2539 52.6724 64.1992 54.3438C63.0469 56.231 61.3796 57.75 59.3935 58.722C58.6647 57.8548 57.9288 56.9875 57.2 56.1291C56.585 56.8824 56.1102 57.7479 55.5198 58.524C52.4812 62.6936 48.831 66.381 44.6925 69.4618C41.5178 71.869 38.1084 73.9311 34.5729 75.7392C34.1629 75.9319 33.7793 76.221 33.3132 76.2718C32.8892 76.2105 32.5283 75.9477 32.1481 75.7637C27.4598 73.3179 22.8958 70.5322 18.9205 66.9897C15.2944 63.8464 12.1348 60.2024 9.53683 56.1676C8.65207 56.8982 8.0669 57.9021 7.27324 58.7168C6.024 58.0864 4.88743 57.2541 3.9094 56.2534C2.87787 55.1061 2.04423 53.7953 1.44259 52.3745C0.666124 50.4098 0.19921 48.3364 0.0585077 46.2285C-0.218308 41.2283 0.487748 36.1931 1.99272 31.4294C2.05228 31.2542 2.12236 31.0755 2.19244 30.8985C2.49028 31.3383 2.75659 31.8043 3.01588 32.2703C4.4296 34.7147 5.98207 37.0762 7.66569 39.3431C9.57537 41.8923 11.7706 44.268 14.3899 46.0831C15.5742 46.868 16.8742 47.4409 18.1584 48.0278C16.9338 48.6305 15.7845 49.4872 15.0802 50.6926C16.5694 52.4446 18.2846 54.0319 20.2783 55.1812C21.4294 55.9066 22.8993 56.3673 24.2326 55.9311C25.5939 55.465 26.4436 54.1843 27.0376 52.9317C27.896 50.8152 28.3078 48.5236 28.3831 46.2443C28.6985 39.9423 29.0927 33.6439 29.3222 27.3402C24.4025 27.3157 19.4847 27.3402 14.5651 27.3262C14.5143 25.1432 14.4599 22.9479 14.4056 20.7597C19.3743 20.7404 24.343 20.7544 29.3116 20.7492C29.3782 18.4593 29.3169 16.1642 29.3519 13.8691C29.3975 13.3627 28.977 13.0176 28.6774 12.6847C27.2671 11.2043 26.6434 9.06683 26.8186 7.03977C26.9675 5.60138 27.6175 4.25409 28.4777 3.11354" fill="white"/>
</svg>
