<svg xmlns="http://www.w3.org/2000/svg" width="46" height="46" viewBox="0 0 46 46"><circle cx="23" cy="23" r="23" fill="#040285"/><path d="M46 23c0-6.1-2.4-11.7-6.3-15.8L30 12.5V1.1C27.8.4 25.5 0 23 0c-2.6 0-5.1.4-7.4 1.2v11.4L6.2 7.2C2.4 11.4 0 16.9 0 23c0 6.1 2.3 11.6 6.2 15.7l9.4-5.4v11.6c2.3.8 4.8 1.2 7.4 1.2 2.5 0 4.8-.4 7-1.1V33.6l9.8 5.1C43.7 34.5 46 29 46 23z" fill="#fff"/><path d="M17.8 45.4V28.3H.6C.2 26.6 0 24.8 0 23c0-1.8.2-3.6.6-5.3h17.2V.6C19.5.2 21.2 0 23 0c1.7 0 3.4.2 5 .6v17.1h17.3c.4 1.7.6 3.5.6 5.3 0 1.8-.2 3.6-.6 5.3H28v17.1c-1.6.4-3.3.6-5 .6-1.8 0-3.5-.2-5.2-.6zM4.6 36.8l11-6.5-8.9-.2-4.6 2.5c.7 1.5 1.5 2.9 2.5 4.2zm39.1-3.7l-5-2.5h-9.1l11.9 6.2c.8-1.2 1.6-2.4 2.2-3.7zM4.1 9.9c-.7 1-1.3 2.1-1.9 3.2l4.3 2.4h7.1L4.1 9.9zm37.5-.4l-11.8 6.6 7.6-.2 6.2-3.1c-.6-1.2-1.2-2.3-2-3.3z" fill="#fc0204"/></svg>